<svg width="248" height="201" viewBox="0 0 248 201" fill="none" xmlns="http://www.w3.org/2000/svg">
<g clip-path="url(#clip0)">
<path d="M165.144 201L165.091 200.995L82.8564 193.331L8.07731 200.3C7.05316 200.396 6.02043 200.276 5.04513 199.948C4.06983 199.62 3.17342 199.092 2.41322 198.397C1.65302 197.701 1.04575 196.855 0.630232 195.911C0.21471 194.967 7.8262e-05 193.946 6.16988e-05 192.914V14.4828C-0.00748691 12.6321 0.677869 10.8461 1.92044 9.47829C3.163 8.11048 4.87219 7.26063 6.70959 7.09702L82.8564 0L82.909 0.00501223L165.144 7.66929L239.923 0.699865C240.947 0.604413 241.98 0.724408 242.955 1.05218C243.93 1.37995 244.827 1.90828 245.587 2.60341C246.347 3.29853 246.954 4.14515 247.37 5.08914C247.785 6.03313 248 7.05372 248 8.08566V186.517C248.008 188.368 247.322 190.154 246.08 191.522C244.837 192.889 243.128 193.739 241.291 193.903L165.144 201ZM82.8564 192.185L82.909 192.19L165.144 199.854L241.185 192.767C242.74 192.628 244.186 191.909 245.238 190.752C246.289 189.594 246.869 188.083 246.863 186.517V8.08566C246.863 7.21247 246.681 6.34889 246.329 5.55012C245.978 4.75135 245.464 4.03498 244.821 3.44678C244.177 2.85859 243.419 2.41153 242.594 2.13417C241.768 1.85682 240.895 1.75528 240.028 1.83604L165.144 8.81548L165.091 8.81047L82.8564 1.1462L6.8148 8.2332L6.76219 7.66512L6.8148 8.2332C5.26007 8.37169 3.81385 9.09082 2.76245 10.2482C1.71105 11.4056 1.13113 12.9169 1.1375 14.4828V192.914C1.13751 193.788 1.31912 194.651 1.67071 195.45C2.0223 196.249 2.53614 196.965 3.17939 197.553C3.82263 198.141 4.58112 198.588 5.40638 198.866C6.23163 199.143 7.10549 199.245 7.97208 199.164L82.8564 192.185Z" fill="#E6E6E6"/>
<path d="M236.946 45.6667C236.946 40.5927 232.843 28.5525 227.782 28.5525C222.722 28.5525 218.619 40.5927 218.619 45.6667C218.621 48.1039 219.587 50.4409 221.305 52.1637C223.023 53.8866 225.353 54.8544 227.782 54.8544C230.212 54.8544 232.542 53.8866 234.26 52.1637C235.978 50.4409 236.944 48.1039 236.946 45.6667Z" fill="#F2C94C"/>
<path opacity="0.1" d="M236.946 45.6667C236.946 40.5927 232.843 28.5525 227.782 28.5525C222.722 28.5525 218.619 40.5927 218.619 45.6667C218.621 48.1039 219.587 50.4409 221.305 52.1637C223.023 53.8866 225.353 54.8544 227.782 54.8544C230.212 54.8544 232.542 53.8866 234.26 52.1637C235.978 50.4409 236.944 48.1039 236.946 45.6667Z" fill="black"/>
<path d="M217.858 65.8853C217.858 64.8674 218.261 63.8911 218.978 63.1714C219.696 62.4516 220.669 62.0472 221.683 62.0472C222.698 62.0472 223.671 62.4516 224.388 63.1714C225.106 63.8911 225.509 64.8674 225.509 65.8853" fill="#F2F2F2"/>
<path d="M221.683 65.8853C221.656 65.8853 221.629 65.8744 221.61 65.855C221.591 65.8355 221.58 65.8091 221.58 65.7816V63.7589C221.58 63.7314 221.591 63.705 221.61 63.6855C221.629 63.6661 221.656 63.6552 221.683 63.6552C221.711 63.6552 221.737 63.6661 221.757 63.6855C221.776 63.705 221.787 63.7314 221.787 63.7589V65.7816C221.787 65.8091 221.776 65.8355 221.757 65.855C221.737 65.8744 221.711 65.8853 221.683 65.8853Z" fill="#CCCCCC"/>
<path d="M221.683 65.1902C221.659 65.1903 221.635 65.1814 221.616 65.1652L220.375 64.0969C220.365 64.088 220.357 64.0772 220.351 64.065C220.344 64.0529 220.341 64.0396 220.34 64.026C220.339 64.0125 220.34 63.9988 220.345 63.9859C220.349 63.9729 220.355 63.9609 220.364 63.9506C220.373 63.9403 220.384 63.9318 220.396 63.9256C220.408 63.9195 220.421 63.9158 220.435 63.9147C220.448 63.9137 220.462 63.9153 220.475 63.9196C220.488 63.9238 220.5 63.9306 220.51 63.9394L221.751 65.0078C221.767 65.0216 221.778 65.04 221.784 65.0605C221.789 65.081 221.788 65.1027 221.78 65.1225C221.773 65.1424 221.76 65.1596 221.742 65.1717C221.725 65.1838 221.704 65.1902 221.683 65.1902H221.683Z" fill="#CCCCCC"/>
<path d="M229.645 65.8853C229.645 64.8674 230.048 63.8911 230.765 63.1714C231.482 62.4516 232.455 62.0472 233.47 62.0472C234.485 62.0472 235.458 62.4516 236.175 63.1714C236.892 63.8911 237.295 64.8674 237.295 65.8853" fill="#F2F2F2"/>
<path d="M233.47 65.8853C233.442 65.8853 233.416 65.8744 233.397 65.855C233.377 65.8355 233.366 65.8091 233.366 65.7816V63.7589C233.366 63.7314 233.377 63.705 233.397 63.6855C233.416 63.6661 233.442 63.6552 233.47 63.6552C233.498 63.6552 233.524 63.6661 233.543 63.6855C233.563 63.705 233.574 63.7314 233.574 63.7589V65.7816C233.574 65.8091 233.563 65.8355 233.543 65.855C233.524 65.8744 233.498 65.8853 233.47 65.8853Z" fill="#CCCCCC"/>
<path d="M233.47 65.1903C233.445 65.1903 233.421 65.1814 233.402 65.1652L232.162 64.0969C232.141 64.0789 232.128 64.0535 232.126 64.0261C232.124 63.9988 232.133 63.9718 232.151 63.951C232.169 63.9302 232.194 63.9173 232.221 63.9151C232.248 63.913 232.275 63.9217 232.296 63.9395L233.537 65.0078C233.553 65.0216 233.564 65.04 233.57 65.0605C233.575 65.081 233.574 65.1027 233.567 65.1226C233.559 65.1424 233.546 65.1596 233.529 65.1717C233.511 65.1838 233.491 65.1903 233.47 65.1902V65.1903Z" fill="#CCCCCC"/>
<path d="M116.419 31.1343C118.932 27.525 121.978 16.9149 118.378 14.3917C114.778 11.8686 105.896 18.3878 103.383 21.9971C102.176 23.7315 101.705 25.8758 102.074 27.9585C102.442 30.0411 103.62 31.8916 105.349 33.103C107.077 34.3144 109.214 34.7875 111.29 34.4183C113.366 34.0492 115.211 32.8679 116.419 31.1343Z" fill="#F2F2F2"/>
<path d="M99.8172 41.0469C99.7974 41.0331 99.7839 41.0119 99.7797 40.9881C99.7755 40.9642 99.7809 40.9397 99.7947 40.9199L110.425 25.6537C110.439 25.6339 110.46 25.6204 110.483 25.6161C110.507 25.6119 110.532 25.6173 110.551 25.6312C110.571 25.645 110.585 25.6662 110.589 25.69C110.593 25.7139 110.588 25.7384 110.574 25.7582L99.9438 41.0244C99.93 41.0442 99.9089 41.0577 99.8851 41.0619C99.8614 41.0662 99.8369 41.0608 99.8172 41.0469Z" fill="#CCCCCC"/>
<path d="M108.513 28.5583C108.502 28.5508 108.493 28.5412 108.487 28.5299C108.48 28.5186 108.476 28.5061 108.475 28.493L107.746 21.5281C107.744 21.5041 107.751 21.48 107.766 21.4612C107.781 21.4424 107.803 21.4304 107.827 21.4279C107.851 21.4253 107.875 21.4325 107.894 21.4477C107.913 21.4629 107.924 21.485 107.927 21.5091L108.656 28.474C108.657 28.4914 108.654 28.5089 108.646 28.5245C108.638 28.5402 108.626 28.5532 108.611 28.5621C108.596 28.5709 108.579 28.5753 108.562 28.5747C108.544 28.574 108.527 28.5683 108.513 28.5583L108.513 28.5583Z" fill="#CCCCCC"/>
<path d="M106.77 31.0614C106.756 31.0511 106.744 31.0366 106.738 31.0198C106.731 31.003 106.73 30.9846 106.734 30.967C106.737 30.9494 106.746 30.9333 106.759 30.9209C106.772 30.9084 106.789 30.9 106.806 30.8969L110.425 30.2527C110.436 30.2506 110.449 30.2507 110.46 30.2533C110.472 30.2558 110.483 30.2607 110.493 30.2675C110.503 30.2744 110.511 30.2831 110.518 30.2932C110.524 30.3034 110.529 30.3147 110.531 30.3265C110.533 30.3383 110.532 30.3505 110.53 30.3622C110.527 30.3739 110.522 30.3851 110.515 30.3949C110.509 30.4047 110.5 30.4131 110.49 30.4195C110.48 30.4259 110.468 30.4303 110.456 30.4323L106.838 31.0765C106.826 31.0786 106.814 31.0784 106.803 31.0758C106.791 31.0732 106.78 31.0683 106.77 31.0614Z" fill="#CCCCCC"/>
<path d="M92.8267 35.9996C93.3317 35.2778 94.1016 34.7864 94.9673 34.6333C95.833 34.4802 96.7239 34.6779 97.4445 35.183C98.1651 35.6881 98.6566 36.4593 98.8112 37.3276C98.9658 38.1958 98.7708 39.09 98.269 39.8142" fill="#F2F2F2"/>
<path d="M95.5476 37.9069C95.5281 37.8932 95.5148 37.8723 95.5107 37.8488C95.5065 37.8253 95.5118 37.8011 95.5255 37.7815L96.5274 36.3427C96.541 36.3233 96.5618 36.3101 96.5852 36.306C96.6085 36.3019 96.6325 36.3073 96.652 36.3209C96.6714 36.3345 96.6847 36.3553 96.6889 36.3787C96.6931 36.4021 96.6879 36.4262 96.6744 36.4458L95.6725 37.8846C95.6589 37.9042 95.6381 37.9176 95.6147 37.9217C95.5912 37.9259 95.5671 37.9206 95.5476 37.9069Z" fill="#CCCCCC"/>
<path d="M95.8917 37.4124C95.8742 37.4001 95.8616 37.3819 95.8563 37.3611L95.5029 35.9825C95.4999 35.9711 95.4992 35.9591 95.5009 35.9474C95.5025 35.9356 95.5064 35.9243 95.5124 35.9141C95.5184 35.9039 95.5263 35.895 95.5357 35.8879C95.5452 35.8807 95.5559 35.8755 95.5674 35.8726C95.5788 35.8696 95.5907 35.869 95.6024 35.8707C95.6141 35.8723 95.6254 35.8763 95.6355 35.8824C95.6457 35.8884 95.6545 35.8964 95.6616 35.9059C95.6687 35.9154 95.6738 35.9262 95.6767 35.9377L96.03 37.3162C96.0346 37.334 96.0336 37.3528 96.0272 37.3701C96.0208 37.3873 96.0093 37.4022 95.9943 37.4126C95.9792 37.4231 95.9613 37.4287 95.943 37.4287C95.9246 37.4286 95.9068 37.4229 95.8917 37.4124Z" fill="#CCCCCC"/>
<path d="M101.21 41.8761C101.46 41.5165 101.777 41.2097 102.145 40.9733C102.512 40.737 102.923 40.5757 103.352 40.4987C103.782 40.4216 104.223 40.4304 104.649 40.5245C105.075 40.6186 105.479 40.7962 105.837 41.047C106.195 41.2979 106.5 41.617 106.735 41.9863C106.969 42.3556 107.129 42.7677 107.205 43.1991C107.281 43.6304 107.271 44.0725 107.176 44.5C107.082 44.9276 106.904 45.3322 106.653 45.6907" fill="#F2F2F2"/>
<path d="M103.932 43.7833C103.912 43.7696 103.899 43.7487 103.895 43.7252C103.891 43.7017 103.896 43.6775 103.91 43.658L104.912 42.2191C104.925 42.1996 104.946 42.1862 104.969 42.182C104.993 42.1779 105.017 42.1832 105.037 42.1969C105.056 42.2106 105.069 42.2314 105.073 42.2549C105.078 42.2785 105.072 42.3027 105.059 42.3222L104.057 43.7611C104.043 43.7806 104.022 43.794 103.999 43.7981C103.976 43.8023 103.951 43.797 103.932 43.7833Z" fill="#CCCCCC"/>
<path d="M104.276 43.2889C104.259 43.2766 104.246 43.2584 104.241 43.2376L103.887 41.859C103.882 41.8359 103.885 41.8115 103.897 41.7911C103.909 41.7706 103.929 41.7558 103.952 41.7499C103.975 41.744 103.999 41.7474 104.02 41.7595C104.04 41.7715 104.055 41.7912 104.061 41.8142L104.415 43.1927C104.419 43.2105 104.418 43.2293 104.412 43.2466C104.405 43.2638 104.394 43.2787 104.379 43.2891C104.364 43.2996 104.346 43.3052 104.328 43.3052C104.309 43.3051 104.291 43.2994 104.276 43.2889Z" fill="#CCCCCC"/>
<path d="M167.982 109.864C170.004 111.727 172.013 113.603 174.008 115.493C173.496 115.521 172.965 115.544 172.419 115.561C171.648 115.587 170.846 115.598 170.004 115.598C160.771 115.598 156.085 114.077 151.558 112.605C147.258 111.21 143.198 109.892 134.86 109.892C126.52 109.892 122.459 111.21 118.162 112.605C113.632 114.077 108.946 115.598 99.713 115.598C90.477 115.598 85.7935 114.077 81.2637 112.605C77.0637 111.242 73.0911 109.952 65.1346 109.895C64.9469 109.892 64.7593 109.892 64.5659 109.892V104.186C64.7564 104.186 64.9469 104.186 65.1346 104.189C73.9954 104.249 78.5793 105.738 83.0152 107.176C87.3148 108.574 91.3756 109.892 99.713 109.892C108.05 109.892 112.111 108.574 116.411 107.176C120.941 105.707 125.624 104.186 134.86 104.186C144.093 104.186 148.777 105.707 153.306 107.176C156.898 108.343 160.325 109.456 166.217 109.789C166.782 109.824 167.368 109.847 167.982 109.864Z" fill="#6C63FF"/>
<path d="M240.301 109.892V115.598C231.065 115.598 226.382 114.077 221.852 112.605C217.552 111.21 213.492 109.892 205.154 109.892C196.814 109.892 192.753 111.21 188.454 112.605C188.221 112.682 187.984 112.757 187.748 112.834C187.345 112.965 186.935 113.096 186.52 113.224C184.95 111.681 183.375 110.151 181.794 108.634C182.235 108.526 182.661 108.412 183.082 108.295C184.336 107.946 185.51 107.564 186.705 107.176C191.235 105.707 195.918 104.186 205.154 104.186C214.39 104.186 219.074 105.707 223.604 107.176C227.903 108.574 231.964 109.892 240.301 109.892Z" fill="#6C63FF"/>
<path d="M114.633 66.0108C98.7147 54.3793 81.9658 43.3497 64.8558 33.2303L63.9971 32.7225V67.0436H116.047L114.633 66.0108ZM65.1345 65.9024V34.7224C81.4114 44.3825 97.3498 54.8643 112.549 65.9024H65.1345ZM195.196 136.545C188.311 129.364 181.249 122.346 174.008 115.493C172.012 113.601 170.003 111.725 167.982 109.864C155.65 98.4975 142.911 87.6876 129.767 77.4341L129.613 77.3142H63.9971V137.512H196.123L195.196 136.545ZM65.1345 136.371V78.4554H129.224C141.898 88.3466 154.229 98.7913 166.216 109.789C168.298 111.698 170.365 113.622 172.418 115.561C179.596 122.328 186.605 129.265 193.447 136.371H65.1345ZM195.196 136.545C188.311 129.364 181.249 122.346 174.008 115.493C172.012 113.601 170.003 111.725 167.982 109.864C155.65 98.4975 142.911 87.6876 129.767 77.4341L129.613 77.3142H63.9971V137.512H196.123L195.196 136.545ZM65.1345 136.371V78.4554H129.224C141.898 88.3466 154.229 98.7913 166.216 109.789C168.298 111.698 170.365 113.622 172.418 115.561C179.596 122.328 186.605 129.265 193.447 136.371H65.1345ZM114.633 66.0108C98.7147 54.3793 81.9658 43.3497 64.8558 33.2303L63.9971 32.7225V67.0436H116.047L114.633 66.0108ZM65.1345 65.9024V34.7224C81.4114 44.3825 97.3498 54.8643 112.549 65.9024H65.1345ZM114.633 66.0108C98.7147 54.3793 81.9658 43.3497 64.8558 33.2303L63.9971 32.7225V67.0436H116.047L114.633 66.0108ZM65.1345 65.9024V34.7224C81.4114 44.3825 97.3498 54.8643 112.549 65.9024H65.1345ZM195.196 136.545C188.311 129.364 181.249 122.346 174.008 115.493C172.012 113.601 170.003 111.725 167.982 109.864C155.65 98.4975 142.911 87.6876 129.767 77.4341L129.613 77.3142H63.9971V137.512H196.123L195.196 136.545ZM65.1345 136.371V78.4554H129.224C141.898 88.3466 154.229 98.7913 166.216 109.789C168.298 111.698 170.365 113.622 172.418 115.561C179.596 122.328 186.605 129.265 193.447 136.371H65.1345ZM7.69922 147.782V148.924H52.6226V165.471H7.69922V166.612H53.7601V147.782H7.69922ZM63.9971 176.883V188.446L65.1345 188.34V178.024H240.301V176.883H63.9971ZM240.301 148.924V147.782H63.9971V166.612H240.301V165.471H65.1345V148.924H240.301ZM134.078 65.9024C112.257 49.0141 89.2116 33.7799 65.1345 20.3263V8.77185L63.9971 8.87741V20.5213L64.8729 21.4875C88.852 34.9045 111.803 50.0918 133.538 66.9238L133.691 67.0436H240.301V65.9024H134.078ZM52.6226 65.9024H7.69922V67.0436H53.7601V9.8303L52.6226 9.93585V65.9024ZM240.301 77.3142H146.578L147.804 78.3242C159.343 87.8502 170.673 97.9535 181.794 108.634C183.375 110.152 184.95 111.682 186.52 113.224C194.334 120.885 201.996 128.795 209.505 136.955L210.443 137.512H240.301V136.371H210.514C203.087 128.291 195.498 120.445 187.748 112.834C186.199 111.31 184.643 109.797 183.082 108.295C172.202 97.8213 161.09 87.8749 149.746 78.4554H240.301V77.3142ZM7.69922 176.883V178.024H52.6226V189.504L53.7601 189.398V176.883H7.69922ZM7.69922 77.3142V78.4554H52.6226V136.371H7.69922V137.512H53.7601V77.3142H7.69922ZM114.633 66.0108C98.7147 54.3793 81.9658 43.3497 64.8558 33.2303L63.9971 32.7225V67.0436H116.047L114.633 66.0108ZM65.1345 65.9024V34.7224C81.4114 44.3825 97.3498 54.8643 112.549 65.9024H65.1345ZM195.196 136.545C188.311 129.364 181.249 122.346 174.008 115.493C172.012 113.601 170.003 111.725 167.982 109.864C155.65 98.4975 142.911 87.6876 129.767 77.4341L129.613 77.3142H63.9971V137.512H196.123L195.196 136.545ZM65.1345 136.371V78.4554H129.224C141.898 88.3466 154.229 98.7913 166.216 109.789C168.298 111.698 170.365 113.622 172.418 115.561C179.596 122.328 186.605 129.265 193.447 136.371H65.1345ZM114.633 66.0108C98.7147 54.3793 81.9658 43.3497 64.8558 33.2303L63.9971 32.7225V67.0436H116.047L114.633 66.0108ZM65.1345 65.9024V34.7224C81.4114 44.3825 97.3498 54.8643 112.549 65.9024H65.1345ZM195.196 136.545C188.311 129.364 181.249 122.346 174.008 115.493C172.012 113.601 170.003 111.725 167.982 109.864C155.65 98.4975 142.911 87.6876 129.767 77.4341L129.613 77.3142H63.9971V137.512H196.123L195.196 136.545ZM65.1345 136.371V78.4554H129.224C141.898 88.3466 154.229 98.7913 166.216 109.789C168.298 111.698 170.365 113.622 172.418 115.561C179.596 122.328 186.605 129.265 193.447 136.371H65.1345Z" fill="#3F3D56"/>
<path d="M144.383 104.818C144.383 99.7932 148.443 87.8702 153.451 87.8702C158.459 87.8702 162.519 99.7932 162.519 104.818C162.519 107.231 161.563 109.545 159.863 111.251C158.162 112.957 155.856 113.915 153.451 113.915C151.046 113.915 148.739 112.957 147.039 111.251C145.338 109.545 144.383 107.231 144.383 104.818Z" fill="#F2F2F2"/>
<path d="M153.451 126.951C153.441 126.951 153.431 126.949 153.422 126.946C153.413 126.942 153.405 126.936 153.398 126.929C153.391 126.923 153.385 126.914 153.382 126.905C153.378 126.896 153.376 126.886 153.376 126.877V95.5106C153.376 95.4908 153.384 95.4717 153.398 95.4577C153.412 95.4437 153.431 95.4358 153.451 95.4358C153.471 95.4358 153.49 95.4437 153.504 95.4577C153.518 95.4717 153.526 95.4908 153.526 95.5106V126.877C153.526 126.886 153.524 126.896 153.52 126.905C153.516 126.914 153.511 126.923 153.504 126.929C153.497 126.936 153.489 126.942 153.48 126.946C153.47 126.949 153.461 126.951 153.451 126.951Z" fill="#3F3D56"/>
<path d="M153.45 101.566C153.44 101.566 153.431 101.564 153.422 101.56C153.413 101.557 153.404 101.551 153.398 101.544L149.808 97.9434C149.802 97.9364 149.796 97.9282 149.792 97.9191C149.789 97.91 149.787 97.9003 149.787 97.8905C149.787 97.8807 149.789 97.8709 149.792 97.8618C149.796 97.8528 149.802 97.8445 149.808 97.8376C149.815 97.8306 149.824 97.8251 149.833 97.8214C149.842 97.8176 149.851 97.8157 149.861 97.8157C149.871 97.8157 149.881 97.8176 149.89 97.8214C149.899 97.8251 149.907 97.8307 149.914 97.8376L153.503 101.438C153.513 101.449 153.521 101.462 153.523 101.477C153.526 101.491 153.525 101.506 153.519 101.52C153.514 101.534 153.504 101.545 153.492 101.554C153.479 101.562 153.465 101.566 153.45 101.566Z" fill="#3F3D56"/>
<path d="M153.451 107.8C153.436 107.8 153.421 107.795 153.409 107.787C153.397 107.779 153.387 107.767 153.382 107.754C153.376 107.74 153.375 107.725 153.377 107.71C153.38 107.696 153.387 107.683 153.398 107.672L159.408 101.642C159.415 101.635 159.423 101.629 159.433 101.626C159.442 101.622 159.451 101.62 159.461 101.62C159.471 101.62 159.481 101.622 159.49 101.626C159.499 101.629 159.507 101.635 159.514 101.642C159.521 101.649 159.526 101.657 159.53 101.666C159.534 101.675 159.536 101.685 159.536 101.695C159.536 101.705 159.534 101.714 159.53 101.723C159.526 101.732 159.521 101.741 159.514 101.748L153.503 107.778C153.496 107.785 153.488 107.79 153.479 107.794C153.47 107.798 153.46 107.8 153.451 107.8Z" fill="#3F3D56"/>
<path d="M195.227 79.141C195.227 74.1165 199.287 62.1935 204.295 62.1935C209.303 62.1935 213.363 74.1165 213.363 79.141C213.361 81.5529 212.405 83.8655 210.705 85.5704C209.005 87.2754 206.699 88.2331 204.295 88.2331C201.891 88.2331 199.585 87.2754 197.885 85.5704C196.185 83.8655 195.229 81.5529 195.227 79.141Z" fill="#6FCF97"/>
<path d="M204.295 101.275C204.285 101.275 204.276 101.273 204.266 101.269C204.257 101.265 204.249 101.26 204.242 101.253C204.235 101.246 204.23 101.238 204.226 101.229C204.222 101.219 204.22 101.21 204.22 101.2V69.834C204.22 69.8141 204.228 69.7951 204.242 69.7811C204.256 69.767 204.275 69.7592 204.295 69.7592C204.315 69.7592 204.334 69.767 204.348 69.7811C204.362 69.7951 204.37 69.8141 204.37 69.834V101.2C204.37 101.21 204.368 101.219 204.364 101.229C204.361 101.238 204.355 101.246 204.348 101.253C204.341 101.26 204.333 101.265 204.324 101.269C204.315 101.273 204.305 101.275 204.295 101.275Z" fill="#3F3D56"/>
<path d="M204.295 75.8894C204.285 75.8894 204.275 75.8875 204.266 75.8837C204.257 75.8799 204.249 75.8744 204.242 75.8675L200.653 72.2666C200.639 72.2526 200.631 72.2336 200.631 72.2137C200.631 72.1939 200.639 72.1748 200.653 72.1608C200.667 72.1468 200.686 72.1389 200.705 72.1389C200.725 72.1389 200.744 72.1468 200.758 72.1608L204.347 75.7617C204.358 75.7721 204.365 75.7855 204.368 75.8C204.371 75.8145 204.369 75.8295 204.363 75.8432C204.358 75.8569 204.348 75.8685 204.336 75.8768C204.324 75.885 204.309 75.8894 204.294 75.8894H204.295Z" fill="#3F3D56"/>
<path d="M204.295 82.1232C204.28 82.1232 204.266 82.1188 204.253 82.1106C204.241 82.1024 204.232 82.0907 204.226 82.077C204.22 82.0634 204.219 82.0483 204.222 82.0338C204.225 82.0193 204.232 82.006 204.242 81.9955L210.253 75.9652C210.267 75.9513 210.286 75.9435 210.305 75.9436C210.325 75.9437 210.344 75.9515 210.358 75.9655C210.372 75.9795 210.38 75.9984 210.38 76.0182C210.38 76.0379 210.372 76.0569 210.358 76.071L204.348 82.1013C204.341 82.1083 204.332 82.1138 204.323 82.1175C204.314 82.1213 204.305 82.1232 204.295 82.1232Z" fill="#3F3D56"/>
<path d="M83.897 81.7086C83.897 76.6841 87.9568 64.7611 92.9649 64.7611C97.973 64.7611 102.033 76.6841 102.033 81.7086C102.033 84.1215 101.077 86.4355 99.3769 88.1417C97.6763 89.8478 95.3698 90.8064 92.9649 90.8064C90.5599 90.8064 88.2535 89.8478 86.5529 88.1417C84.8523 86.4355 83.897 84.1215 83.897 81.7086Z" fill="#6FCF97"/>
<path d="M92.965 103.842C92.9552 103.842 92.9454 103.841 92.9363 103.837C92.9273 103.833 92.919 103.827 92.9121 103.821C92.9051 103.814 92.8996 103.805 92.8958 103.796C92.8921 103.787 92.8901 103.777 92.8901 103.768V72.4017C92.8901 72.3819 92.898 72.3628 92.9121 72.3488C92.9261 72.3348 92.9451 72.3269 92.965 72.3269C92.9849 72.3269 93.0039 72.3348 93.0179 72.3488C93.032 72.3628 93.0399 72.3819 93.0399 72.4017V103.768C93.0399 103.777 93.0379 103.787 93.0342 103.796C93.0304 103.805 93.0249 103.814 93.0179 103.821C93.011 103.827 93.0027 103.833 92.9937 103.837C92.9846 103.841 92.9748 103.842 92.965 103.842Z" fill="#3F3D56"/>
<path d="M92.9649 78.4571C92.9551 78.4571 92.9454 78.4552 92.9363 78.4514C92.9273 78.4477 92.9191 78.4422 92.9122 78.4352L89.3231 74.8344C89.3162 74.8274 89.3107 74.8192 89.3069 74.8101C89.3032 74.801 89.3013 74.7913 89.3013 74.7815C89.3013 74.7716 89.3032 74.7619 89.3069 74.7528C89.3107 74.7438 89.3162 74.7355 89.3231 74.7286C89.33 74.7216 89.3383 74.7161 89.3473 74.7124C89.3563 74.7086 89.366 74.7067 89.3758 74.7067C89.3856 74.7067 89.3953 74.7086 89.4044 74.7124C89.4134 74.7161 89.4216 74.7216 89.4286 74.7286L93.0176 78.3294C93.0281 78.3399 93.0352 78.3532 93.038 78.3677C93.0409 78.3822 93.0394 78.3973 93.0338 78.4109C93.0281 78.4246 93.0186 78.4363 93.0063 78.4445C92.9941 78.4527 92.9796 78.4571 92.9649 78.4571Z" fill="#3F3D56"/>
<path d="M92.9647 84.6909C92.95 84.6909 92.9355 84.6865 92.9233 84.6783C92.911 84.6701 92.9015 84.6584 92.8958 84.6448C92.8902 84.6311 92.8887 84.6161 92.8916 84.6015C92.8944 84.587 92.9015 84.5737 92.912 84.5632L98.9225 78.5329C98.9365 78.5189 98.9555 78.5111 98.9752 78.5111C98.995 78.5111 99.0139 78.519 99.0279 78.533C99.0418 78.547 99.0497 78.566 99.0497 78.5858C99.0497 78.6056 99.0419 78.6247 99.028 78.6387L93.0174 84.669C93.0105 84.676 93.0023 84.6815 92.9932 84.6853C92.9842 84.689 92.9745 84.6909 92.9647 84.6909Z" fill="#3F3D56"/>
<path d="M167.558 56.6429C162.408 56.6429 157.373 55.1106 153.091 52.2399C148.809 49.3691 145.471 45.2888 143.5 40.5149C141.529 35.741 141.014 30.488 142.018 25.42C143.023 20.3521 145.503 15.6969 149.145 12.0431C152.787 8.38934 157.427 5.90108 162.478 4.89301C167.53 3.88493 172.765 4.40231 177.524 6.37972C182.282 8.35713 186.349 11.7058 189.21 16.0021C192.071 20.2985 193.599 25.3497 193.599 30.5169C193.591 37.4436 190.845 44.0842 185.963 48.9821C181.081 53.88 174.462 56.635 167.558 56.6429ZM167.558 4.74169C162.477 4.74169 157.51 6.25338 153.285 9.0856C149.061 11.9178 145.768 15.9434 143.823 20.6532C141.879 25.363 141.37 30.5455 142.361 35.5454C143.353 40.5453 145.799 45.1381 149.392 48.7428C152.985 52.3475 157.563 54.8024 162.546 55.7969C167.53 56.7915 172.695 56.281 177.39 54.3302C182.084 52.3793 186.097 49.0756 188.92 44.8369C191.742 40.5982 193.249 35.6148 193.249 30.5169C193.241 23.6833 190.532 17.1317 185.716 12.2996C180.9 7.4675 174.37 4.74942 167.558 4.7417V4.74169Z" fill="#CCCCCC"/>
<path d="M167.559 28.5882C167.512 28.5882 167.468 28.5697 167.435 28.5368C167.402 28.5039 167.384 28.4593 167.384 28.4128V4.56633C167.384 4.51983 167.402 4.47523 167.435 4.44235C167.468 4.40946 167.512 4.39099 167.559 4.39099C167.605 4.39099 167.649 4.40946 167.682 4.44235C167.715 4.47523 167.733 4.51983 167.733 4.56633V28.4128C167.733 28.4593 167.715 28.5039 167.682 28.5368C167.649 28.5697 167.605 28.5882 167.559 28.5882Z" fill="#CCCCCC"/>
<path d="M193.424 30.6922H169.656C169.609 30.6922 169.565 30.6738 169.532 30.6409C169.499 30.608 169.481 30.5634 169.481 30.5169C169.481 30.4704 169.499 30.4258 169.532 30.3929C169.565 30.36 169.609 30.3416 169.656 30.3416H193.424C193.47 30.3416 193.515 30.36 193.548 30.3929C193.58 30.4258 193.599 30.4704 193.599 30.5169C193.599 30.5634 193.58 30.608 193.548 30.6409C193.515 30.6738 193.47 30.6922 193.424 30.6922Z" fill="#CCCCCC"/>
<path d="M165.462 30.6922H141.705C141.658 30.6922 141.614 30.6738 141.581 30.6409C141.548 30.608 141.53 30.5634 141.53 30.5169C141.53 30.4704 141.548 30.4258 141.581 30.3929C141.614 30.36 141.658 30.3416 141.705 30.3416H165.462C165.508 30.3416 165.552 30.36 165.585 30.3929C165.618 30.4258 165.636 30.4704 165.636 30.5169C165.636 30.5634 165.618 30.608 165.585 30.6409C165.552 30.6738 165.508 30.6922 165.462 30.6922Z" fill="#CCCCCC"/>
<path d="M167.559 56.6429C167.512 56.6429 167.468 56.6244 167.435 56.5915C167.402 56.5586 167.384 56.514 167.384 56.4675V32.621C167.384 32.5745 167.402 32.5299 167.435 32.497C167.468 32.4642 167.512 32.4457 167.559 32.4457C167.605 32.4457 167.649 32.4642 167.682 32.497C167.715 32.5299 167.733 32.5745 167.733 32.621V56.4675C167.733 56.514 167.715 56.5586 167.682 56.5915C167.649 56.6244 167.605 56.6429 167.559 56.6429Z" fill="#CCCCCC"/>
<path d="M169.1 29.2675C169.065 29.2674 169.031 29.2572 169.002 29.2379C168.974 29.2186 168.951 29.1912 168.938 29.1592C168.925 29.1272 168.921 29.0919 168.928 29.0579C168.935 29.0239 168.952 28.9927 168.976 28.9681L185.709 12.1803C185.742 12.1476 185.786 12.1293 185.832 12.1294C185.878 12.1295 185.923 12.1479 185.955 12.1807C185.988 12.2135 186.007 12.258 186.007 12.3044C186.007 12.3508 185.989 12.3953 185.956 12.4282L169.223 29.2161C169.207 29.2324 169.188 29.2453 169.166 29.2541C169.145 29.263 169.122 29.2675 169.1 29.2675Z" fill="#CCCCCC"/>
<path d="M166.018 29.2675C165.995 29.2675 165.972 29.263 165.951 29.2541C165.929 29.2453 165.91 29.2324 165.894 29.2161L149.161 12.4282C149.128 12.3953 149.11 12.3508 149.11 12.3044C149.11 12.258 149.129 12.2135 149.162 12.1807C149.194 12.1479 149.239 12.1295 149.285 12.1294C149.331 12.1293 149.375 12.1476 149.408 12.1803L166.141 28.9681C166.166 28.9927 166.182 29.0239 166.189 29.0579C166.196 29.0919 166.192 29.1272 166.179 29.1592C166.166 29.1912 166.143 29.2186 166.115 29.2379C166.086 29.2572 166.052 29.2674 166.018 29.2675Z" fill="#CCCCCC"/>
<path d="M185.832 48.9049C185.809 48.9049 185.787 48.9004 185.765 48.8916C185.744 48.8828 185.725 48.8699 185.709 48.8535L168.976 32.0657C168.943 32.0327 168.925 31.9882 168.925 31.9418C168.925 31.8955 168.944 31.851 168.976 31.8182C169.009 31.7854 169.053 31.7669 169.1 31.7668C169.146 31.7668 169.19 31.7851 169.223 31.8177L185.956 48.6056C185.98 48.6301 185.997 48.6614 186.004 48.6954C186.011 48.7294 186.007 48.7646 185.994 48.7967C185.981 48.8287 185.958 48.8561 185.929 48.8753C185.901 48.8946 185.867 48.9049 185.832 48.9049V48.9049Z" fill="#CCCCCC"/>
<path d="M149.285 48.905C149.25 48.905 149.216 48.8947 149.188 48.8754C149.159 48.8562 149.136 48.8288 149.123 48.7968C149.11 48.7647 149.106 48.7295 149.113 48.6955C149.12 48.6615 149.137 48.6302 149.161 48.6057L165.894 31.8178C165.927 31.785 165.971 31.7665 166.017 31.7665C166.064 31.7665 166.108 31.785 166.141 31.8178C166.174 31.8507 166.192 31.8953 166.192 31.9418C166.192 31.9883 166.174 32.0329 166.141 32.0658L149.408 48.8536C149.392 48.87 149.373 48.8829 149.352 48.8917C149.33 48.9005 149.308 48.905 149.285 48.905Z" fill="#CCCCCC"/>
<path d="M167.558 48.4895C164.015 48.4895 160.552 47.4354 157.606 45.4606C154.66 43.4857 152.364 40.6788 151.008 37.3948C149.652 34.1107 149.298 30.497 149.989 27.0107C150.68 23.5244 152.386 20.322 154.891 17.8085C157.397 15.295 160.588 13.5833 164.063 12.8898C167.538 12.1963 171.14 12.5522 174.413 13.9125C177.687 15.2728 180.484 17.5764 182.453 20.532C184.421 23.4875 185.472 26.9623 185.472 30.517C185.466 35.2819 183.577 39.8502 180.219 43.2195C176.861 46.5889 172.307 48.4841 167.558 48.4895ZM167.558 12.8951C164.084 12.8951 160.688 13.9286 157.8 15.865C154.912 17.8013 152.66 20.5534 151.331 23.7734C150.002 26.9934 149.654 30.5365 150.332 33.9548C151.009 37.3731 152.682 40.5131 155.138 42.9775C157.595 45.442 160.724 47.1203 164.132 47.8003C167.539 48.4802 171.07 48.1312 174.28 46.7975C177.489 45.4637 180.232 43.2051 182.162 40.3072C184.092 37.4093 185.122 34.0023 185.122 30.517C185.117 25.845 183.265 21.3659 179.972 18.0623C176.679 14.7587 172.215 12.9004 167.558 12.8951Z" fill="#CCCCCC"/>
<path d="M167.559 32.621C168.717 32.621 169.656 31.679 169.656 30.5169C169.656 29.3549 168.717 28.4128 167.559 28.4128C166.4 28.4128 165.461 29.3549 165.461 30.5169C165.461 31.679 166.4 32.621 167.559 32.621Z" fill="#3F3D56"/>
<path d="M159.439 66.0579L157.597 66.1114L166.59 29.6937L168.261 30.2054L159.439 66.0579Z" fill="#3F3D56"/>
<path d="M175.678 66.0579L177.52 66.1114L168.527 29.6937L166.856 30.2054L175.678 66.0579Z" fill="#3F3D56"/>
<path d="M170.355 9.82666H164.587V12.9828H170.355V9.82666Z" fill="#CCCCCC"/>
<path d="M167.209 10.528H164.937V12.9827H167.209V10.528Z" fill="white"/>
<path d="M170.005 10.528H167.733V12.9827H170.005V10.528Z" fill="white"/>
<path d="M167.471 16.4019C166.591 16.4009 165.747 16.0496 165.124 15.4251C164.502 14.8005 164.151 13.9537 164.15 13.0704V12.9828C164.151 12.7736 164.234 12.573 164.381 12.4251C164.528 12.2772 164.728 12.194 164.937 12.1937H170.005C170.214 12.194 170.414 12.2772 170.561 12.4251C170.708 12.573 170.791 12.7736 170.792 12.9828V13.0704C170.791 13.9537 170.44 14.8005 169.818 15.4251C169.195 16.0496 168.351 16.4009 167.471 16.4019Z" fill="#CCCCCC"/>
<path d="M170.139 10.6157H164.804C164.729 10.6157 164.656 10.5966 164.591 10.5602C164.526 10.5238 164.471 10.4714 164.432 10.4078C164.393 10.3442 164.37 10.2717 164.367 10.197C164.364 10.1224 164.38 10.0481 164.413 9.98128L165.461 7.87718C165.498 7.80419 165.553 7.74281 165.622 7.69998C165.691 7.65715 165.771 7.6346 165.852 7.63489H169.09C169.172 7.6346 169.251 7.65716 169.32 7.69998C169.389 7.74281 169.445 7.80419 169.481 7.87718L170.53 9.98128C170.563 10.0481 170.579 10.1224 170.575 10.197C170.572 10.2717 170.55 10.3442 170.511 10.4078C170.471 10.4714 170.417 10.5238 170.352 10.5602C170.287 10.5966 170.213 10.6157 170.139 10.6157H170.139Z" fill="#F2C94C"/>
<path d="M185.909 16.8403H180.142V19.9965H185.909V16.8403Z" fill="#CCCCCC"/>
<path d="M182.763 17.5416H180.491V19.9964H182.763V17.5416Z" fill="white"/>
<path d="M185.56 17.5416H183.288V19.9964H185.56V17.5416Z" fill="white"/>
<path d="M183.026 23.4156C182.145 23.4146 181.301 23.0633 180.679 22.4387C180.056 21.8142 179.706 20.9674 179.705 20.0841V19.9964C179.705 19.7872 179.788 19.5867 179.936 19.4388C180.083 19.2908 180.283 19.2076 180.492 19.2074H185.56C185.768 19.2076 185.968 19.2908 186.116 19.4388C186.263 19.5867 186.346 19.7872 186.346 19.9964V20.0841C186.345 20.9674 185.995 21.8142 185.373 22.4387C184.75 23.0633 183.906 23.4146 183.026 23.4156Z" fill="#CCCCCC"/>
<path d="M181.406 14.8239C181.358 14.8237 181.31 14.8372 181.269 14.8629C181.227 14.8886 181.194 14.9254 181.172 14.9692L180.123 17.0733C180.103 17.1134 180.094 17.158 180.096 17.2028C180.098 17.2476 180.111 17.2911 180.135 17.3292C180.158 17.3674 180.191 17.3989 180.23 17.4207C180.269 17.4425 180.313 17.454 180.358 17.454H185.693C185.738 17.454 185.782 17.4425 185.821 17.4207C185.86 17.3989 185.893 17.3674 185.916 17.3292C185.94 17.2911 185.953 17.2476 185.955 17.2028C185.957 17.158 185.948 17.1134 185.928 17.0733L184.879 14.9692C184.857 14.9254 184.824 14.8886 184.782 14.8629C184.741 14.8372 184.693 14.8237 184.645 14.8239H181.406Z" fill="#F2C94C"/>
<path d="M192.026 32.6211H186.259V35.7772H192.026V32.6211Z" fill="#CCCCCC"/>
<path d="M188.88 33.3224H186.608V35.7772H188.88V33.3224Z" fill="white"/>
<path d="M191.677 33.3224H189.405V35.7772H191.677V33.3224Z" fill="white"/>
<path d="M189.142 39.1964C188.262 39.1954 187.418 38.844 186.795 38.2195C186.173 37.5949 185.823 36.7481 185.822 35.8649V35.7772C185.822 35.568 185.905 35.3674 186.052 35.2195C186.2 35.0716 186.4 34.9884 186.608 34.9882H191.676C191.885 34.9884 192.085 35.0716 192.232 35.2195C192.38 35.3674 192.463 35.568 192.463 35.7772V35.8649C192.462 36.7481 192.112 37.5949 191.489 38.2195C190.867 38.844 190.023 39.1954 189.142 39.1964Z" fill="#CCCCCC"/>
<path d="M191.81 33.41H186.475C186.4 33.41 186.327 33.3909 186.262 33.3545C186.197 33.3182 186.142 33.2657 186.103 33.2021C186.064 33.1386 186.041 33.066 186.038 32.9914C186.035 32.9167 186.05 32.8424 186.084 32.7756L187.132 30.6715C187.168 30.5985 187.224 30.5371 187.293 30.4943C187.362 30.4515 187.442 30.4289 187.523 30.4292H190.761C190.842 30.4289 190.922 30.4515 190.991 30.4943C191.06 30.5371 191.116 30.5985 191.152 30.6715L192.201 32.7756C192.234 32.8424 192.25 32.9167 192.246 32.9914C192.243 33.066 192.221 33.1386 192.181 33.2021C192.142 33.2657 192.088 33.3182 192.023 33.3545C191.958 33.3909 191.884 33.41 191.81 33.41H191.81Z" fill="#F2C94C"/>
<path d="M185.559 47.3497H179.792V50.5059H185.559V47.3497Z" fill="#CCCCCC"/>
<path d="M182.414 48.051H180.142V50.5058H182.414V48.051Z" fill="white"/>
<path d="M185.21 48.051H182.938V50.5058H185.21V48.051Z" fill="white"/>
<path d="M182.676 53.925C181.796 53.924 180.952 53.5727 180.329 52.9481C179.707 52.3236 179.356 51.4768 179.355 50.5935V50.5058C179.356 50.2966 179.439 50.0961 179.586 49.9482C179.734 49.8002 179.933 49.717 180.142 49.7168H185.21C185.419 49.717 185.619 49.8002 185.766 49.9482C185.913 50.0961 185.996 50.2966 185.997 50.5058V50.5935C185.996 51.4768 185.645 52.3236 185.023 52.9481C184.4 53.5727 183.556 53.924 182.676 53.925Z" fill="#CCCCCC"/>
<path d="M185.343 48.1388H180.008C179.934 48.1388 179.861 48.1197 179.795 48.0833C179.73 48.0469 179.676 47.9944 179.637 47.9309C179.597 47.8673 179.575 47.7947 179.572 47.7201C179.568 47.6454 179.584 47.5712 179.617 47.5043L180.666 45.4003C180.702 45.3273 180.758 45.2659 180.827 45.223C180.896 45.1802 180.976 45.1577 181.057 45.158H184.295C184.376 45.1577 184.456 45.1802 184.525 45.223C184.594 45.2659 184.65 45.3273 184.686 45.4003L185.734 47.5043C185.768 47.5712 185.783 47.6454 185.78 47.7201C185.777 47.7947 185.754 47.8673 185.715 47.9309C185.676 47.9944 185.621 48.0469 185.556 48.0833C185.491 48.1197 185.418 48.1388 185.343 48.1388H185.343Z" fill="#F2C94C"/>
<path d="M149.208 19.9965H154.975V16.8403H149.208V19.9965Z" fill="#CCCCCC"/>
<path d="M152.354 19.9965H154.625V17.5417H152.354V19.9965Z" fill="white"/>
<path d="M149.558 19.9965H151.83V17.5417H149.558V19.9965Z" fill="white"/>
<path d="M152.092 23.4156C151.211 23.4146 150.367 23.0633 149.745 22.4387C149.122 21.8142 148.772 20.9674 148.771 20.0841V19.9964C148.771 19.7872 148.854 19.5867 149.002 19.4388C149.149 19.2908 149.349 19.2076 149.557 19.2074H154.626C154.834 19.2076 155.034 19.2908 155.182 19.4388C155.329 19.5867 155.412 19.7872 155.412 19.9964V20.0841C155.411 20.9674 155.061 21.8142 154.438 22.4387C153.816 23.0633 152.972 23.4146 152.092 23.4156Z" fill="#CCCCCC"/>
<path d="M154.76 17.6294H149.424C149.35 17.6294 149.277 17.6103 149.211 17.5739C149.146 17.5375 149.092 17.485 149.053 17.4215C149.013 17.3579 148.991 17.2854 148.988 17.2107C148.984 17.1361 149 17.0618 149.033 16.995L150.082 14.8909C150.118 14.8179 150.174 14.7565 150.243 14.7137C150.312 14.6708 150.392 14.6483 150.473 14.6486H153.711C153.792 14.6483 153.872 14.6708 153.941 14.7136C154.01 14.7565 154.066 14.8179 154.102 14.8909L155.15 16.995C155.184 17.0618 155.199 17.1361 155.196 17.2107C155.193 17.2854 155.17 17.3579 155.131 17.4215C155.092 17.485 155.037 17.5375 154.972 17.5739C154.907 17.6103 154.834 17.6294 154.76 17.6294H154.76Z" fill="#F2C94C"/>
<path d="M143.091 35.7772H148.858V32.6211H143.091V35.7772Z" fill="#CCCCCC"/>
<path d="M146.237 35.7772H148.509V33.3224H146.237V35.7772Z" fill="white"/>
<path d="M143.44 35.7772H145.712V33.3224H143.44V35.7772Z" fill="white"/>
<path d="M145.975 39.1964C145.095 39.1954 144.25 38.844 143.628 38.2195C143.005 37.5949 142.655 36.7481 142.654 35.8649V35.7772C142.655 35.568 142.737 35.3674 142.885 35.2195C143.032 35.0716 143.232 34.9884 143.441 34.9882H148.509C148.718 34.9884 148.917 35.0716 149.065 35.2195C149.212 35.3674 149.295 35.568 149.295 35.7772V35.8649C149.294 36.7481 148.944 37.5949 148.322 38.2195C147.699 38.844 146.855 39.1954 145.975 39.1964Z" fill="#CCCCCC"/>
<path d="M148.642 33.41H143.307C143.233 33.41 143.159 33.3909 143.094 33.3545C143.029 33.3182 142.975 33.2657 142.935 33.2021C142.896 33.1386 142.874 33.066 142.871 32.9914C142.867 32.9167 142.883 32.8424 142.916 32.7756L143.965 30.6715C144.001 30.5985 144.057 30.5371 144.126 30.4943C144.195 30.4515 144.274 30.4289 144.356 30.4292H147.594C147.675 30.4289 147.755 30.4515 147.824 30.4943C147.893 30.5371 147.948 30.5985 147.985 30.6715L149.033 32.7756C149.066 32.8424 149.082 32.9167 149.079 32.9914C149.075 33.066 149.053 33.1386 149.014 33.2021C148.975 33.2657 148.92 33.3182 148.855 33.3545C148.79 33.3909 148.717 33.41 148.642 33.41H148.642Z" fill="#F2C94C"/>
<path d="M149.557 50.506H155.325V47.3498H149.557V50.506Z" fill="#CCCCCC"/>
<path d="M152.703 50.5059H154.975V48.0511H152.703V50.5059Z" fill="white"/>
<path d="M149.907 50.5059H152.179V48.0511H149.907V50.5059Z" fill="white"/>
<path d="M152.441 53.925C151.561 53.924 150.717 53.5727 150.094 52.9481C149.472 52.3236 149.122 51.4768 149.121 50.5935V50.5058C149.121 50.2966 149.204 50.0961 149.351 49.9482C149.499 49.8002 149.699 49.717 149.907 49.7168H154.975C155.184 49.717 155.384 49.8002 155.531 49.9482C155.679 50.0961 155.762 50.2966 155.762 50.5058V50.5935C155.761 51.4768 155.411 52.3236 154.788 52.9481C154.166 53.5727 153.322 53.924 152.441 53.925Z" fill="#CCCCCC"/>
<path d="M155.109 48.1388H149.773C149.699 48.1388 149.626 48.1197 149.561 48.0833C149.496 48.0469 149.441 47.9944 149.402 47.9309C149.363 47.8673 149.34 47.7947 149.337 47.7201C149.334 47.6454 149.349 47.5712 149.383 47.5043L150.431 45.4003C150.467 45.3273 150.523 45.2659 150.592 45.223C150.661 45.1802 150.741 45.1577 150.822 45.158H154.06C154.141 45.1577 154.221 45.1802 154.29 45.223C154.359 45.2659 154.415 45.3273 154.451 45.4003L155.499 47.5043C155.533 47.5712 155.548 47.6454 155.545 47.7201C155.542 47.7947 155.519 47.8673 155.48 47.9309C155.441 47.9944 155.386 48.0469 155.321 48.0833C155.256 48.1197 155.183 48.1388 155.109 48.1388H155.109Z" fill="#F2C94C"/>
<path d="M170.355 54.0127H164.587V57.1688H170.355V54.0127Z" fill="#CCCCCC"/>
<path d="M167.209 54.7141H164.937V57.1689H167.209V54.7141Z" fill="white"/>
<path d="M170.005 54.7141H167.733V57.1689H170.005V54.7141Z" fill="white"/>
<path d="M164.937 56.5553C164.775 56.5555 164.619 56.6202 164.505 56.7353C164.39 56.8503 164.325 57.0063 164.325 57.169V57.2567C164.325 57.6714 164.406 58.0822 164.564 58.4655C164.722 58.8488 164.953 59.1971 165.245 59.4905C165.538 59.7839 165.885 60.0167 166.266 60.1755C166.648 60.3344 167.058 60.4161 167.471 60.4161C167.884 60.4161 168.294 60.3344 168.676 60.1755C169.058 60.0167 169.404 59.7839 169.697 59.4905C169.989 59.1971 170.22 58.8488 170.378 58.4655C170.536 58.0822 170.617 57.6714 170.617 57.2567V57.169C170.617 57.0063 170.552 56.8503 170.437 56.7353C170.323 56.6202 170.167 56.5555 170.005 56.5553H164.937Z" fill="#CCCCCC"/>
<path d="M165.852 51.9963C165.804 51.9962 165.756 52.0097 165.714 52.0354C165.673 52.0611 165.639 52.0979 165.618 52.1417L164.569 54.2458C164.549 54.2859 164.54 54.3305 164.542 54.3753C164.544 54.4201 164.557 54.4636 164.581 54.5017C164.604 54.5399 164.637 54.5713 164.676 54.5932C164.715 54.615 164.759 54.6265 164.804 54.6265H170.139C170.184 54.6265 170.228 54.615 170.267 54.5932C170.306 54.5713 170.338 54.5399 170.362 54.5017C170.385 54.4636 170.399 54.4201 170.401 54.3753C170.403 54.3305 170.393 54.2859 170.373 54.2458L169.325 52.1417C169.303 52.0979 169.27 52.0611 169.228 52.0354C169.187 52.0097 169.139 51.9962 169.09 51.9963H165.852Z" fill="#F2C94C"/>
<path d="M90.5297 97.7706C90.582 97.7706 90.6322 97.7498 90.6692 97.7127C90.7062 97.6756 90.7269 97.6253 90.7269 97.5728C90.7269 97.5203 90.7062 97.47 90.6692 97.4329C90.6322 97.3958 90.582 97.375 90.5297 97.375H88.6563V96.5836H90.5297C90.582 96.5836 90.6322 96.5627 90.6692 96.5256C90.7062 96.4885 90.7269 96.4382 90.7269 96.3857C90.7269 96.3332 90.7062 96.2829 90.6692 96.2458C90.6322 96.2087 90.582 96.1879 90.5297 96.1879H74.5566C74.5043 96.1879 74.4541 96.2087 74.4171 96.2458C74.3801 96.2829 74.3594 96.3332 74.3594 96.3857C74.3594 96.4382 74.3801 96.4885 74.4171 96.5256C74.4541 96.5627 74.5043 96.5836 74.5566 96.5836H76.43V97.375H74.5566C74.5043 97.375 74.4541 97.3958 74.4171 97.4329C74.3801 97.47 74.3594 97.5203 74.3594 97.5728C74.3594 97.6253 74.3801 97.6756 74.4171 97.7127C74.4541 97.7498 74.5043 97.7706 74.5566 97.7706H76.43V98.562H74.5566C74.5043 98.562 74.4541 98.5829 74.4171 98.62C74.3801 98.6571 74.3594 98.7074 74.3594 98.7599C74.3594 98.8124 74.3801 98.8627 74.4171 98.8998C74.4541 98.9369 74.5043 98.9577 74.5566 98.9577H76.43V99.7491H74.7538C74.6492 99.7491 74.5489 99.7908 74.4749 99.865C74.4009 99.9392 74.3594 100.04 74.3594 100.145C74.3594 100.25 74.4009 100.35 74.4749 100.425C74.5489 100.499 74.6492 100.541 74.7538 100.541H76.3495C76.3378 100.572 76.3317 100.606 76.3314 100.639V103.409C76.3314 103.488 76.3625 103.564 76.418 103.619C76.4735 103.675 76.5487 103.706 76.6272 103.706C76.7056 103.706 76.7809 103.675 76.8363 103.619C76.8918 103.564 76.923 103.488 76.923 103.409V100.639C76.9226 100.606 76.9165 100.572 76.9049 100.541H88.1814C88.1698 100.572 88.1637 100.606 88.1633 100.639V103.409C88.1633 103.488 88.1945 103.564 88.25 103.619C88.3055 103.675 88.3807 103.706 88.4591 103.706C88.5376 103.706 88.6128 103.675 88.6683 103.619C88.7238 103.564 88.7549 103.488 88.7549 103.409V100.639C88.7546 100.606 88.7485 100.572 88.7368 100.541H90.3325C90.4371 100.541 90.5375 100.499 90.6114 100.425C90.6854 100.35 90.7269 100.25 90.7269 100.145C90.7269 100.04 90.6854 99.9392 90.6114 99.865C90.5375 99.7908 90.4371 99.7491 90.3325 99.7491H88.6563V98.9577H90.5297C90.582 98.9577 90.6322 98.9369 90.6692 98.8998C90.7062 98.8627 90.7269 98.8124 90.7269 98.7599C90.7269 98.7074 90.7062 98.6571 90.6692 98.62C90.6322 98.5829 90.582 98.562 90.5297 98.562H88.6563V97.7706H90.5297ZM76.8244 96.5836H88.262V97.375H76.8244V96.5836ZM88.262 99.7491H76.8244V98.9577H88.262V99.7491ZM88.262 98.562H76.8244V97.7706H88.262V98.562Z" fill="#3F3D56"/>
<path d="M152.153 121.45C152.205 121.45 152.255 121.429 152.292 121.392C152.329 121.355 152.35 121.305 152.35 121.252C152.35 121.2 152.329 121.15 152.292 121.113C152.255 121.075 152.205 121.055 152.153 121.055H150.279V120.263H152.153C152.205 120.263 152.255 120.242 152.292 120.205C152.329 120.168 152.35 120.118 152.35 120.065C152.35 120.013 152.329 119.963 152.292 119.925C152.255 119.888 152.205 119.868 152.153 119.868H136.18C136.127 119.868 136.077 119.888 136.04 119.925C136.003 119.963 135.982 120.013 135.982 120.065C135.982 120.118 136.003 120.168 136.04 120.205C136.077 120.242 136.127 120.263 136.18 120.263H138.053V121.055H136.18C136.127 121.055 136.077 121.075 136.04 121.113C136.003 121.15 135.982 121.2 135.982 121.252C135.982 121.305 136.003 121.355 136.04 121.392C136.077 121.429 136.127 121.45 136.18 121.45H138.053V122.242H136.18C136.127 122.242 136.077 122.263 136.04 122.3C136.003 122.337 135.982 122.387 135.982 122.44C135.982 122.492 136.003 122.542 136.04 122.579C136.077 122.617 136.127 122.637 136.18 122.637H138.053V123.429H136.377C136.272 123.429 136.172 123.47 136.098 123.545C136.024 123.619 135.982 123.72 135.982 123.825C135.982 123.929 136.024 124.03 136.098 124.104C136.172 124.179 136.272 124.22 136.377 124.22H137.973C137.961 124.252 137.955 124.285 137.954 124.319V127.089C137.954 127.128 137.962 127.167 137.977 127.203C137.991 127.239 138.013 127.272 138.041 127.299C138.068 127.327 138.101 127.349 138.137 127.364C138.173 127.379 138.211 127.387 138.25 127.387C138.289 127.387 138.328 127.379 138.364 127.364C138.4 127.349 138.432 127.327 138.46 127.299C138.487 127.272 138.509 127.239 138.524 127.203C138.539 127.167 138.546 127.128 138.546 127.089V124.319C138.546 124.285 138.54 124.252 138.528 124.22H149.804C149.793 124.252 149.787 124.285 149.786 124.319V127.089C149.786 127.168 149.818 127.243 149.873 127.299C149.928 127.354 150.004 127.386 150.082 127.386C150.161 127.386 150.236 127.354 150.291 127.299C150.347 127.243 150.378 127.168 150.378 127.089V124.319C150.378 124.285 150.372 124.252 150.36 124.22H151.956C152.06 124.22 152.16 124.179 152.234 124.104C152.308 124.03 152.35 123.929 152.35 123.825C152.35 123.72 152.308 123.619 152.234 123.545C152.16 123.47 152.06 123.429 151.956 123.429H150.279V122.637H152.153C152.205 122.637 152.255 122.617 152.292 122.579C152.329 122.542 152.35 122.492 152.35 122.44C152.35 122.387 152.329 122.337 152.292 122.3C152.255 122.263 152.205 122.242 152.153 122.242H150.279V121.45L152.153 121.45ZM138.447 120.263H149.885V121.055H138.447V120.263ZM149.885 123.429H138.447V122.637H149.885V123.429ZM149.885 122.242H138.447V121.45H149.885V122.242Z" fill="#3F3D56"/>
<path d="M201.859 95.4883C201.912 95.4883 201.962 95.4675 201.999 95.4304C202.036 95.3932 202.057 95.3429 202.057 95.2905C202.057 95.238 202.036 95.1877 201.999 95.1506C201.962 95.1134 201.912 95.0926 201.859 95.0926H199.986V94.3012H201.859C201.912 94.3012 201.962 94.2804 201.999 94.2433C202.036 94.2062 202.057 94.1558 202.057 94.1034C202.057 94.0509 202.036 94.0006 201.999 93.9635C201.962 93.9264 201.912 93.9055 201.859 93.9055H185.886C185.834 93.9055 185.784 93.9264 185.747 93.9635C185.71 94.0006 185.689 94.0509 185.689 94.1034C185.689 94.1558 185.71 94.2062 185.747 94.2433C185.784 94.2804 185.834 94.3012 185.886 94.3012H187.76V95.0926H185.886C185.834 95.0926 185.784 95.1134 185.747 95.1506C185.71 95.1877 185.689 95.238 185.689 95.2905C185.689 95.3429 185.71 95.3932 185.747 95.4304C185.784 95.4675 185.834 95.4883 185.886 95.4883H187.76V96.2797H185.886C185.834 96.2797 185.784 96.3005 185.747 96.3376C185.71 96.3747 185.689 96.4251 185.689 96.4775C185.689 96.53 185.71 96.5803 185.747 96.6174C185.784 96.6545 185.834 96.6754 185.886 96.6754H187.76V97.4668H186.083C185.979 97.4671 185.879 97.5089 185.805 97.5831C185.732 97.6573 185.69 97.7577 185.69 97.8625C185.69 97.9672 185.732 98.0677 185.805 98.1419C185.879 98.216 185.979 98.2579 186.083 98.2582H187.679C187.667 98.2899 187.661 98.3233 187.661 98.3571V101.127C187.661 101.206 187.692 101.281 187.748 101.337C187.803 101.392 187.878 101.424 187.957 101.424C188.035 101.424 188.11 101.392 188.166 101.337C188.221 101.281 188.253 101.206 188.253 101.127V98.3571C188.252 98.3233 188.246 98.2899 188.234 98.2582H199.511C199.499 98.2899 199.493 98.3233 199.493 98.3571V101.127C199.493 101.206 199.524 101.281 199.58 101.337C199.635 101.392 199.71 101.424 199.789 101.424C199.867 101.424 199.942 101.392 199.998 101.337C200.053 101.281 200.085 101.206 200.085 101.127V98.3571C200.084 98.3233 200.078 98.2899 200.066 98.2582H201.662C201.714 98.2583 201.765 98.2482 201.813 98.2284C201.861 98.2086 201.905 98.1794 201.942 98.1427C201.979 98.1059 202.008 98.0623 202.028 98.0142C202.047 97.9661 202.058 97.9145 202.058 97.8625C202.058 97.8104 202.047 97.7589 202.028 97.7108C202.008 97.6627 201.979 97.619 201.942 97.5823C201.905 97.5455 201.861 97.5164 201.813 97.4966C201.765 97.4767 201.714 97.4666 201.662 97.4668H199.986V96.6754H201.859C201.912 96.6754 201.962 96.6545 201.999 96.6174C202.036 96.5803 202.057 96.53 202.057 96.4775C202.057 96.4251 202.036 96.3747 201.999 96.3376C201.962 96.3005 201.912 96.2797 201.859 96.2797H199.986V95.4883H201.859ZM188.154 94.3012H199.592V95.0926H188.154V94.3012ZM199.592 97.4668H188.154V96.6754H199.592V97.4668ZM199.592 96.2797H188.154V95.4883H199.592V96.2797Z" fill="#3F3D56"/>
<path d="M126.997 145.235C126.997 140.161 122.895 128.121 117.834 128.121C112.773 128.121 108.671 140.161 108.671 145.235C108.672 147.672 109.638 150.009 111.357 151.732C113.075 153.455 115.405 154.423 117.834 154.423C120.263 154.423 122.593 153.455 124.312 151.732C126.03 150.009 126.996 147.672 126.997 145.235Z" fill="#F2F2F2"/>
<path d="M117.835 165.593C117.807 165.593 117.78 165.582 117.76 165.562C117.741 165.542 117.729 165.516 117.729 165.488V144.027C117.729 144.013 117.732 143.999 117.737 143.986C117.743 143.973 117.75 143.962 117.76 143.952C117.77 143.942 117.781 143.934 117.794 143.929C117.807 143.924 117.821 143.921 117.835 143.921C117.849 143.921 117.862 143.924 117.875 143.929C117.888 143.934 117.9 143.942 117.909 143.952C117.919 143.962 117.927 143.973 117.932 143.986C117.937 143.999 117.94 144.013 117.94 144.027V165.488C117.94 165.516 117.929 165.542 117.909 165.562C117.889 165.582 117.863 165.593 117.835 165.593Z" fill="#CCCCCC"/>
<path d="M117.834 148.036C117.819 148.036 117.805 148.033 117.791 148.027C117.777 148.021 117.765 148.011 117.755 148L112.485 141.902C112.467 141.881 112.458 141.854 112.46 141.826C112.462 141.799 112.475 141.773 112.496 141.755C112.517 141.736 112.544 141.727 112.572 141.729C112.6 141.731 112.625 141.744 112.644 141.765L117.914 147.862C117.927 147.877 117.935 147.896 117.938 147.916C117.941 147.936 117.938 147.956 117.93 147.975C117.921 147.993 117.908 148.009 117.891 148.02C117.874 148.03 117.855 148.036 117.834 148.036Z" fill="#CCCCCC"/>
<path d="M117.834 151.555C117.814 151.555 117.793 151.549 117.776 151.537C117.759 151.526 117.745 151.509 117.737 151.49C117.73 151.471 117.727 151.45 117.732 151.43C117.736 151.409 117.746 151.39 117.76 151.376L120.755 148.371C120.774 148.352 120.801 148.341 120.829 148.341C120.857 148.341 120.883 148.352 120.903 148.371C120.922 148.391 120.933 148.418 120.934 148.446C120.934 148.474 120.922 148.5 120.903 148.52L117.908 151.524C117.899 151.534 117.887 151.542 117.874 151.547C117.862 151.552 117.848 151.555 117.834 151.555Z" fill="#CCCCCC"/>
<path d="M39.599 45.6667C39.599 40.5927 35.4965 28.5525 30.4358 28.5525C25.375 28.5525 21.2725 40.5927 21.2725 45.6667C21.2739 48.1039 22.24 50.4409 23.9583 52.1637C25.6766 53.8866 28.0065 54.8544 30.4358 54.8544C32.865 54.8544 35.1949 53.8866 36.9132 52.1637C38.6315 50.4409 39.5976 48.1039 39.599 45.6667Z" fill="#F2C94C"/>
<path opacity="0.1" d="M39.599 45.6667C39.599 40.5927 35.4965 28.5525 30.4358 28.5525C25.375 28.5525 21.2725 40.5927 21.2725 45.6667C21.2739 48.1039 22.24 50.4409 23.9583 52.1637C25.6766 53.8866 28.0065 54.8544 30.4358 54.8544C32.865 54.8544 35.1949 53.8866 36.9132 52.1637C38.6315 50.4409 39.5976 48.1039 39.599 45.6667Z" fill="black"/>
<path d="M20.5112 65.8853C20.5112 64.8674 20.9143 63.8911 21.6317 63.1714C22.3491 62.4516 23.3221 62.0472 24.3367 62.0472C25.3512 62.0472 26.3243 62.4516 27.0417 63.1714C27.7591 63.8911 28.1621 64.8674 28.1621 65.8853" fill="#F2F2F2"/>
<path d="M24.3367 65.8853C24.3092 65.8853 24.2828 65.8744 24.2633 65.855C24.2439 65.8355 24.2329 65.8091 24.2329 65.7816V63.7589C24.2329 63.7314 24.2438 63.705 24.2633 63.6855C24.2828 63.6661 24.3092 63.6552 24.3367 63.6552C24.3642 63.6552 24.3907 63.6661 24.4101 63.6855C24.4296 63.705 24.4405 63.7314 24.4405 63.7589V65.7816C24.4405 65.8091 24.4296 65.8355 24.4101 65.855C24.3907 65.8744 24.3642 65.8853 24.3367 65.8853Z" fill="#CCCCCC"/>
<path d="M24.3362 65.1902C24.3115 65.1903 24.2876 65.1814 24.2689 65.1652L23.0282 64.0969C23.0179 64.088 23.0095 64.0772 23.0033 64.065C22.9972 64.0529 22.9935 64.0396 22.9925 64.026C22.9915 64.0125 22.9931 63.9988 22.9973 63.9859C23.0016 63.9729 23.0083 63.9609 23.0171 63.9506C23.026 63.9403 23.0368 63.9318 23.0489 63.9256C23.061 63.9195 23.0742 63.9158 23.0877 63.9147C23.1013 63.9137 23.1149 63.9153 23.1278 63.9196C23.1407 63.9238 23.1526 63.9306 23.1629 63.9394L24.4036 65.0078C24.4196 65.0216 24.4311 65.04 24.4363 65.0605C24.4416 65.081 24.4405 65.1027 24.4332 65.1226C24.4259 65.1424 24.4126 65.1596 24.3953 65.1717C24.3779 65.1838 24.3573 65.1902 24.3362 65.1902H24.3362Z" fill="#CCCCCC"/>
<path d="M32.2974 65.8853C32.2974 64.8673 32.7004 63.8911 33.4178 63.1714C34.1352 62.4516 35.1082 62.0472 36.1228 62.0472C37.1374 62.0472 38.1104 62.4516 38.8278 63.1714C39.5452 63.8911 39.9483 64.8673 39.9483 65.8853" fill="#F2F2F2"/>
<path d="M36.1233 65.8853C36.0958 65.8853 36.0694 65.8744 36.0499 65.855C36.0305 65.8355 36.0195 65.8091 36.0195 65.7816V63.7589C36.0195 63.7314 36.0305 63.705 36.0499 63.6855C36.0694 63.6661 36.0958 63.6552 36.1233 63.6552C36.1509 63.6552 36.1773 63.6661 36.1967 63.6855C36.2162 63.705 36.2271 63.7314 36.2271 63.7589V65.7816C36.2271 65.8091 36.2162 65.8355 36.1967 65.855C36.1773 65.8744 36.1509 65.8853 36.1233 65.8853Z" fill="#CCCCCC"/>
<path d="M36.1229 65.1903C36.0982 65.1903 36.0743 65.1814 36.0556 65.1652L34.8149 64.0969C34.7943 64.0789 34.7816 64.0535 34.7796 64.0261C34.7776 63.9988 34.7864 63.9718 34.8042 63.951C34.822 63.9302 34.8473 63.9173 34.8746 63.9151C34.9018 63.913 34.9288 63.9217 34.9496 63.9395L36.1903 65.0078C36.2063 65.0216 36.2178 65.04 36.2231 65.0605C36.2284 65.081 36.2273 65.1027 36.2199 65.1226C36.2126 65.1424 36.1993 65.1596 36.182 65.1717C36.1647 65.1838 36.144 65.1903 36.1229 65.1902V65.1903Z" fill="#CCCCCC"/>
<path d="M232.112 144.95C232.112 139.876 228.009 127.835 222.948 127.835C217.888 127.835 213.785 139.876 213.785 144.95C213.787 147.387 214.753 149.724 216.471 151.447C218.189 153.17 220.519 154.137 222.948 154.137C225.378 154.137 227.708 153.17 229.426 151.447C231.144 149.724 232.11 147.387 232.112 144.95Z" fill="#6FCF97"/>
<path d="M222.949 165.308C222.921 165.308 222.894 165.297 222.875 165.277C222.855 165.257 222.844 165.23 222.844 165.202V143.741C222.844 143.727 222.846 143.714 222.852 143.701C222.857 143.688 222.865 143.676 222.874 143.666C222.884 143.657 222.896 143.649 222.909 143.644C222.921 143.638 222.935 143.635 222.949 143.635C222.963 143.635 222.977 143.638 222.989 143.644C223.002 143.649 223.014 143.657 223.024 143.666C223.033 143.676 223.041 143.688 223.046 143.701C223.052 143.714 223.054 143.727 223.054 143.741V165.202C223.054 165.23 223.043 165.257 223.023 165.277C223.004 165.297 222.977 165.308 222.949 165.308Z" fill="#3F3D56"/>
<path d="M222.949 147.751C222.934 147.751 222.919 147.748 222.905 147.742C222.891 147.735 222.879 147.726 222.869 147.715L217.599 141.617C217.581 141.596 217.572 141.569 217.575 141.541C217.577 141.513 217.589 141.488 217.61 141.469C217.631 141.451 217.659 141.442 217.686 141.444C217.714 141.446 217.74 141.459 217.758 141.479L223.028 147.577C223.041 147.592 223.05 147.611 223.052 147.631C223.055 147.651 223.052 147.671 223.044 147.689C223.036 147.708 223.022 147.723 223.005 147.734C222.988 147.745 222.969 147.751 222.949 147.751V147.751Z" fill="#3F3D56"/>
<path d="M222.949 151.27C222.928 151.27 222.908 151.264 222.89 151.252C222.873 151.241 222.86 151.224 222.852 151.205C222.844 151.186 222.842 151.165 222.846 151.144C222.85 151.124 222.86 151.105 222.874 151.09L225.869 148.086C225.879 148.076 225.89 148.069 225.903 148.063C225.916 148.058 225.929 148.055 225.943 148.055C225.957 148.055 225.97 148.058 225.983 148.063C225.996 148.069 226.007 148.076 226.017 148.086C226.027 148.096 226.035 148.107 226.04 148.12C226.045 148.133 226.048 148.147 226.048 148.16C226.048 148.174 226.045 148.188 226.04 148.201C226.035 148.213 226.027 148.225 226.017 148.235L223.023 151.239C223.013 151.249 223.001 151.257 222.989 151.262C222.976 151.267 222.962 151.27 222.949 151.27Z" fill="#3F3D56"/>
<path d="M88.2724 146.558H86.4965C86.3641 146.558 86.2372 146.505 86.1435 146.411C86.0499 146.317 85.9972 146.19 85.9971 146.057V143.719C85.9972 143.586 86.0499 143.459 86.1435 143.365C86.2372 143.271 86.3641 143.218 86.4965 143.218H88.2724C88.4048 143.218 88.5317 143.271 88.6254 143.365C88.719 143.459 88.7717 143.586 88.7718 143.719V146.057C88.7717 146.19 88.719 146.317 88.6254 146.411C88.5317 146.505 88.4048 146.558 88.2724 146.558Z" fill="#3F3D56"/>
<path d="M103.256 165.6H94.1548C93.9047 165.6 93.6649 165.5 93.4881 165.322C93.3112 165.145 93.2117 164.904 93.2114 164.653V146.948C93.2117 146.697 93.3112 146.456 93.4881 146.279C93.6649 146.102 93.9047 146.002 94.1548 146.001H103.256C103.506 146.002 103.746 146.102 103.923 146.279C104.1 146.456 104.199 146.697 104.199 146.948V164.653C104.199 164.904 104.1 165.145 103.923 165.322C103.746 165.5 103.506 165.6 103.256 165.6Z" fill="#3F3D56"/>
<path d="M97.8177 165.6H82.0572C81.8071 165.6 81.5673 165.5 81.3904 165.322C81.2135 165.145 81.114 164.904 81.1138 164.653V146.948C81.114 146.697 81.2135 146.456 81.3904 146.279C81.5673 146.102 81.8071 146.002 82.0572 146.001H97.8177C98.0678 146.002 98.3076 146.102 98.4845 146.279C98.6613 146.456 98.7608 146.697 98.7611 146.948V164.653C98.7608 164.904 98.6613 165.145 98.4845 165.322C98.3076 165.5 98.0678 165.6 97.8177 165.6Z" fill="#F2C94C"/>
<path d="M86.6078 146.558H84.832C84.6996 146.558 84.5726 146.505 84.479 146.411C84.3853 146.317 84.3327 146.19 84.3325 146.057V143.719C84.3327 143.586 84.3853 143.459 84.479 143.365C84.5726 143.271 84.6996 143.218 84.832 143.218H86.6078C86.7402 143.218 86.8672 143.271 86.9608 143.365C87.0544 143.459 87.1071 143.586 87.1073 143.719V146.057C87.1071 146.19 87.0544 146.317 86.9608 146.411C86.8672 146.505 86.7402 146.558 86.6078 146.558Z" fill="#F2C94C"/>
<path d="M88.9385 154.743H86.8297C86.7561 154.743 86.6856 154.713 86.6336 154.661C86.5816 154.609 86.5523 154.538 86.5522 154.464V151.235C86.5523 151.161 86.5816 151.091 86.6336 151.038C86.6856 150.986 86.7561 150.957 86.8297 150.957H88.9385C89.0121 150.957 89.0826 150.986 89.1346 151.038C89.1866 151.091 89.2159 151.161 89.216 151.235V154.464C89.2159 154.538 89.1866 154.609 89.1346 154.661C89.0826 154.713 89.0121 154.743 88.9385 154.743Z" fill="white"/>
<path d="M93.0455 154.743H90.9367C90.8631 154.743 90.7926 154.713 90.7406 154.661C90.6885 154.609 90.6593 154.538 90.6592 154.464V151.235C90.6593 151.161 90.6885 151.091 90.7406 151.038C90.7926 150.986 90.8631 150.957 90.9367 150.957H93.0455C93.119 150.957 93.1895 150.986 93.2416 151.038C93.2936 151.091 93.3228 151.161 93.3229 151.235V154.464C93.3228 154.538 93.2936 154.609 93.2416 154.661C93.1895 154.713 93.119 154.743 93.0455 154.743Z" fill="white"/>
<path d="M88.9385 160.645H86.8297C86.7561 160.645 86.6856 160.615 86.6336 160.563C86.5816 160.511 86.5523 160.44 86.5522 160.366V157.137C86.5523 157.063 86.5816 156.992 86.6336 156.94C86.6856 156.888 86.7561 156.859 86.8297 156.859H88.9385C89.0121 156.859 89.0826 156.888 89.1346 156.94C89.1866 156.992 89.2159 157.063 89.216 157.137V160.366C89.2159 160.44 89.1866 160.511 89.1346 160.563C89.0826 160.615 89.0121 160.645 88.9385 160.645Z" fill="white"/>
<path d="M93.0455 160.645H90.9367C90.8631 160.645 90.7926 160.615 90.7406 160.563C90.6885 160.511 90.6593 160.44 90.6592 160.366V157.137C90.6593 157.063 90.6885 156.992 90.7406 156.94C90.7926 156.888 90.8631 156.859 90.9367 156.859H93.0455C93.119 156.859 93.1895 156.888 93.2416 156.94C93.2936 156.992 93.3228 157.063 93.3229 157.137V160.366C93.3228 160.44 93.2936 160.511 93.2416 160.563C93.1895 160.615 93.119 160.645 93.0455 160.645Z" fill="white"/>
<path d="M25.1016 91.0588H23.0071C22.8509 91.0586 22.7011 90.9963 22.5907 90.8855C22.4803 90.7747 22.4181 90.6245 22.418 90.4678V85.6082C22.4181 85.4515 22.4803 85.3013 22.5907 85.1905C22.7011 85.0797 22.8509 85.0174 23.0071 85.0172H25.1016C25.2578 85.0174 25.4075 85.0797 25.5179 85.1905C25.6284 85.3013 25.6905 85.4515 25.6907 85.6082V90.4678C25.6905 90.6245 25.6284 90.7747 25.5179 90.8855C25.4075 90.9963 25.2578 91.0586 25.1016 91.0588Z" fill="#3F3D56"/>
<path d="M33.3486 136.371H22.6142C22.3192 136.37 22.0363 136.252 21.8277 136.043C21.6191 135.834 21.5018 135.55 21.5015 135.254V91.7812C21.5018 91.4852 21.6191 91.2014 21.8277 90.9921C22.0363 90.7828 22.3192 90.6651 22.6142 90.6648H33.3486C33.6437 90.6651 33.9265 90.7828 34.1351 90.9921C34.3437 91.2014 34.461 91.4852 34.4614 91.7812V135.254C34.461 135.55 34.3437 135.834 34.1351 136.043C33.9265 136.252 33.6437 136.37 33.3486 136.371Z" fill="#3F3D56"/>
<path d="M26.9341 136.371H16.1996C15.9046 136.37 15.6218 136.252 15.4132 136.043C15.2046 135.834 15.0872 135.55 15.0869 135.254V91.7812C15.0872 91.4852 15.2046 91.2014 15.4132 90.9921C15.6218 90.7828 15.9046 90.6651 16.1996 90.6648H26.9341C27.2291 90.6651 27.5119 90.7828 27.7205 90.9921C27.9291 91.2014 28.0465 91.4852 28.0468 91.7812V135.254C28.0465 135.55 27.9291 135.834 27.7205 136.043C27.5119 136.252 27.2291 136.37 26.9341 136.371Z" fill="#F2C94C"/>
<path d="M23.1377 91.0588H21.0432C20.887 91.0586 20.7373 90.9963 20.6268 90.8855C20.5164 90.7747 20.4543 90.6245 20.4541 90.4678V85.6082C20.4543 85.4515 20.5164 85.3013 20.6268 85.1905C20.7373 85.0797 20.887 85.0174 21.0432 85.0172H23.1377C23.2939 85.0174 23.4436 85.0797 23.5541 85.1905C23.6645 85.3013 23.7266 85.4515 23.7268 85.6082V90.4678C23.7266 90.6245 23.6645 90.7747 23.5541 90.8855C23.4436 90.9963 23.2939 91.0586 23.1377 91.0588Z" fill="#F2C94C"/>
<path d="M20.3887 100.515H17.9015C17.8147 100.515 17.7315 100.48 17.6702 100.419C17.6088 100.357 17.5743 100.274 17.5742 100.187V96.378C17.5743 96.291 17.6088 96.2075 17.6702 96.146C17.7315 96.0844 17.8147 96.0498 17.9015 96.0497H20.3887C20.4755 96.0498 20.5587 96.0844 20.62 96.146C20.6814 96.2075 20.7159 96.291 20.716 96.378V100.187C20.7159 100.274 20.6814 100.357 20.62 100.419C20.5587 100.48 20.4755 100.515 20.3887 100.515Z" fill="white"/>
<path d="M25.232 100.515H22.7447C22.658 100.515 22.5748 100.48 22.5135 100.419C22.4521 100.357 22.4176 100.274 22.4175 100.187V96.378C22.4176 96.291 22.4521 96.2075 22.5135 96.146C22.5748 96.0844 22.658 96.0498 22.7447 96.0497H25.232C25.3188 96.0498 25.402 96.0844 25.4633 96.146C25.5247 96.2075 25.5592 96.291 25.5593 96.378V100.187C25.5592 100.274 25.5247 100.357 25.4633 100.419C25.402 100.48 25.3188 100.515 25.232 100.515Z" fill="white"/>
<path d="M20.3887 107.476H17.9015C17.8147 107.476 17.7315 107.441 17.6702 107.38C17.6088 107.318 17.5743 107.235 17.5742 107.148V103.339C17.5743 103.252 17.6088 103.168 17.6702 103.107C17.7315 103.045 17.8147 103.011 17.9015 103.011H20.3887C20.4755 103.011 20.5587 103.045 20.62 103.107C20.6814 103.168 20.7159 103.252 20.716 103.339V107.148C20.7159 107.235 20.6814 107.318 20.62 107.38C20.5587 107.441 20.4755 107.476 20.3887 107.476Z" fill="white"/>
<path d="M25.232 107.476H22.7447C22.658 107.476 22.5748 107.441 22.5135 107.38C22.4521 107.318 22.4176 107.235 22.4175 107.148V103.339C22.4176 103.252 22.4521 103.168 22.5135 103.107C22.5748 103.045 22.658 103.011 22.7447 103.011H25.232C25.3188 103.011 25.402 103.045 25.4633 103.107C25.5247 103.168 25.5592 103.252 25.5593 103.339V107.148C25.5592 107.235 25.5247 107.318 25.4633 107.38C25.402 107.441 25.3188 107.476 25.232 107.476Z" fill="white"/>
<path d="M20.3887 114.437H17.9015C17.8147 114.437 17.7315 114.402 17.6702 114.341C17.6088 114.279 17.5743 114.196 17.5742 114.109V110.3C17.5743 110.213 17.6088 110.129 17.6702 110.068C17.7315 110.006 17.8147 109.972 17.9015 109.972H20.3887C20.4755 109.972 20.5587 110.006 20.62 110.068C20.6814 110.129 20.7159 110.213 20.716 110.3V114.109C20.7159 114.196 20.6814 114.279 20.62 114.341C20.5587 114.402 20.4755 114.437 20.3887 114.437Z" fill="white"/>
<path d="M25.232 114.437H22.7447C22.658 114.437 22.5748 114.402 22.5135 114.341C22.4521 114.279 22.4176 114.196 22.4175 114.109V110.3C22.4176 110.213 22.4521 110.129 22.5135 110.068C22.5748 110.006 22.658 109.972 22.7447 109.972H25.232C25.3188 109.972 25.402 110.006 25.4633 110.068C25.5247 110.129 25.5592 110.213 25.5593 110.3V114.109C25.5592 114.196 25.5247 114.279 25.4633 114.341C25.402 114.402 25.3188 114.437 25.232 114.437Z" fill="white"/>
<path d="M20.3887 121.398H17.9015C17.8147 121.398 17.7315 121.363 17.6702 121.302C17.6088 121.24 17.5743 121.157 17.5742 121.07V117.261C17.5743 117.174 17.6088 117.09 17.6702 117.029C17.7315 116.967 17.8147 116.933 17.9015 116.932H20.3887C20.4755 116.933 20.5587 116.967 20.62 117.029C20.6814 117.09 20.7159 117.174 20.716 117.261V121.07C20.7159 121.157 20.6814 121.24 20.62 121.302C20.5587 121.363 20.4755 121.398 20.3887 121.398Z" fill="white"/>
<path d="M25.232 121.398H22.7447C22.658 121.398 22.5748 121.363 22.5135 121.302C22.4521 121.24 22.4176 121.157 22.4175 121.07V117.261C22.4176 117.174 22.4521 117.09 22.5135 117.029C22.5748 116.967 22.658 116.933 22.7447 116.932H25.232C25.3188 116.933 25.402 116.967 25.4633 117.029C25.5247 117.09 25.5592 117.174 25.5593 117.261V121.07C25.5592 121.157 25.5247 121.24 25.4633 121.302C25.402 121.363 25.3188 121.398 25.232 121.398Z" fill="white"/>
<path d="M20.3887 128.359H17.9015C17.8147 128.359 17.7315 128.324 17.6702 128.263C17.6088 128.201 17.5743 128.118 17.5742 128.031V124.222C17.5743 124.135 17.6088 124.051 17.6702 123.99C17.7315 123.928 17.8147 123.894 17.9015 123.893H20.3887C20.4755 123.894 20.5587 123.928 20.62 123.99C20.6814 124.051 20.7159 124.135 20.716 124.222V128.031C20.7159 128.118 20.6814 128.201 20.62 128.263C20.5587 128.324 20.4755 128.359 20.3887 128.359Z" fill="white"/>
<path d="M25.232 128.359H22.7447C22.658 128.359 22.5748 128.324 22.5135 128.263C22.4521 128.201 22.4176 128.118 22.4175 128.031V124.222C22.4176 124.135 22.4521 124.051 22.5135 123.99C22.5748 123.928 22.658 123.894 22.7447 123.893H25.232C25.3188 123.894 25.402 123.928 25.4633 123.99C25.5247 124.051 25.5592 124.135 25.5593 124.222V128.031C25.5592 128.118 25.5247 128.201 25.4633 128.263C25.402 128.324 25.3188 128.359 25.232 128.359Z" fill="white"/>
<path d="M191.694 146.618H189.918C189.785 146.618 189.659 146.565 189.565 146.471C189.471 146.377 189.419 146.25 189.418 146.117V143.778C189.419 143.646 189.471 143.518 189.565 143.424C189.659 143.33 189.785 143.277 189.918 143.277H191.694C191.826 143.277 191.953 143.33 192.047 143.424C192.14 143.518 192.193 143.646 192.193 143.778V146.117C192.193 146.25 192.14 146.377 192.047 146.471C191.953 146.565 191.826 146.618 191.694 146.618Z" fill="#3F3D56"/>
<path d="M206.677 165.66H197.576C197.326 165.659 197.086 165.56 196.909 165.382C196.733 165.205 196.633 164.964 196.633 164.713V147.008C196.633 146.757 196.733 146.516 196.909 146.339C197.086 146.161 197.326 146.062 197.576 146.061H206.677C206.928 146.062 207.167 146.161 207.344 146.339C207.521 146.516 207.621 146.757 207.621 147.008V164.713C207.621 164.964 207.521 165.205 207.344 165.382C207.167 165.56 206.928 165.659 206.677 165.66Z" fill="#3F3D56"/>
<path d="M201.239 165.66H185.479C185.228 165.659 184.989 165.56 184.812 165.382C184.635 165.205 184.535 164.964 184.535 164.713V147.008C184.535 146.757 184.635 146.516 184.812 146.339C184.989 146.161 185.228 146.062 185.479 146.061H201.239C201.489 146.062 201.729 146.161 201.906 146.339C202.083 146.516 202.182 146.757 202.183 147.008V164.713C202.182 164.964 202.083 165.205 201.906 165.382C201.729 165.56 201.489 165.659 201.239 165.66Z" fill="#F2C94C"/>
<path d="M190.029 146.618H188.253C188.12 146.618 187.994 146.565 187.9 146.471C187.806 146.377 187.754 146.25 187.753 146.117V143.778C187.754 143.646 187.806 143.518 187.9 143.424C187.994 143.33 188.12 143.277 188.253 143.277H190.029C190.161 143.277 190.288 143.33 190.382 143.424C190.475 143.518 190.528 143.646 190.528 143.778V146.117C190.528 146.25 190.475 146.377 190.382 146.471C190.288 146.565 190.161 146.618 190.029 146.618Z" fill="#F2C94C"/>
<path d="M192.36 154.803H190.251C190.178 154.802 190.107 154.773 190.055 154.721C190.003 154.669 189.974 154.598 189.974 154.524V151.295C189.974 151.221 190.003 151.15 190.055 151.098C190.107 151.046 190.178 151.017 190.251 151.016H192.36C192.433 151.017 192.504 151.046 192.556 151.098C192.608 151.15 192.637 151.221 192.637 151.295V154.524C192.637 154.598 192.608 154.669 192.556 154.721C192.504 154.773 192.433 154.802 192.36 154.803Z" fill="white"/>
<path d="M196.466 154.803H194.358C194.284 154.802 194.213 154.773 194.161 154.721C194.109 154.669 194.08 154.598 194.08 154.524V151.295C194.08 151.221 194.109 151.15 194.161 151.098C194.213 151.046 194.284 151.017 194.358 151.016H196.466C196.54 151.017 196.61 151.046 196.662 151.098C196.714 151.15 196.744 151.221 196.744 151.295V154.524C196.744 154.598 196.714 154.669 196.662 154.721C196.61 154.773 196.54 154.802 196.466 154.803Z" fill="white"/>
<path d="M192.36 160.704H190.251C190.178 160.704 190.107 160.675 190.055 160.623C190.003 160.571 189.974 160.5 189.974 160.426V157.197C189.974 157.123 190.003 157.052 190.055 157C190.107 156.948 190.178 156.918 190.251 156.918H192.36C192.433 156.918 192.504 156.948 192.556 157C192.608 157.052 192.637 157.123 192.637 157.197V160.426C192.637 160.5 192.608 160.571 192.556 160.623C192.504 160.675 192.433 160.704 192.36 160.704Z" fill="white"/>
<path d="M196.466 160.704H194.358C194.284 160.704 194.213 160.675 194.161 160.623C194.109 160.571 194.08 160.5 194.08 160.426V157.197C194.08 157.123 194.109 157.052 194.161 157C194.213 156.948 194.284 156.918 194.358 156.918H196.466C196.54 156.918 196.61 156.948 196.662 157C196.714 157.052 196.744 157.123 196.744 157.197V160.426C196.744 160.5 196.714 160.571 196.662 160.623C196.61 160.675 196.54 160.704 196.466 160.704Z" fill="white"/>
<path d="M227.783 66.0246C227.755 66.0246 227.728 66.0135 227.709 65.9938C227.689 65.9741 227.678 65.9473 227.678 65.9194V44.4582C227.678 44.4304 227.689 44.4038 227.709 44.3842C227.728 44.3646 227.755 44.3536 227.783 44.3536C227.811 44.3536 227.837 44.3646 227.857 44.3842C227.877 44.4038 227.888 44.4304 227.888 44.4582V65.9194C227.888 65.9332 227.885 65.9469 227.88 65.9597C227.875 65.9724 227.867 65.984 227.857 65.9938C227.848 66.0035 227.836 66.0113 227.823 66.0166C227.81 66.0219 227.797 66.0246 227.783 66.0246Z" fill="#CCCCCC"/>
<path d="M227.782 48.4679C227.767 48.4679 227.752 48.4647 227.739 48.4584C227.725 48.4522 227.713 48.443 227.703 48.4316L222.433 42.3341C222.415 42.313 222.406 42.2856 222.408 42.2578C222.41 42.2301 222.423 42.2042 222.444 42.186C222.465 42.1678 222.492 42.1586 222.52 42.1605C222.547 42.1625 222.573 42.1753 222.591 42.1963L227.861 48.2938C227.875 48.3091 227.883 48.3278 227.886 48.3477C227.889 48.3677 227.886 48.388 227.878 48.4063C227.869 48.4247 227.856 48.4402 227.839 48.4511C227.822 48.462 227.802 48.4678 227.782 48.4679V48.4679Z" fill="#CCCCCC"/>
<path d="M227.782 51.9869C227.762 51.9869 227.742 51.9807 227.724 51.9691C227.707 51.9576 227.694 51.9412 227.686 51.922C227.678 51.9028 227.676 51.8816 227.68 51.8612C227.684 51.8408 227.694 51.8221 227.708 51.8074L230.703 48.803C230.713 48.7932 230.724 48.7855 230.737 48.7802C230.75 48.7749 230.763 48.7722 230.777 48.7722C230.791 48.7722 230.804 48.7749 230.817 48.7802C230.83 48.7855 230.841 48.7932 230.851 48.803C230.861 48.8128 230.869 48.8243 230.874 48.8371C230.879 48.8499 230.882 48.8635 230.882 48.8773C230.882 48.8911 230.879 48.9048 230.874 48.9176C230.869 48.9303 230.861 48.9419 230.851 48.9517L227.857 51.9561C227.847 51.9658 227.835 51.9736 227.823 51.9789C227.81 51.9842 227.796 51.9869 227.782 51.9869Z" fill="#CCCCCC"/>
<path d="M30.4363 66.0246C30.4084 66.0246 30.3816 66.0135 30.3619 65.9938C30.3421 65.9741 30.3311 65.9473 30.3311 65.9194V44.4582C30.3312 44.4304 30.3424 44.4038 30.3621 44.3842C30.3818 44.3646 30.4085 44.3536 30.4363 44.3536C30.4641 44.3536 30.4907 44.3646 30.5105 44.3842C30.5302 44.4038 30.5413 44.4304 30.5415 44.4582V65.9194C30.5415 65.9332 30.5388 65.9469 30.5335 65.9597C30.5282 65.9724 30.5204 65.984 30.5107 65.9938C30.5009 66.0035 30.4893 66.0113 30.4765 66.0166C30.4638 66.0219 30.4501 66.0246 30.4363 66.0246Z" fill="#CCCCCC"/>
<path d="M30.4358 51.9869C30.4151 51.9869 30.3948 51.9807 30.3776 51.9691C30.3604 51.9576 30.347 51.9412 30.339 51.922C30.3311 51.9028 30.329 51.8816 30.3331 51.8612C30.3371 51.8408 30.3471 51.8221 30.3617 51.8074L33.3563 48.803C33.366 48.7932 33.3775 48.7855 33.3902 48.7802C33.403 48.7749 33.4166 48.7722 33.4303 48.7722C33.4441 48.7722 33.4577 48.7749 33.4704 48.7802C33.4831 48.7855 33.4947 48.7932 33.5044 48.803C33.5142 48.8128 33.5219 48.8243 33.5271 48.8371C33.5324 48.8499 33.5351 48.8635 33.5351 48.8773C33.5351 48.8911 33.5324 48.9048 33.5271 48.9176C33.5219 48.9303 33.5142 48.9419 33.5044 48.9517L30.5099 51.9561C30.5002 51.9658 30.4887 51.9736 30.4759 51.9789C30.4632 51.9842 30.4496 51.9869 30.4358 51.9869Z" fill="#CCCCCC"/>
<path d="M30.4357 48.4679C30.4207 48.4679 30.4058 48.4647 30.3922 48.4584C30.3785 48.4522 30.3663 48.443 30.3565 48.4316L25.0865 42.3341C25.0684 42.313 25.0593 42.2856 25.0613 42.2578C25.0633 42.2301 25.0762 42.2042 25.0972 42.186C25.1181 42.1678 25.1455 42.1586 25.1731 42.1605C25.2008 42.1625 25.2266 42.1753 25.2448 42.1963L30.5148 48.2938C30.528 48.3091 30.5365 48.3278 30.5394 48.3477C30.5422 48.3677 30.5393 48.388 30.531 48.4063C30.5226 48.4247 30.5092 48.4402 30.4923 48.4511C30.4755 48.462 30.4558 48.4678 30.4357 48.4679V48.4679Z" fill="#CCCCCC"/>
</g>
<defs>
<clipPath id="clip0">
<rect width="248" height="201" fill="white"/>
</clipPath>
</defs>
</svg>
