<svg width="278" height="190" viewBox="0 0 278 190" fill="none" xmlns="http://www.w3.org/2000/svg">
<g clip-path="url(#clip0)">
<path opacity="0.1" d="M277.698 79.7231C276.007 86.5704 267.323 90.0026 262.458 95.1107C253.289 104.738 256.86 118.798 262.677 130.058C264.624 133.828 266.834 137.819 266.009 141.862C265.003 146.807 259.661 150.422 254.051 152.339C243.829 155.829 231.587 154.997 222.19 150.169C214.07 145.997 208.254 139.223 199.996 135.229C186.174 128.566 168.582 131.094 153.573 135.674C142.956 138.921 131.347 143.146 120.796 139.756C113.373 137.367 108.24 131.553 105.443 125.404C104.095 122.429 103.114 119.209 100.537 116.852C99.0035 115.448 97.0029 114.453 94.9561 113.617C76.2448 105.954 52.6073 110.058 34.4436 101.559C22.1722 95.821 14.3134 84.9966 10.8354 73.7077C7.35745 62.4188 7.76147 50.5825 8.64495 38.9555C9.27288 30.6852 10.3997 21.8749 16.791 15.4971C23.5522 8.75193 35.1543 6.25382 45.6441 7.52598C56.134 8.79815 65.6381 13.3784 74.0032 18.759C84.4687 25.4871 94.1505 33.862 106.984 36.5863C115.724 38.4422 124.917 37.4255 133.932 37.0728C149.002 36.4866 164.077 37.8025 179.062 39.2231C186.364 39.9212 193.69 40.6533 200.928 41.7139C202.55 41.9506 204.173 42.206 205.795 42.4801C206.608 42.6187 207.421 42.7623 208.229 42.9106C208.862 43.025 209.492 43.1539 210.123 43.2682C211.117 43.4612 212.109 43.6639 213.097 43.8763C215.935 44.4844 218.746 45.1728 221.528 45.956C231.2 48.6828 238.954 53.6352 248.088 57.0942C254.041 59.349 260.532 59.9717 266.169 62.842C273.106 66.3666 279.477 72.5231 277.698 79.7231Z" fill="#6FCF97"/>
<path d="M228.768 116.21C242.51 116.21 253.649 105.076 253.649 91.3429C253.649 77.6093 242.51 66.4761 228.768 66.4761C215.027 66.4761 203.887 77.6093 203.887 91.3429C203.887 105.076 215.027 116.21 228.768 116.21Z" fill="#6FCF97"/>
<path d="M202.308 109.416C216.049 109.416 227.189 98.2826 227.189 84.549C227.189 70.8155 216.049 59.6823 202.308 59.6823C188.566 59.6823 177.427 70.8155 177.427 84.549C177.427 98.2826 188.566 109.416 202.308 109.416Z" fill="#6FCF97"/>
<path d="M173.18 109.659C186.921 109.659 198.061 98.5259 198.061 84.7923C198.061 71.0588 186.921 59.9255 173.18 59.9255C159.438 59.9255 148.298 71.0588 148.298 84.7923C148.298 98.5259 159.438 109.659 173.18 109.659Z" fill="#6FCF97"/>
<path d="M163.712 116.21C177.453 116.21 188.593 105.076 188.593 91.3429C188.593 77.6093 177.453 66.4761 163.712 66.4761C149.97 66.4761 138.831 77.6093 138.831 91.3429C138.831 105.076 149.97 116.21 163.712 116.21Z" fill="#6FCF97"/>
<path d="M147.69 118.394C161.431 118.394 172.571 107.261 172.571 93.5272C172.571 79.7936 161.431 68.6604 147.69 68.6604C133.949 68.6604 122.809 79.7936 122.809 93.5272C122.809 107.261 133.949 118.394 147.69 118.394Z" fill="#6FCF97"/>
<path d="M141.136 98.7424C154.877 98.7424 166.017 87.6091 166.017 73.8756C166.017 60.142 154.877 49.0088 141.136 49.0088C127.394 49.0088 116.255 60.142 116.255 73.8756C116.255 87.6091 127.394 98.7424 141.136 98.7424Z" fill="#6FCF97"/>
<path d="M148.418 75.9357C162.159 75.9357 173.299 64.8025 173.299 51.0689C173.299 37.3354 162.159 26.2021 148.418 26.2021C134.676 26.2021 123.537 37.3354 123.537 51.0689C123.537 64.8025 134.676 75.9357 148.418 75.9357Z" fill="#6FCF97"/>
<path d="M162.254 75.9357C175.996 75.9357 187.135 64.8025 187.135 51.0689C187.135 37.3354 175.996 26.2021 162.254 26.2021C148.513 26.2021 137.373 37.3354 137.373 51.0689C137.373 64.8025 148.513 75.9357 162.254 75.9357Z" fill="#6FCF97"/>
<path d="M170.266 65.7463C184.008 65.7463 195.147 54.613 195.147 40.8795C195.147 27.1459 184.008 16.0127 170.266 16.0127C156.525 16.0127 145.385 27.1459 145.385 40.8795C145.385 54.613 156.525 65.7463 170.266 65.7463Z" fill="#6FCF97"/>
<path d="M190.657 76.9063C204.398 76.9063 215.538 65.7731 215.538 52.0395C215.538 38.306 204.398 27.1727 190.657 27.1727C176.916 27.1727 165.776 38.306 165.776 52.0395C165.776 65.7731 176.916 76.9063 190.657 76.9063Z" fill="#6FCF97"/>
<path d="M238.236 98.7424C251.977 98.7424 263.117 87.6091 263.117 73.8756C263.117 60.142 251.977 49.0088 238.236 49.0088C224.495 49.0088 213.355 60.142 213.355 73.8756C213.355 87.6091 224.495 98.7424 238.236 98.7424Z" fill="#6FCF97"/>
<path d="M223.913 86.3685C237.654 86.3685 248.794 75.2352 248.794 61.5017C248.794 47.7681 237.654 36.6349 223.913 36.6349C210.171 36.6349 199.032 47.7681 199.032 61.5017C199.032 75.2352 210.171 86.3685 223.913 86.3685Z" fill="#6FCF97"/>
<path d="M214.689 73.9947C228.43 73.9947 239.57 62.8615 239.57 49.1279C239.57 35.3944 228.43 24.2611 214.689 24.2611C200.947 24.2611 189.808 35.3944 189.808 49.1279C189.808 62.8615 200.947 73.9947 214.689 73.9947Z" fill="#6FCF97"/>
<path d="M197.211 55.3137C210.953 55.3137 222.092 44.1804 222.092 30.4469C222.092 16.7133 210.953 5.58008 197.211 5.58008C183.47 5.58008 172.33 16.7133 172.33 30.4469C172.33 44.1804 183.47 55.3137 197.211 55.3137Z" fill="#6FCF97"/>
<path d="M229.739 75.9357C243.481 75.9357 254.621 64.8025 254.621 51.0689C254.621 37.3354 243.481 26.2021 229.739 26.2021C215.998 26.2021 204.858 37.3354 204.858 51.0689C204.858 64.8025 215.998 75.9357 229.739 75.9357Z" fill="#6FCF97"/>
<g opacity="0.1">
<path opacity="0.1" d="M228.768 116.21C242.51 116.21 253.649 105.077 253.649 91.343C253.649 77.6094 242.51 66.4762 228.768 66.4762C215.027 66.4762 203.887 77.6094 203.887 91.343C203.887 105.077 215.027 116.21 228.768 116.21Z" fill="black"/>
<path opacity="0.1" d="M202.308 109.416C216.049 109.416 227.189 98.2826 227.189 84.549C227.189 70.8155 216.049 59.6823 202.308 59.6823C188.566 59.6823 177.427 70.8155 177.427 84.549C177.427 98.2826 188.566 109.416 202.308 109.416Z" fill="black"/>
<path opacity="0.1" d="M173.179 109.659C186.921 109.659 198.061 98.5259 198.061 84.7923C198.061 71.0588 186.921 59.9255 173.179 59.9255C159.438 59.9255 148.298 71.0588 148.298 84.7923C148.298 98.5259 159.438 109.659 173.179 109.659Z" fill="black"/>
<path opacity="0.1" d="M163.712 116.21C177.453 116.21 188.593 105.077 188.593 91.343C188.593 77.6094 177.453 66.4762 163.712 66.4762C149.97 66.4762 138.831 77.6094 138.831 91.343C138.831 105.077 149.97 116.21 163.712 116.21Z" fill="black"/>
<path opacity="0.1" d="M147.69 118.394C161.431 118.394 172.571 107.261 172.571 93.5272C172.571 79.7936 161.431 68.6604 147.69 68.6604C133.948 68.6604 122.809 79.7936 122.809 93.5272C122.809 107.261 133.948 118.394 147.69 118.394Z" fill="black"/>
<path opacity="0.1" d="M141.136 98.7424C154.877 98.7424 166.017 87.6091 166.017 73.8756C166.017 60.142 154.877 49.0088 141.136 49.0088C127.394 49.0088 116.255 60.142 116.255 73.8756C116.255 87.6091 127.394 98.7424 141.136 98.7424Z" fill="black"/>
<path opacity="0.1" d="M148.418 75.9359C162.159 75.9359 173.299 64.8026 173.299 51.0691C173.299 37.3355 162.159 26.2023 148.418 26.2023C134.676 26.2023 123.536 37.3355 123.536 51.0691C123.536 64.8026 134.676 75.9359 148.418 75.9359Z" fill="black"/>
<path opacity="0.1" d="M162.254 75.9359C175.995 75.9359 187.135 64.8026 187.135 51.0691C187.135 37.3355 175.995 26.2023 162.254 26.2023C148.513 26.2023 137.373 37.3355 137.373 51.0691C137.373 64.8026 148.513 75.9359 162.254 75.9359Z" fill="black"/>
<path opacity="0.1" d="M170.266 65.7464C184.008 65.7464 195.147 54.6132 195.147 40.8796C195.147 27.1461 184.008 16.0128 170.266 16.0128C156.525 16.0128 145.385 27.1461 145.385 40.8796C145.385 54.6132 156.525 65.7464 170.266 65.7464Z" fill="black"/>
<path opacity="0.1" d="M190.657 76.9064C204.398 76.9064 215.538 65.7732 215.538 52.0396C215.538 38.3061 204.398 27.1729 190.657 27.1729C176.915 27.1729 165.776 38.3061 165.776 52.0396C165.776 65.7732 176.915 76.9064 190.657 76.9064Z" fill="black"/>
<path opacity="0.1" d="M238.236 98.7424C251.977 98.7424 263.117 87.6091 263.117 73.8756C263.117 60.142 251.977 49.0088 238.236 49.0088C224.495 49.0088 213.355 60.142 213.355 73.8756C213.355 87.6091 224.495 98.7424 238.236 98.7424Z" fill="black"/>
<path opacity="0.1" d="M223.913 86.3686C237.654 86.3686 248.794 75.2353 248.794 61.5018C248.794 47.7682 237.654 36.635 223.913 36.635C210.171 36.635 199.032 47.7682 199.032 61.5018C199.032 75.2353 210.171 86.3686 223.913 86.3686Z" fill="black"/>
<path opacity="0.1" d="M214.689 73.9947C228.43 73.9947 239.57 62.8615 239.57 49.1279C239.57 35.3944 228.43 24.2611 214.689 24.2611C200.947 24.2611 189.807 35.3944 189.807 49.1279C189.807 62.8615 200.947 73.9947 214.689 73.9947Z" fill="black"/>
<path opacity="0.1" d="M197.211 55.3137C210.953 55.3137 222.092 44.1804 222.092 30.4469C222.092 16.7133 210.953 5.58008 197.211 5.58008C183.47 5.58008 172.33 16.7133 172.33 30.4469C172.33 44.1804 183.47 55.3137 197.211 55.3137Z" fill="black"/>
<path opacity="0.1" d="M229.739 75.9359C243.481 75.9359 254.62 64.8026 254.62 51.0691C254.62 37.3355 243.481 26.2023 229.739 26.2023C215.998 26.2023 204.858 37.3355 204.858 51.0691C204.858 64.8026 215.998 75.9359 229.739 75.9359Z" fill="black"/>
</g>
<path d="M216.48 134.92C216.48 134.92 231.691 122.142 224.166 103.948L216.641 101.131L208.475 126.255L216.48 134.92Z" fill="#67647E"/>
<path opacity="0.1" d="M217.29 100.265L219.091 100.939L211.074 125.606L218.069 133.176C217.49 133.752 217.13 134.054 217.13 134.054L209.122 125.39L217.29 100.265Z" fill="black"/>
<path opacity="0.1" d="M141.041 189.998C215.844 189.998 276.484 179.852 276.484 167.337C276.484 154.822 215.844 144.676 141.041 144.676C66.2377 144.676 5.59778 154.822 5.59778 167.337C5.59778 179.852 66.2377 189.998 141.041 189.998Z" fill="#6FCF97"/>
<path d="M245.292 132.239C245.292 132.239 240.344 137.185 243.138 144.523C245.932 151.862 238.35 164.063 238.35 164.063L238.594 164.024C248.755 162.231 253.805 150.616 248.154 141.986C246.041 138.783 244.316 135.017 245.292 132.239Z" fill="#6FCF97"/>
<path d="M245.292 132.239C245.292 132.239 242.498 138.301 245.292 143.246C248.086 148.191 245.778 162.068 238.348 164.063" stroke="#535461" stroke-miterlimit="10"/>
<path d="M254.105 152.241C254.105 152.241 248.458 151.344 247.945 156.401C247.431 161.458 237.085 162.158 237.085 162.158L237.28 162.287C245.82 167.882 253.983 165.856 252.751 158.417C252.296 155.652 252.333 152.874 254.105 152.241Z" fill="#6FCF97"/>
<path opacity="0.2" d="M254.105 152.241C254.105 152.241 248.458 151.344 247.945 156.401C247.431 161.458 237.085 162.158 237.085 162.158L237.28 162.287C245.82 167.882 253.983 165.856 252.751 158.417C252.296 155.652 252.333 152.874 254.105 152.241Z" fill="#F5F5F5"/>
<path d="M254.105 152.241C254.105 152.241 249.724 153.214 250.082 157.186C250.439 161.159 243.573 165.943 237.087 162.158" stroke="#535461" stroke-miterlimit="10"/>
<path d="M147.782 108.307L149.759 116.212C149.759 116.212 163.722 118.031 173.031 116.888C174.677 116.655 176.257 116.085 177.672 115.215C178.459 114.75 179.7 114.548 181.396 115.818C184.302 118.007 198.564 135.521 196.255 153.691C196.075 155.06 195.45 156.332 194.474 157.31C193.499 158.288 192.228 158.917 190.859 159.101C188.015 159.488 185.296 160.516 182.908 162.107L175.849 166.804L248.22 165.223L240.706 156.133C240.706 156.133 235.566 151.786 231.611 151.39C230.457 151.276 229.506 150.217 228.737 148.78C224.232 140.352 218.843 132.427 213.002 124.859C208.748 119.347 205.177 113.539 205.511 109.89C206.302 101.194 205.511 86.9668 205.511 86.9668L190.484 84.9917C190.484 84.9917 192.46 103.965 174.27 108.706C156.079 113.446 147.782 108.307 147.782 108.307Z" fill="#67647E"/>
<g opacity="0.1">
<path opacity="0.1" d="M160.042 111.865C160.042 111.865 168.346 117.003 186.539 112.259C204.732 107.516 202.753 88.5455 202.753 88.5455L205.613 88.9177C205.559 87.7014 205.518 86.9717 205.518 86.9717L190.491 84.9966C190.491 84.9966 192.468 103.97 174.277 108.71C156.087 113.451 147.78 108.316 147.78 108.316L149.756 116.222C149.756 116.222 155.091 116.917 161.366 117.178L160.042 111.865Z" fill="black"/>
<path opacity="0.1" d="M195.167 165.663C197.555 164.072 200.274 163.044 203.118 162.657C204.484 162.476 205.753 161.85 206.728 160.876C207.703 159.902 208.33 158.635 208.512 157.269C210.833 139.099 196.564 121.554 193.665 119.374C190.501 117.003 188.919 119.768 188.919 119.768C187.8 120.062 186.661 120.279 185.512 120.418C190.637 127.229 197.971 140.293 196.255 153.71C196.073 155.076 195.446 156.343 194.471 157.317C193.496 158.291 192.228 158.917 190.861 159.098C188.017 159.486 185.298 160.514 182.91 162.105L175.852 166.802L194.047 166.405L195.167 165.663Z" fill="black"/>
</g>
<path d="M159.893 146.654C159.893 146.654 158.382 141.526 160.176 137.751C160.938 136.173 161.168 134.39 160.83 132.67C160.66 131.854 160.416 131.055 160.1 130.284" stroke="#535461" stroke-width="2" stroke-miterlimit="10"/>
<path d="M161.229 127.898C161.229 128.525 160.09 130.349 160.09 130.349C160.09 130.349 158.959 128.525 158.959 127.898C158.959 127.596 159.079 127.306 159.292 127.093C159.506 126.879 159.796 126.759 160.098 126.759C160.4 126.759 160.689 126.879 160.903 127.093C161.117 127.306 161.237 127.596 161.237 127.898H161.229Z" fill="#F2C94C"/>
<path d="M163.113 131.378C162.773 131.906 160.825 132.818 160.825 132.818C160.825 132.818 160.862 130.67 161.203 130.143C161.282 130.012 161.386 129.899 161.51 129.81C161.633 129.721 161.774 129.657 161.922 129.623C162.071 129.589 162.225 129.585 162.375 129.612C162.525 129.639 162.668 129.695 162.796 129.778C162.924 129.861 163.034 129.968 163.12 130.095C163.205 130.221 163.264 130.363 163.294 130.512C163.324 130.662 163.323 130.816 163.292 130.965C163.261 131.114 163.2 131.255 163.113 131.381V131.378Z" fill="#F2C94C"/>
<path d="M163.03 137.323C162.468 137.605 160.329 137.411 160.329 137.411C160.329 137.411 161.444 135.574 162.006 135.292C162.139 135.225 162.285 135.185 162.434 135.174C162.583 135.162 162.733 135.181 162.875 135.228C163.017 135.275 163.149 135.349 163.262 135.447C163.375 135.544 163.468 135.663 163.535 135.797C163.603 135.93 163.643 136.076 163.654 136.225C163.665 136.374 163.647 136.524 163.6 136.666C163.553 136.808 163.478 136.939 163.381 137.052C163.283 137.165 163.164 137.258 163.03 137.326V137.323Z" fill="#F2C94C"/>
<path d="M161.955 141.816C161.448 142.191 159.307 142.358 159.307 142.358C159.307 142.358 160.095 140.359 160.601 139.987C160.845 139.822 161.143 139.757 161.432 139.807C161.722 139.856 161.982 140.016 162.157 140.252C162.331 140.488 162.408 140.783 162.37 141.075C162.333 141.366 162.184 141.632 161.955 141.816Z" fill="#F2C94C"/>
<path d="M158.433 132.945C158.883 133.383 160.986 133.837 160.986 133.837C160.986 133.837 160.473 131.75 160.013 131.313C159.794 131.113 159.506 131.005 159.21 131.014C158.914 131.023 158.633 131.146 158.426 131.359C158.22 131.571 158.104 131.855 158.104 132.152C158.104 132.448 158.219 132.732 158.426 132.945H158.433Z" fill="#F2C94C"/>
<path d="M157.24 138.204C157.803 138.486 159.942 138.291 159.942 138.291C159.942 138.291 158.827 136.455 158.265 136.173C157.995 136.037 157.682 136.014 157.396 136.108C157.109 136.203 156.871 136.408 156.735 136.677C156.599 136.947 156.576 137.26 156.671 137.546C156.766 137.833 156.971 138.07 157.24 138.206V138.204Z" fill="#F2C94C"/>
<path d="M156.783 143.48C157.289 143.854 159.431 144.022 159.431 144.022C159.431 144.022 158.642 142.023 158.136 141.65C157.893 141.485 157.595 141.421 157.305 141.47C157.015 141.52 156.756 141.68 156.581 141.916C156.406 142.152 156.33 142.447 156.367 142.738C156.405 143.03 156.554 143.295 156.783 143.48Z" fill="#F2C94C"/>
<path d="M156.605 146.153C156.605 146.153 159.368 145.601 160.103 144.864C160.838 144.127 164.153 142.84 164.522 143.759C164.892 144.679 169.495 147.807 166.362 148.359C163.23 148.911 158.998 149.089 158.087 148.726C157.177 148.364 156.605 146.153 156.605 146.153Z" fill="#A8A8A8"/>
<path opacity="0.2" d="M166.365 148.026C163.235 148.578 159 148.756 158.09 148.393C157.389 148.113 156.902 146.766 156.71 146.141L156.617 146.16C156.617 146.16 157.17 148.369 158.09 148.736C159.01 149.103 163.245 148.921 166.365 148.369C167.268 148.208 167.526 147.836 167.428 147.362C167.351 147.663 167.037 147.902 166.365 148.026Z" fill="black"/>
<path d="M202.403 163.462C202.403 163.462 210.782 161.786 213.019 159.553C215.256 157.32 225.31 153.411 226.427 156.204C227.544 158.996 241.517 168.487 232.025 170.163C222.533 171.839 209.677 172.396 206.883 171.28C204.089 170.163 202.403 163.462 202.403 163.462Z" fill="#A8A8A8"/>
<path opacity="0.2" d="M232.015 169.125C222.523 170.801 209.668 171.358 206.874 170.241C204.746 169.39 203.267 165.303 202.682 163.404L202.403 163.462C202.403 163.462 204.079 170.163 206.871 171.28C209.663 172.396 222.516 171.839 232.013 170.163C234.756 169.677 235.539 168.543 235.242 167.108C235.011 168.045 234.055 168.767 232.015 169.125Z" fill="black"/>
<path d="M259.121 115.869C259.09 116.869 258.777 117.839 258.218 118.669C257.655 117.842 257.337 116.873 257.3 115.874C257.3 114.329 257.699 113.077 258.203 113.074C258.707 113.072 259.116 114.324 259.121 115.869Z" fill="#6FCF97"/>
<path d="M190.416 114.512C190.382 115.511 190.067 116.481 189.506 117.309C188.945 116.481 188.629 115.511 188.595 114.512C188.595 112.967 189.002 111.714 189.506 111.714C190.01 111.714 190.416 112.967 190.416 114.512Z" fill="#F2C94C"/>
<path d="M265.295 142.076C265.856 142.904 266.172 143.874 266.206 144.873C265.264 144.534 264.438 143.935 263.823 143.146C262.913 141.896 262.506 140.643 262.913 140.349C263.319 140.055 264.388 140.828 265.295 142.076Z" fill="#6FCF97"/>
<path d="M236.221 127.43C236.187 128.43 235.872 129.4 235.311 130.228C234.749 129.4 234.434 128.43 234.4 127.43C234.4 125.886 234.807 124.633 235.311 124.633C235.814 124.633 236.221 125.891 236.221 127.43Z" fill="#6FCF97"/>
<path d="M219.213 118.139C219.18 119.138 218.864 120.108 218.303 120.936C217.742 120.108 217.426 119.138 217.393 118.139C217.393 116.594 217.799 115.341 218.303 115.341C218.807 115.341 219.213 116.594 219.213 118.139Z" fill="#F2C94C"/>
<path d="M208.662 123.804C209.13 124.688 209.339 125.686 209.264 126.684C208.361 126.245 207.602 125.56 207.073 124.709C206.304 123.368 206.036 122.079 206.472 121.829C206.908 121.578 207.896 122.463 208.662 123.804Z" fill="#6FCF97"/>
<path d="M200.779 149.5C200.027 150.159 199.103 150.593 198.114 150.75C198.335 149.775 198.827 148.882 199.533 148.174C200.66 147.119 201.855 146.559 202.198 146.924C202.541 147.289 201.906 148.444 200.779 149.5Z" fill="#F2C94C"/>
<path d="M217.332 147.914C216.579 148.573 215.655 149.007 214.667 149.164C214.888 148.189 215.379 147.296 216.086 146.588C217.213 145.533 218.408 144.973 218.751 145.338C219.094 145.703 218.459 146.856 217.332 147.914Z" fill="#6FCF97"/>
<path opacity="0.1" d="M217.332 147.914C216.579 148.573 215.655 149.007 214.667 149.164C214.888 148.189 215.379 147.296 216.086 146.588C217.213 145.533 218.408 144.973 218.751 145.338C219.094 145.703 218.459 146.856 217.332 147.914Z" fill="black"/>
<path d="M220.506 164.683C219.753 165.343 218.829 165.776 217.84 165.933C218.061 164.956 218.553 164.06 219.262 163.35C220.389 162.295 221.584 161.735 221.927 162.1C222.27 162.465 221.635 163.625 220.506 164.683Z" fill="#6FCF97"/>
<path opacity="0.1" d="M220.506 164.683C219.753 165.343 218.829 165.776 217.84 165.933C218.061 164.956 218.553 164.06 219.262 163.35C220.389 162.295 221.584 161.735 221.927 162.1C222.27 162.465 221.635 163.625 220.506 164.683Z" fill="black"/>
<path d="M22.0189 137.875C25.75 143.38 24.5598 163.088 24.5598 163.088C24.5598 163.088 5.80715 156.882 2.07608 151.38C0.284509 148.737 -0.382994 145.49 0.22041 142.355C0.823814 139.22 2.6487 136.453 5.29361 134.662C7.93852 132.872 11.1868 132.204 14.3239 132.807C17.4609 133.411 20.2298 135.234 22.0214 137.878L22.0189 137.875Z" fill="#F2C94C"/>
<path opacity="0.1" d="M22.0189 137.875C25.75 143.38 24.5598 163.088 24.5598 163.088C24.5598 163.088 5.80715 156.882 2.07608 151.38C0.284509 148.737 -0.382994 145.49 0.22041 142.355C0.823814 139.22 2.6487 136.453 5.29361 134.662C7.93852 132.872 11.1868 132.204 14.3239 132.807C17.4609 133.411 20.2298 135.234 22.0214 137.878L22.0189 137.875Z" fill="black"/>
<path d="M5.36414 134.674C5.36414 134.674 19.4171 145.518 24.6328 163.107" stroke="#535461" stroke-miterlimit="10"/>
<path d="M28.1717 148.164C28.1717 148.164 18.1929 146.462 25.0077 162.98C25.0077 162.98 31.9417 160.339 32.482 153.766C32.5892 152.488 32.2236 151.214 31.4544 150.187C30.6851 149.159 29.5657 148.449 28.308 148.191L28.1717 148.164Z" fill="#F2C94C"/>
<path d="M28.3177 148.147C28.3177 148.147 30.2186 157.284 25.0175 162.985" stroke="#535461" stroke-miterlimit="10"/>
<path d="M245.484 163.494C245.484 163.494 249.648 162.667 250.758 161.565C251.868 160.463 256.867 158.534 257.422 159.911C257.977 161.288 264.918 165.972 260.199 166.797C255.48 167.622 249.093 167.899 247.706 167.349C246.319 166.799 245.484 163.494 245.484 163.494Z" fill="#A8A8A8"/>
<path opacity="0.2" d="M260.206 166.289C255.487 167.116 249.101 167.39 247.713 166.841C246.657 166.42 245.922 164.408 245.63 163.467L245.491 163.496C245.491 163.496 246.324 166.802 247.713 167.354C249.103 167.906 255.487 167.629 260.206 166.802C261.569 166.559 261.958 166.004 261.812 165.294C261.688 165.753 261.214 166.111 260.206 166.289Z" fill="black"/>
<path d="M228.768 110.63C242.51 110.63 253.649 99.4965 253.649 85.7629C253.649 72.0294 242.51 60.8961 228.768 60.8961C215.027 60.8961 203.887 72.0294 203.887 85.7629C203.887 99.4965 215.027 110.63 228.768 110.63Z" fill="#6FCF97"/>
<path d="M202.308 103.836C216.049 103.836 227.189 92.7025 227.189 78.969C227.189 65.2354 216.049 54.1022 202.308 54.1022C188.566 54.1022 177.427 65.2354 177.427 78.969C177.427 92.7025 188.566 103.836 202.308 103.836Z" fill="#6FCF97"/>
<path d="M173.18 104.079C186.921 104.079 198.061 92.9458 198.061 79.2123C198.061 65.4787 186.921 54.3455 173.18 54.3455C159.438 54.3455 148.298 65.4787 148.298 79.2123C148.298 92.9458 159.438 104.079 173.18 104.079Z" fill="#6FCF97"/>
<path d="M163.712 110.63C177.453 110.63 188.593 99.4965 188.593 85.7629C188.593 72.0294 177.453 60.8961 163.712 60.8961C149.97 60.8961 138.831 72.0294 138.831 85.7629C138.831 99.4965 149.97 110.63 163.712 110.63Z" fill="#6FCF97"/>
<path d="M147.69 112.814C161.431 112.814 172.571 101.681 172.571 87.9471C172.571 74.2136 161.431 63.0803 147.69 63.0803C133.949 63.0803 122.809 74.2136 122.809 87.9471C122.809 101.681 133.949 112.814 147.69 112.814Z" fill="#6FCF97"/>
<path d="M141.136 93.1623C154.877 93.1623 166.017 82.0291 166.017 68.2955C166.017 54.562 154.877 43.4287 141.136 43.4287C127.394 43.4287 116.255 54.562 116.255 68.2955C116.255 82.0291 127.394 93.1623 141.136 93.1623Z" fill="#6FCF97"/>
<path d="M148.418 70.3558C162.159 70.3558 173.299 59.2225 173.299 45.489C173.299 31.7554 162.159 20.6222 148.418 20.6222C134.676 20.6222 123.537 31.7554 123.537 45.489C123.537 59.2225 134.676 70.3558 148.418 70.3558Z" fill="#6FCF97"/>
<path d="M162.254 70.3558C175.996 70.3558 187.135 59.2225 187.135 45.489C187.135 31.7554 175.996 20.6222 162.254 20.6222C148.513 20.6222 137.373 31.7554 137.373 45.489C137.373 59.2225 148.513 70.3558 162.254 70.3558Z" fill="#6FCF97"/>
<path d="M170.266 60.1663C184.008 60.1663 195.147 49.0331 195.147 35.2995C195.147 21.566 184.008 10.4327 170.266 10.4327C156.525 10.4327 145.385 21.566 145.385 35.2995C145.385 49.0331 156.525 60.1663 170.266 60.1663Z" fill="#6FCF97"/>
<path d="M190.657 71.3264C204.398 71.3264 215.538 60.1931 215.538 46.4596C215.538 32.726 204.398 21.5928 190.657 21.5928C176.916 21.5928 165.776 32.726 165.776 46.4596C165.776 60.1931 176.916 71.3264 190.657 71.3264Z" fill="#6FCF97"/>
<path d="M238.236 93.1623C251.977 93.1623 263.117 82.0291 263.117 68.2955C263.117 54.562 251.977 43.4287 238.236 43.4287C224.495 43.4287 213.355 54.562 213.355 68.2955C213.355 82.0291 224.495 93.1623 238.236 93.1623Z" fill="#6FCF97"/>
<path d="M223.913 80.7885C237.654 80.7885 248.794 69.6553 248.794 55.9217C248.794 42.1882 237.654 31.0549 223.913 31.0549C210.171 31.0549 199.032 42.1882 199.032 55.9217C199.032 69.6553 210.171 80.7885 223.913 80.7885Z" fill="#6FCF97"/>
<path d="M214.689 68.4146C228.43 68.4146 239.57 57.2814 239.57 43.5478C239.57 29.8143 228.43 18.681 214.689 18.681C200.947 18.681 189.808 29.8143 189.808 43.5478C189.808 57.2814 200.947 68.4146 214.689 68.4146Z" fill="#6FCF97"/>
<path d="M197.211 49.7336C210.953 49.7336 222.092 38.6003 222.092 24.8668C222.092 11.1332 210.953 0 197.211 0C183.47 0 172.33 11.1332 172.33 24.8668C172.33 38.6003 183.47 49.7336 197.211 49.7336Z" fill="#6FCF97"/>
<path d="M229.739 70.3558C243.481 70.3558 254.621 59.2225 254.621 45.489C254.621 31.7554 243.481 20.6222 229.739 20.6222C215.998 20.6222 204.858 31.7554 204.858 45.489C204.858 59.2225 215.998 70.3558 229.739 70.3558Z" fill="#6FCF97"/>
<path opacity="0.1" d="M253.54 49.3833C253.54 49.3833 230.367 38.4009 216.346 57.8652L253.54 49.3833Z" fill="black"/>
<path opacity="0.1" d="M192.675 27.1338C192.675 27.1338 167.041 26.3603 162.008 49.809L192.675 27.1338Z" fill="black"/>
<path opacity="0.1" d="M160.811 78.0106C160.811 78.0106 137.638 67.0257 123.617 86.4852L160.811 78.0106Z" fill="black"/>
<path d="M59.3953 139.999C59.3953 139.999 60.7315 141.745 58.7771 144.377C56.8227 147.009 55.2115 149.242 55.8565 150.886C55.8565 150.886 58.8039 145.987 61.2109 145.919C63.618 145.851 62.0336 142.944 59.3953 139.999Z" fill="#F2C94C"/>
<path opacity="0.1" d="M59.3953 139.999C59.5116 140.167 59.6034 140.352 59.6679 140.546C62.0092 143.295 63.2578 145.861 61.0065 145.927C58.911 145.987 56.3944 149.733 55.7932 150.68C55.8127 150.753 55.8362 150.825 55.8638 150.896C55.8638 150.896 58.8112 145.997 61.2182 145.929C63.6253 145.861 62.0336 142.944 59.3953 139.999Z" fill="black"/>
<path d="M61.8803 142.227C61.8803 142.842 61.8121 143.341 61.7269 143.341C61.6418 143.341 61.5736 142.855 61.5736 142.227C61.5736 141.599 61.6588 141.901 61.744 141.901C61.8292 141.901 61.8803 141.612 61.8803 142.227Z" fill="#FFD037"/>
<path d="M62.7321 142.959C62.1918 143.253 61.7196 143.431 61.6807 143.356C61.6418 143.28 62.0458 142.981 62.5861 142.687C63.1264 142.392 62.9122 142.606 62.9536 142.687C62.995 142.767 63.2724 142.675 62.7321 142.959Z" fill="#FFD037"/>
<path d="M52.3324 139.999C52.3324 139.999 50.9962 141.745 52.9506 144.377C54.9049 147.009 56.5161 149.242 55.8712 150.886C55.8712 150.886 52.9238 145.987 50.5167 145.919C48.1097 145.851 49.6916 142.944 52.3324 139.999Z" fill="#F2C94C"/>
<path opacity="0.1" d="M52.3323 139.999C52.216 140.167 52.1242 140.352 52.0597 140.546C49.7183 143.295 48.4698 145.861 50.7211 145.927C52.8166 145.987 55.3332 149.733 55.9344 150.68C55.9149 150.753 55.8913 150.825 55.8638 150.896C55.8638 150.896 52.9164 145.997 50.5093 145.929C48.1023 145.861 49.6916 142.944 52.3323 139.999Z" fill="black"/>
<path d="M49.8474 142.227C49.8474 142.842 49.9156 143.341 50.0007 143.341C50.0859 143.341 50.1541 142.855 50.1541 142.227C50.1541 141.599 50.0689 141.901 49.9837 141.901C49.8985 141.901 49.8474 141.612 49.8474 142.227Z" fill="#FFD037"/>
<path d="M48.9932 142.959C49.5335 143.253 50.0056 143.431 50.0446 143.356C50.0835 143.28 49.6795 142.981 49.1392 142.687C48.5989 142.392 48.8131 142.606 48.7717 142.687C48.7303 142.767 48.4626 142.675 48.9932 142.959Z" fill="#FFD037"/>
<path d="M50.2733 150.665C50.2733 150.665 54.0117 150.551 55.141 149.748C56.2703 148.945 60.8921 147.989 61.1696 149.274C61.4471 150.558 66.7869 155.669 62.5666 155.703C58.3464 155.737 52.7607 155.046 51.6363 154.36C50.5118 153.674 50.2733 150.665 50.2733 150.665Z" fill="#A8A8A8"/>
<path opacity="0.2" d="M62.6397 155.257C58.4194 155.292 52.8337 154.601 51.7093 153.915C50.8526 153.394 50.5118 151.524 50.3974 150.66H50.2733C50.2733 150.66 50.5167 153.674 51.6338 154.357C52.751 155.041 58.3439 155.734 62.5642 155.7C63.7811 155.7 64.2022 155.257 64.1803 154.615C64.0123 155.007 63.5523 155.25 62.6397 155.257Z" fill="black"/>
<path d="M29.099 174.719C29.545 174.356 29.8701 173.866 30.0311 173.313C30.1528 172.754 29.9143 172.085 29.3789 171.881C28.7801 171.652 28.14 172.066 27.6557 172.486C27.1714 172.907 26.614 173.384 25.9788 173.294C26.3053 172.998 26.5495 172.623 26.6877 172.205C26.8259 171.787 26.8534 171.34 26.7674 170.908C26.7399 170.729 26.6642 170.561 26.5483 170.421C26.2149 170.066 25.6137 170.219 25.2146 170.499C23.949 171.389 23.5961 173.107 23.5888 174.654C23.4622 174.097 23.5693 173.515 23.5644 172.951C23.5596 172.387 23.4038 171.735 22.9219 171.438C22.6231 171.278 22.2875 171.198 21.9484 171.207C21.3788 171.185 20.746 171.243 20.3566 171.659C19.8699 172.175 19.9989 173.043 20.4199 173.605C20.841 174.167 21.4786 174.53 22.0676 174.924C22.5397 175.204 22.9423 175.587 23.2456 176.045C23.2813 176.108 23.3106 176.175 23.3332 176.244H26.8988C27.6977 175.838 28.4378 175.325 29.099 174.719Z" fill="#F2C94C"/>
<path d="M250.578 178.125C251.024 177.761 251.349 177.271 251.51 176.719C251.632 176.159 251.393 175.49 250.858 175.286C250.259 175.057 249.619 175.471 249.135 175.892C248.65 176.313 248.093 176.789 247.458 176.699C247.784 176.404 248.029 176.028 248.167 175.61C248.305 175.192 248.332 174.745 248.246 174.313C248.219 174.134 248.143 173.966 248.027 173.827C247.694 173.472 247.093 173.625 246.694 173.904C245.428 174.795 245.075 176.512 245.068 178.059C244.941 177.502 245.048 176.921 245.044 176.356C245.039 175.792 244.883 175.14 244.401 174.843C244.102 174.683 243.767 174.603 243.427 174.612C242.858 174.59 242.225 174.649 241.836 175.065C241.349 175.58 241.478 176.449 241.899 177.011C242.32 177.573 242.958 177.935 243.547 178.329C244.019 178.61 244.421 178.993 244.725 179.45C244.76 179.514 244.79 179.581 244.812 179.65H248.378C249.177 179.243 249.917 178.73 250.578 178.125Z" fill="#F2C94C"/>
<path opacity="0.1" d="M204.26 142.171C204.221 141.697 204.157 141.225 204.067 140.758L211.179 140.123C211.179 140.123 210.692 140.549 210.473 142.135C209.638 142.621 208.665 143.297 207.623 143.297C206.409 143.299 205.228 142.903 204.26 142.171Z" fill="black"/>
<path opacity="0.1" d="M213.279 154.73C214.041 155.173 214.849 155.532 215.689 155.8C216.889 156.17 218.264 155.781 218.928 155.542V154.593L213.331 153.959L213.279 154.73Z" fill="black"/>
<path opacity="0.1" d="M182.411 169.254C181.564 168.604 180.622 168.089 179.617 167.729C178.659 167.402 177.756 166.931 176.94 166.332" fill="black"/>
<path opacity="0.05" d="M165.304 179.329C165.286 179.405 165.266 179.48 165.243 179.555C165.119 179.485 164.941 179.348 165.304 179.329Z" fill="#00FF00"/>
</g>
<defs>
<clipPath id="clip0">
<rect width="278" height="190" fill="white"/>
</clipPath>
</defs>
</svg>
