<?xml version="1.0" encoding="UTF-8" standalone="no"?>
<!DOCTYPE svg PUBLIC "-//W3C//DTD SVG 1.1//EN" "http://www.w3.org/Graphics/SVG/1.1/DTD/svg11.dtd">
<svg width="100%" height="100%" viewBox="0 0 600 600" version="1.1" xmlns="http://www.w3.org/2000/svg" xmlns:xlink="http://www.w3.org/1999/xlink" xml:space="preserve" xmlns:serif="http://www.serif.com/" style="fill-rule:evenodd;clip-rule:evenodd;stroke-linejoin:round;stroke-miterlimit:2;">
    <g transform="matrix(5.71346,0,0,5.71346,190.216,136.216)">
        <g id="earth_draw" transform="matrix(1,0,0,1,-110,-81)">
            <path d="M96.301,66.542L93.397,69.894L103.179,78.327L106.082,74.975L96.301,66.542Z" style="fill:rgb(108,99,255);fill-rule:nonzero;"/>
            <path d="M159.179,126.496L156.275,129.848L164.946,137.323L167.849,133.971L159.179,126.496Z" style="fill:rgb(108,99,255);fill-rule:nonzero;"/>
            <path d="M174.844,101.525L174.844,101.785C174.838,102.438 174.82,103.088 174.788,103.735C174.224,114.805 169.437,125.241 161.409,132.904C153.382,140.567 142.721,144.876 131.611,144.948C120.502,145.021 109.785,140.851 101.658,133.294C93.53,125.737 88.607,115.364 87.897,104.302C87.838,103.383 87.809,102.458 87.809,101.525C87.793,92.532 90.59,83.759 95.811,76.427C96.228,75.837 96.662,75.257 97.113,74.688C97.424,74.292 97.744,73.905 98.067,73.521C105.413,64.837 115.877,59.373 127.215,58.299C138.553,57.226 149.861,60.629 158.713,67.779C159.237,68.201 159.752,68.638 160.256,69.084C160.658,69.442 161.054,69.807 161.443,70.18C169.1,77.488 173.813,87.339 174.693,97.875C174.794,99.08 174.844,100.297 174.844,101.525Z" style="fill:rgb(63,61,86);fill-rule:nonzero;"/>
            <path d="M131.327,150.41C104.311,150.41 82.332,128.48 82.332,101.525C82.316,89.192 86.988,77.313 95.405,68.281L96.49,69.286C88.327,78.044 83.797,89.565 83.812,101.525C83.812,127.666 105.127,148.933 131.327,148.933C137.693,148.954 143.997,147.689 149.859,145.213C155.722,142.738 161.021,139.103 165.437,134.528L166.5,135.556C161.946,140.274 156.482,144.022 150.437,146.574C144.392,149.127 137.891,150.432 131.327,150.41Z" style="fill:rgb(108,99,255);fill-rule:nonzero;"/>
            <rect x="125.998" y="149.376" width="12.434" height="12.406" style="fill:rgb(108,99,255);fill-rule:nonzero;"/>
            <path d="M97.113,74.688C97.135,74.697 97.155,74.709 97.173,74.723C97.406,74.915 97.113,75.284 97.149,75.589C97.19,75.979 97.711,76.064 98.105,76.103C98.499,76.144 98.996,76.46 98.81,76.809C97.821,77.148 96.82,76.814 95.811,76.428C90.59,83.759 87.793,92.533 87.809,101.526C87.809,102.459 87.838,103.384 87.897,104.302C87.98,104.362 88.071,104.411 88.167,104.447C88.463,104.559 88.806,104.538 89.079,104.698C89.295,104.825 89.44,105.049 89.656,105.168C90.275,105.504 91.133,104.857 91.711,105.259C91.86,105.395 92.001,105.539 92.134,105.69C92.667,106.151 93.543,105.841 94.159,106.187C94.556,106.408 94.76,106.851 94.973,107.253C95.503,108.257 96.361,109.244 97.495,109.323C97.853,109.307 98.211,109.319 98.567,109.359C98.916,109.439 99.26,109.743 99.203,110.094C99.106,110.7 99.405,111.362 99.325,111.967C99.18,113.075 97.608,113.559 97.474,114.667C97.474,114.911 97.46,115.154 97.433,115.396C97.362,115.686 97.143,115.922 97.066,116.212C96.918,116.758 97.312,117.305 97.741,117.671C98.173,118.04 98.688,118.359 98.925,118.873C99.174,119.419 99.052,120.054 99.132,120.648C99.31,121.945 100.432,122.905 101.586,123.525C101.956,123.679 102.285,123.918 102.546,124.222C102.842,124.651 102.812,125.215 102.913,125.726C103.155,126.975 104.209,128.006 104.239,129.279C104.26,130.186 103.756,131.007 103.454,131.861C103.144,132.756 103.051,133.711 103.185,134.649C104.873,136.077 106.667,137.376 108.552,138.533C108.655,138.382 108.73,138.214 108.774,138.037C108.81,137.841 108.785,137.639 108.703,137.458C108.621,137.276 108.486,137.124 108.315,137.021C108.634,136.901 108.923,136.716 109.165,136.477C109.284,136.355 109.362,136.2 109.39,136.032C109.418,135.864 109.393,135.692 109.319,135.538C109.84,135.603 110.459,135.636 110.802,135.237C111.077,134.918 111.06,134.439 110.95,134.035C110.8,133.641 110.7,133.23 110.654,132.812C111.861,132.87 113.071,132.83 114.272,132.691C114.098,132.106 113.703,131.613 113.17,131.314C113.715,131.223 114.21,130.573 114.381,130.05C114.53,129.517 114.538,128.954 114.405,128.417C114.364,128.278 114.358,128.132 114.387,127.991C114.475,127.804 114.629,127.656 114.819,127.575C115.719,127.058 116.619,126.542 117.519,126.027C117.68,125.946 117.826,125.839 117.951,125.711C118.233,125.377 118.191,124.878 118.046,124.467C117.901,124.057 117.67,123.67 117.614,123.239C117.448,121.948 118.834,121.02 119.301,119.803C119.46,119.318 119.546,118.811 119.556,118.3C119.594,117.751 119.597,117.115 119.177,116.764C118.772,116.424 118.141,116.501 117.718,116.185C117.33,115.896 117.197,115.337 116.773,115.104C116.388,114.891 115.909,115.027 115.48,114.927C114.728,114.752 114.254,113.887 113.484,113.807C113.052,113.76 112.561,113.973 112.205,113.722C111.892,113.497 111.88,113.051 111.82,112.673C111.715,112.084 111.432,111.541 111.009,111.118C110.585,110.694 110.042,110.41 109.452,110.304C109.005,110.233 108.52,110.26 108.138,110.015C107.753,109.767 107.578,109.303 107.273,108.957C106.788,108.405 106.018,108.207 105.299,108.039C104.322,107.811 103.346,107.583 102.371,107.353C101.853,107.229 101.184,107.164 100.903,107.619C100.819,107.792 100.762,107.976 100.731,108.166C100.625,108.506 100.414,108.805 100.128,109.02C99.842,109.234 99.496,109.353 99.138,109.359C98.893,108.942 98.497,108.635 98.031,108.502C97.727,108.451 97.426,108.38 97.131,108.29C96.977,108.214 96.84,108.108 96.728,107.979C96.617,107.849 96.533,107.697 96.482,107.534C96.431,107.37 96.414,107.198 96.432,107.028C96.45,106.858 96.502,106.693 96.586,106.544C96.754,106.244 96.819,105.898 96.77,105.558C96.721,105.218 96.562,104.903 96.317,104.662C95.82,104.216 95.1,104.107 94.431,104.151C94.257,103.77 94.55,103.342 94.863,103.064C95.18,102.79 95.562,102.518 95.63,102.104C95.74,101.455 94.908,100.961 94.277,101.153C93.647,101.348 93.244,101.96 92.978,102.562C92.848,102.918 92.672,103.255 92.454,103.564C92.342,103.717 92.189,103.836 92.014,103.907C91.838,103.979 91.646,104.001 91.459,103.971C90.938,103.838 90.74,103.221 90.624,102.701C90.439,102.006 90.346,101.29 90.346,100.571C90.35,99.846 90.639,99.15 91.151,98.634C92.013,97.842 93.339,97.919 94.502,98.046C94.378,97.88 94.318,97.675 94.334,97.468C94.351,97.261 94.442,97.068 94.591,96.924C94.747,96.786 94.934,96.688 95.136,96.638C95.338,96.589 95.55,96.59 95.751,96.64C96.102,96.713 96.418,96.901 96.649,97.175C96.98,97.576 97.075,98.123 97.324,98.578C97.575,99.036 98.138,99.425 98.596,99.18C98.996,98.968 99.058,98.418 98.961,97.978C98.86,97.541 98.65,97.113 98.685,96.664C98.753,95.81 99.644,95.293 100.429,94.942C101.213,94.59 102.11,94.115 102.235,93.264C102.241,93.098 102.272,92.935 102.329,92.78C102.416,92.641 102.538,92.527 102.682,92.449C104.97,90.939 107.3,89.409 109.917,88.585C110.053,88.541 110.068,88.588 110.207,88.556C110.403,88.443 110.272,88.133 110.086,88.009C109.899,87.885 109.651,87.788 109.603,87.569C109.571,87.409 109.665,87.25 109.689,87.088C109.695,86.99 109.677,86.891 109.637,86.802C109.596,86.712 109.534,86.634 109.456,86.574C109.378,86.514 109.286,86.474 109.189,86.457C109.092,86.441 108.992,86.448 108.899,86.479C108.688,86.202 109.103,85.879 109.44,85.785C110.451,85.509 111.488,85.341 112.534,85.283C112.655,85.263 112.779,85.284 112.886,85.342C112.963,85.416 113.009,85.517 113.014,85.623C113.019,85.73 112.983,85.834 112.913,85.915C112.77,86.073 112.613,86.216 112.442,86.343C112.272,86.508 112.151,86.716 112.092,86.945C112.032,87.173 112.037,87.414 112.105,87.64C112.652,87.918 113.244,88.204 113.851,88.107C114.455,88.009 114.991,87.33 114.707,86.789C114.443,86.284 113.647,86.169 113.511,85.617C113.351,84.97 114.269,84.394 114.062,83.762C113.973,83.484 113.694,83.319 113.481,83.121C113.23,82.874 113.06,82.558 112.992,82.214C112.924,81.869 112.961,81.512 113.099,81.189C112.753,81.249 112.397,81.226 112.061,81.121C111.725,81.016 111.419,80.833 111.169,80.586C110.707,80.123 110.34,79.387 109.683,79.411C109.082,79.429 108.564,80.129 108.002,79.916C107.862,79.863 107.717,79.756 107.584,79.818C107.54,79.847 107.503,79.884 107.476,79.929C107.449,79.973 107.432,80.024 107.427,80.075C107.285,80.758 107.531,81.534 107.158,82.125C106.752,82.766 105.814,82.855 105.322,83.434C105.056,83.747 104.952,84.169 104.707,84.5C104.461,84.831 103.943,85.044 103.647,84.754C103.792,84.458 103.832,84.121 103.759,83.799C103.687,83.477 103.508,83.189 103.25,82.982C102.978,82.803 102.683,82.66 102.374,82.557C102.029,82.411 101.7,82.229 101.394,82.013C101.241,81.92 101.118,81.787 101.036,81.629C100.971,81.43 100.98,81.214 101.059,81.021C101.209,80.594 101.473,80.216 101.822,79.928C102.171,79.64 102.592,79.452 103.04,79.384C103.431,79.331 103.887,79.349 104.147,79.05C104.283,78.894 104.354,78.655 104.556,78.593C104.683,78.566 104.815,78.582 104.932,78.637C105.42,78.808 105.906,78.98 106.394,79.151C106.557,79.225 106.737,79.255 106.915,79.237C107.003,79.225 107.084,79.181 107.141,79.112C107.197,79.044 107.226,78.956 107.22,78.867C107.173,78.625 106.8,78.51 106.835,78.265C106.852,78.185 106.895,78.112 106.957,78.058C107.485,77.498 108.13,77.061 108.847,76.778C109.564,76.496 110.335,76.375 111.104,76.425C111.288,76.729 110.998,77.086 110.752,77.343C110.509,77.603 110.314,78.064 110.61,78.262C110.729,78.324 110.863,78.355 110.998,78.35C111.358,78.399 111.707,78.504 112.034,78.664C112.54,78.882 113.037,79.124 113.523,79.384C113.451,79.068 113.464,78.738 113.558,78.427C113.612,78.275 113.72,78.148 113.863,78.071C114.005,77.994 114.171,77.972 114.328,78.011C114.618,78.123 114.766,78.507 115.077,78.542C115.488,78.59 115.651,77.981 115.48,77.603C115.308,77.225 114.964,76.912 114.938,76.495C114.917,76.218 115.024,75.872 114.802,75.704C114.723,75.652 114.632,75.619 114.538,75.609C112.679,75.27 110.819,74.929 108.958,74.587C108.626,74.525 108.15,74.573 108.135,74.906C108.126,75.095 108.295,75.281 108.221,75.453C108.141,75.636 107.88,75.621 107.691,75.686C107.548,75.751 107.431,75.86 107.356,75.996C107.281,76.133 107.253,76.291 107.276,76.445C107.327,76.752 107.446,77.044 107.626,77.299C107.262,77.148 106.714,77.122 106.35,76.968C106.297,76.547 106.189,76.135 106.03,75.742C106.021,75.68 105.998,75.62 105.963,75.567C105.929,75.514 105.883,75.47 105.829,75.436C105.775,75.403 105.714,75.382 105.651,75.375C105.588,75.367 105.525,75.374 105.465,75.394C104.985,75.468 104.505,75.538 104.026,75.612C103.905,75.618 103.79,75.663 103.697,75.739C103.511,75.937 103.694,76.253 103.688,76.525C103.671,76.677 103.607,76.82 103.504,76.934C103.402,77.047 103.266,77.126 103.117,77.16C102.816,77.221 102.505,77.217 102.205,77.148C101.533,77.045 100.864,76.941 100.192,76.838C100.785,76.65 101.313,76.297 101.714,75.822C101.98,75.509 102.122,74.924 101.737,74.776C101.624,74.745 101.505,74.736 101.388,74.75C100.476,74.756 99.757,73.997 98.904,73.675C98.636,73.575 98.353,73.523 98.067,73.521L97.113,74.688Z" style="fill:rgb(108,99,255);fill-rule:nonzero;"/>
            <path d="M174.788,103.734C174.684,103.874 174.547,103.986 174.389,104.061C174.231,104.136 174.057,104.171 173.882,104.163C172.956,104.083 172.565,102.751 171.647,102.6C171.566,102.579 171.48,102.588 171.405,102.624C171.268,102.698 171.245,102.881 171.236,103.034C171.197,103.796 171.165,104.588 171.464,105.291C171.899,106.319 173.027,107.182 172.79,108.271C171.517,107.684 170.854,106.257 170.555,104.889C170.253,103.522 170.206,102.086 169.667,100.793C169.255,101.315 168.397,100.884 168.024,100.335C167.669,99.815 167.449,99.212 167.106,98.684C166.763,98.158 166.236,97.685 165.608,97.656C164.948,97.626 164.374,98.078 163.87,98.506C163.433,98.829 163.065,99.237 162.79,99.706C162.438,100.414 162.529,101.247 162.512,102.036C162.494,102.887 162.313,103.788 161.73,104.414C161.147,105.037 160.072,105.256 159.43,104.691C159.119,104.368 158.898,103.97 158.787,103.537C158.089,101.506 157.508,99.437 157.047,97.34C156.94,97.818 156.517,98.435 156.114,98.155C156.024,98.078 155.951,97.984 155.901,97.877C155.149,96.61 153.761,95.848 152.354,95.39C150.951,94.935 149.474,94.723 148.086,94.22C147.307,93.938 146.563,93.569 145.868,93.119C145.692,93.378 145.589,93.68 145.57,93.993C145.551,94.306 145.617,94.618 145.762,94.897C145.918,95.169 146.16,95.383 146.45,95.504C146.74,95.625 147.062,95.648 147.366,95.567C147.674,95.467 147.935,95.254 148.239,95.148C148.544,95.045 148.956,95.095 149.089,95.39C149.219,95.671 149.024,96.01 149.122,96.306C149.267,96.752 149.945,96.787 150.181,97.195C150.251,97.356 150.267,97.536 150.227,97.707C150.187,97.878 150.093,98.032 149.959,98.146C149.687,98.368 149.386,98.552 149.065,98.695C148.071,99.248 147.363,100.19 146.493,100.922C145.622,101.658 144.394,102.193 143.358,101.723C143.603,100.474 142.114,99.558 141.839,98.314C141.747,97.904 141.795,97.47 141.667,97.071C141.481,96.492 140.966,96.096 140.545,95.659C140.035,95.122 139.637,94.489 139.375,93.797C139.113,93.104 138.993,92.367 139.021,91.627C139.044,91.113 139.139,90.59 139.021,90.088C138.905,89.589 138.488,89.105 137.973,89.125C136.798,89.178 135.314,89.267 134.699,88.266C134.477,87.908 134.382,87.385 134.702,87.111C134.827,87.032 134.966,86.978 135.112,86.953C135.258,86.929 135.407,86.933 135.551,86.966C136.436,87.052 137.319,87.14 138.204,87.226C138.822,87.285 139.492,87.335 140.024,87.013C140.557,86.691 140.788,85.832 140.294,85.451C139.936,85.173 139.29,85.188 139.184,84.748C139.098,84.379 139.506,83.962 139.284,83.652C139.127,83.433 138.772,83.492 138.556,83.658C138.367,83.853 138.162,84.032 137.943,84.192C137.52,84.411 137.017,84.201 136.561,84.06C136.105,83.918 135.495,83.906 135.276,84.328C135.027,84.798 135.492,85.418 135.249,85.891C134.924,86.514 133.828,86.16 133.372,86.697C132.851,87.312 133.728,88.233 133.553,89.019C133.328,89.13 133.078,89.181 132.827,89.167C132.577,89.153 132.334,89.075 132.123,88.939C131.916,88.799 131.751,88.605 131.646,88.378C131.54,88.151 131.499,87.9 131.525,87.651C131.567,87.297 131.753,86.934 131.629,86.6C131.495,86.342 131.273,86.14 131.004,86.03C130.146,85.554 129.287,85.081 128.429,84.609C128.189,85.052 128.491,85.598 128.87,85.932C129.246,86.263 129.719,86.514 129.968,86.951C130.125,87.254 130.161,87.606 130.067,87.934C129.974,88.262 129.758,88.543 129.465,88.718C129.427,88.743 129.385,88.76 129.341,88.768C129.296,88.775 129.251,88.774 129.207,88.762C129.166,88.738 129.13,88.706 129.102,88.668C129.073,88.63 129.053,88.586 129.041,88.54C128.588,87.379 127.905,86.236 126.815,85.631C125.723,85.022 124.157,85.149 123.44,86.168C123.271,86.411 123.156,86.688 123.008,86.945C122.224,88.307 120.536,88.951 118.961,88.909C118.807,88.919 118.654,88.883 118.52,88.806C118.265,88.632 118.277,88.26 118.316,87.953C118.372,87.518 118.425,87.087 118.482,86.653C118.483,86.388 118.586,86.133 118.769,85.941C119.062,85.711 119.482,85.855 119.855,85.849C120.137,85.837 120.407,85.738 120.631,85.566C120.854,85.394 121.018,85.158 121.102,84.89C121.177,84.618 121.176,84.332 121.1,84.061C121.024,83.791 120.875,83.546 120.669,83.354C120.501,83.194 120.273,82.993 120.361,82.778C120.398,82.718 120.446,82.667 120.504,82.629C120.562,82.59 120.627,82.564 120.696,82.553C121.362,82.361 122.07,82.311 122.724,82.081C123.381,81.853 124.018,81.386 124.174,80.71C124.222,80.503 124.243,80.252 124.429,80.149C124.523,80.111 124.624,80.091 124.725,80.09C125.081,80.039 125.405,79.857 125.633,79.58C125.862,79.303 125.978,78.95 125.96,78.592C126.273,78.374 126.714,78.536 127.019,78.769C127.321,79.003 127.591,79.31 127.961,79.41C128.651,79.599 129.317,78.988 130.033,78.985C130.335,78.985 130.646,79.091 130.927,78.988C131.214,78.885 131.386,78.601 131.605,78.391C131.827,78.179 132.212,78.052 132.416,78.279C132.357,77.851 132.301,77.425 132.241,77C132.59,77.088 132.954,77.1 133.308,77.036C133.662,76.971 133.998,76.832 134.293,76.628C133.547,76.377 132.804,76.126 132.058,75.875C131.98,75.855 131.907,75.817 131.848,75.762C131.685,75.588 131.848,75.316 131.978,75.119C132.295,74.643 132.348,73.86 131.827,73.624C131.472,73.461 131.066,73.656 130.726,73.845C130.181,74.147 129.636,74.451 129.092,74.752C129.041,75.062 129.42,75.24 129.654,75.446C129.797,75.573 129.898,75.739 129.944,75.923C129.99,76.108 129.978,76.302 129.912,76.48C129.845,76.658 129.726,76.812 129.57,76.921C129.414,77.03 129.229,77.09 129.038,77.092C129.146,77.231 129.22,77.393 129.257,77.566C129.293,77.738 129.29,77.916 129.249,78.087C128.884,78.114 128.517,78.14 128.15,78.167C128.089,78.179 128.026,78.179 127.966,78.167C127.905,78.155 127.847,78.13 127.795,78.096C127.677,77.992 127.694,77.809 127.665,77.656C127.616,77.472 127.513,77.307 127.37,77.183C127.226,77.058 127.048,76.979 126.86,76.956C126.482,76.913 126.101,76.949 125.738,77.059C125.58,77.115 125.407,77.11 125.252,77.047C125.164,76.989 125.098,76.904 125.063,76.805C124.998,76.603 124.987,76.387 125.031,76.179C125.074,75.971 125.171,75.778 125.311,75.618C125.595,75.303 125.909,75.015 126.247,74.758C127.013,74.089 127.576,73.219 127.872,72.247C128.476,71.993 129.101,71.651 129.707,71.397C130.195,71.171 130.707,71 131.232,70.886C131.727,70.81 132.228,70.787 132.727,70.815C133.408,70.827 134.092,70.839 134.773,70.853C135.38,70.828 135.988,70.915 136.564,71.11C137.123,71.341 137.618,71.84 137.656,72.442C137.668,72.511 137.662,72.582 137.638,72.647C137.615,72.713 137.575,72.771 137.523,72.818C137.444,72.861 137.355,72.881 137.265,72.876C136.7,72.894 136.46,73.036 135.895,73.057C136.253,73.438 136.655,73.84 137.176,73.907C138.094,74.026 138.754,73.077 139.178,72.253C139.193,72.463 139.29,72.659 139.447,72.798C139.605,72.938 139.811,73.01 140.021,73.001C140.248,72.962 140.465,72.877 140.658,72.753C142.479,71.76 144.518,71.234 146.593,71.222C146.573,71.066 146.612,70.907 146.702,70.777C146.792,70.647 146.928,70.555 147.082,70.519C147.505,70.437 147.884,70.8 148.089,71.178C148.29,71.556 148.417,71.993 148.743,72.277C149.065,72.561 149.69,72.546 149.817,72.138C149.942,71.745 149.53,71.409 149.19,71.175C148.846,70.945 148.488,70.516 148.719,70.174C150.46,69.787 152.215,69.403 154,69.326C154.304,69.335 154.606,69.283 154.889,69.173C155.028,69.113 155.145,69.01 155.22,68.878C155.295,68.746 155.324,68.593 155.303,68.443C154.913,68.534 154.506,68.507 154.131,68.366C153.757,68.225 153.433,67.976 153.201,67.651C155.034,67.501 156.952,67.368 158.713,67.778L160.256,69.084C159.963,69.388 159.572,69.675 159.785,69.979C159.855,70.049 159.941,70.102 160.034,70.134C160.128,70.166 160.228,70.177 160.327,70.165C160.7,70.171 161.073,70.18 161.443,70.18C169.1,77.488 173.813,87.338 174.694,97.874C174.072,97.851 173.501,98.636 173.58,99.322C173.675,100.116 174.25,100.754 174.661,101.439C174.729,101.551 174.79,101.666 174.845,101.785L174.788,103.734Z" style="fill:rgb(108,99,255);fill-rule:nonzero;"/>
            <path d="M153.926,86.46C156.254,86.46 158.14,84.577 158.14,82.255C158.14,79.932 156.254,78.05 153.926,78.05C151.599,78.05 149.712,79.932 149.712,82.255C149.712,84.577 151.599,86.46 153.926,86.46Z" style="fill:rgb(63,61,86);fill-rule:nonzero;"/>
            <path d="M167.464,74.282C170.532,74.282 173.019,71.8 173.019,68.739C173.019,65.678 170.532,63.196 167.464,63.196C164.396,63.196 161.909,65.678 161.909,68.739C161.909,71.8 164.396,74.282 167.464,74.282Z" style="fill:white;fill-rule:nonzero;"/>
            <path d="M173.082,62.993C171.591,61.542 169.583,60.741 167.5,60.767C165.417,60.792 163.43,61.643 161.975,63.13C158.946,66.228 154.622,81.874 154.622,81.874C154.622,81.874 170.19,77.173 173.219,74.075C174.674,72.587 175.476,70.584 175.451,68.506C175.425,66.427 174.573,64.444 173.082,62.993ZM164.922,71.339C164.407,70.837 164.052,70.195 163.903,69.492C163.754,68.789 163.817,68.058 164.084,67.391C164.351,66.724 164.81,66.151 165.404,65.745C165.997,65.339 166.698,65.117 167.418,65.108C168.138,65.099 168.844,65.304 169.448,65.695C170.051,66.087 170.525,66.648 170.808,67.308C171.092,67.968 171.173,68.698 171.042,69.404C170.91,70.11 170.571,70.761 170.069,71.275C169.395,71.965 168.474,72.359 167.508,72.371C166.543,72.382 165.613,72.011 164.922,71.339Z" style="fill:rgb(87,184,148);fill-rule:nonzero;"/>
        </g>
    </g>
</svg>
