<?xml version="1.0" encoding="UTF-8" standalone="no"?>
<!DOCTYPE svg PUBLIC "-//W3C//DTD SVG 1.1//EN" "http://www.w3.org/Graphics/SVG/1.1/DTD/svg11.dtd">
<svg width="100%" height="100%" viewBox="0 0 600 600" version="1.1" xmlns="http://www.w3.org/2000/svg" xmlns:xlink="http://www.w3.org/1999/xlink" xml:space="preserve" xmlns:serif="http://www.serif.com/" style="fill-rule:evenodd;clip-rule:evenodd;stroke-linejoin:round;stroke-miterlimit:2;">
    <g transform="matrix(5.2936,0,0,5.2936,300,300.414)">
        <g id="fire_draw" transform="matrix(1,0,0,1,-49,-56.5)">
            <path d="M53.332,85.48C53.227,84.497 52.759,83.589 52.02,82.934C51.281,82.279 50.323,81.923 49.336,81.937C48.436,81.931 47.56,82.227 46.849,82.779C46.138,83.33 45.632,84.105 45.414,84.978L41.493,104.023C41.363,104.58 41.296,105.149 41.292,105.721C41.292,110.016 44.886,113 49.336,113C53.785,113 57.381,110.016 57.381,105.721C57.379,105.033 57.285,104.348 57.103,103.684L53.332,85.48Z" style="fill:rgb(63,61,86);fill-rule:nonzero;"/>
            <path d="M82.992,93.998C82.593,93.648 82.164,93.334 81.71,93.06L66.729,82.59C65.27,81.674 63.712,81.7 62.581,82.805C62.088,83.275 61.774,83.903 61.695,84.58C61.617,85.257 61.778,85.941 62.15,86.511L73.462,101.38C73.721,101.741 74.009,102.079 74.324,102.391C76.285,104.583 80.633,104.703 83.022,102.391C85.38,100.04 85.352,95.851 82.992,93.998Z" style="fill:rgb(63,61,86);fill-rule:nonzero;"/>
            <path d="M94.253,78.488L79.08,78.488C78.593,78.469 78.119,78.644 77.761,78.973C77.403,79.302 77.189,79.76 77.166,80.246C77.159,80.695 77.301,81.132 77.571,81.49C77.842,81.848 78.224,82.105 78.657,82.22L92.971,86.648C95.05,87.133 97.851,85.28 97.851,82.966C97.851,80.022 96.214,78.488 94.253,78.488Z" style="fill:rgb(63,61,86);fill-rule:nonzero;"/>
            <path d="M22.055,80.236C22.039,79.986 21.974,79.742 21.863,79.517C21.751,79.293 21.596,79.093 21.406,78.929C21.217,78.766 20.996,78.641 20.758,78.564C20.52,78.486 20.269,78.457 20.019,78.478L4.846,78.478C2.935,78.478 1.323,80.542 1.323,82.857C1.323,85.171 4.042,87.132 6.128,86.647L20.657,82.219C21.093,82.117 21.476,81.859 21.734,81.494C21.992,81.128 22.106,80.681 22.055,80.236Z" style="fill:rgb(63,61,86);fill-rule:nonzero;"/>
            <path d="M32.469,82.607L17.484,93.033C17.018,93.295 16.585,93.609 16.191,93.97C15.089,94.995 14.44,96.416 14.385,97.92C14.331,99.423 14.876,100.887 15.9,101.989C15.994,102.089 16.091,102.186 16.191,102.28C17.366,103.39 18.922,104.009 20.539,104.009C22.156,104.009 23.712,103.39 24.887,102.28C25.208,101.973 25.496,101.635 25.749,101.271L37.07,86.486C37.449,85.923 37.614,85.243 37.535,84.568C37.456,83.894 37.138,83.27 36.639,82.81C36.08,82.289 35.355,81.982 34.591,81.945C33.828,81.908 33.076,82.143 32.469,82.607Z" style="fill:rgb(63,61,86);fill-rule:nonzero;"/>
            <path d="M55.78,62.233C55.954,61.977 56.05,61.676 56.058,61.367C56.058,59.542 52.462,58.273 48.013,58.273C43.563,58.273 39.969,59.542 39.969,61.367C39.975,61.62 40.044,61.868 40.17,62.089L44.091,70.183C44.54,70.946 46.16,71.48 48.012,71.475C50.1,71.475 51.835,70.815 52.009,69.969L55.78,62.233Z" style="fill:rgb(63,61,86);fill-rule:nonzero;"/>
            <path d="M81.704,62.782C79.314,61.8 74.966,61.851 73.005,62.782C72.709,62.906 72.421,63.049 72.143,63.212L60.832,69.531C60.062,70.031 60.243,70.694 61.262,71.106C62.601,71.57 64.052,71.602 65.41,71.198L80.391,66.748C80.826,66.638 81.254,66.505 81.674,66.349C84.033,65.562 84.061,63.782 81.704,62.782Z" style="fill:rgb(63,61,86);fill-rule:nonzero;"/>
            <path d="M96.528,71.038C96.528,70.055 93.727,69.267 91.647,69.473L77.334,71.355C76.479,71.475 75.843,71.753 75.843,72.194C75.843,72.634 76.776,72.941 77.756,72.941L92.93,72.941C94.89,72.941 96.528,72.289 96.528,71.038Z" style="fill:rgb(63,61,86);fill-rule:nonzero;"/>
            <path d="M19.334,71.356L4.805,69.474C2.719,69.267 0,70.101 0,71.084C0,72.068 1.612,72.945 3.523,72.945L18.696,72.945C19.752,72.945 20.732,72.656 20.732,72.198C20.732,71.74 20.28,71.475 19.334,71.356Z" style="fill:rgb(63,61,86);fill-rule:nonzero;"/>
            <path d="M35.312,71.104C36.372,70.685 36.497,70.053 35.743,69.542L24.422,63.258C24.147,63.092 23.858,62.949 23.56,62.83C20.744,61.85 17.68,61.85 14.864,62.83C14.764,62.869 14.667,62.91 14.573,62.953C12.439,63.928 12.57,65.454 14.864,66.361C15.285,66.523 15.717,66.656 16.157,66.759L31.142,71.19C32.507,71.596 33.965,71.565 35.312,71.104Z" style="fill:rgb(63,61,86);fill-rule:nonzero;"/>
            <path d="M78.868,60.923C78.868,84.329 65.824,84.762 49.734,84.762C33.644,84.762 7.228,80.132 20.601,60.923C34.706,40.663 58.902,2.045 49.734,0C49.734,0 78.868,37.516 78.868,60.923Z" style="fill:rgb(249,168,37);fill-rule:nonzero;"/>
            <path d="M59.995,75.325C59.995,84.59 54.832,84.762 48.463,84.762C42.094,84.762 31.638,82.929 36.931,75.325C42.514,67.306 52.092,52.02 48.463,51.21C48.463,51.21 59.995,66.06 59.995,75.325Z" style="fill:rgb(255,101,132);fill-opacity:0.5;fill-rule:nonzero;"/>
        </g>
        <g id="fire_draw1" serif:id="fire_draw">
        </g>
    </g>
</svg>
