<svg width="301" height="48" viewBox="0 0 301 48" fill="none" xmlns="http://www.w3.org/2000/svg">
<path d="M10.0375 35.2V45H8.21748V40.8H3.14948V45H1.32948V35.2H3.14948V39.246H8.21748V35.2H10.0375ZM16.5555 45.098C15.7995 45.098 15.1181 44.9347 14.5115 44.608C13.9048 44.2813 13.4288 43.8287 13.0835 43.25C12.7475 42.662 12.5795 41.9993 12.5795 41.262C12.5795 40.5247 12.7475 39.8667 13.0835 39.288C13.4288 38.7093 13.9048 38.2567 14.5115 37.93C15.1181 37.6033 15.7995 37.44 16.5555 37.44C17.3208 37.44 18.0068 37.6033 18.6135 37.93C19.2201 38.2567 19.6915 38.7093 20.0275 39.288C20.3728 39.8667 20.5455 40.5247 20.5455 41.262C20.5455 41.9993 20.3728 42.662 20.0275 43.25C19.6915 43.8287 19.2201 44.2813 18.6135 44.608C18.0068 44.9347 17.3208 45.098 16.5555 45.098ZM16.5555 43.6C17.1995 43.6 17.7315 43.3853 18.1515 42.956C18.5715 42.5267 18.7815 41.962 18.7815 41.262C18.7815 40.562 18.5715 39.9973 18.1515 39.568C17.7315 39.1387 17.1995 38.924 16.5555 38.924C15.9115 38.924 15.3795 39.1387 14.9595 39.568C14.5488 39.9973 14.3435 40.562 14.3435 41.262C14.3435 41.962 14.5488 42.5267 14.9595 42.956C15.3795 43.3853 15.9115 43.6 16.5555 43.6ZM32.3549 37.44C33.2976 37.44 34.0442 37.7153 34.5949 38.266C35.1456 38.8073 35.4209 39.624 35.4209 40.716V45H33.6709V40.94C33.6709 40.2867 33.5262 39.7967 33.2369 39.47C32.9476 39.134 32.5322 38.966 31.9909 38.966C31.4029 38.966 30.9316 39.162 30.5769 39.554C30.2222 39.9367 30.0449 40.4873 30.0449 41.206V45H28.2949V40.94C28.2949 40.2867 28.1502 39.7967 27.8609 39.47C27.5716 39.134 27.1562 38.966 26.6149 38.966C26.0176 38.966 25.5416 39.1573 25.1869 39.54C24.8416 39.9227 24.6689 40.478 24.6689 41.206V45H22.9189V37.524H24.5849V38.476C24.8649 38.14 25.2149 37.8833 25.6349 37.706C26.0549 37.5287 26.5216 37.44 27.0349 37.44C27.5949 37.44 28.0896 37.5473 28.5189 37.762C28.9576 37.9673 29.3029 38.2753 29.5549 38.686C29.8629 38.294 30.2596 37.9907 30.7449 37.776C31.2302 37.552 31.7669 37.44 32.3549 37.44ZM45.4535 41.304C45.4535 41.4253 45.4442 41.598 45.4255 41.822H39.5595C39.6622 42.3727 39.9282 42.8113 40.3575 43.138C40.7962 43.4553 41.3375 43.614 41.9815 43.614C42.8029 43.614 43.4795 43.3433 44.0115 42.802L44.9495 43.88C44.6135 44.2813 44.1889 44.5847 43.6755 44.79C43.1622 44.9953 42.5835 45.098 41.9395 45.098C41.1182 45.098 40.3949 44.9347 39.7695 44.608C39.1442 44.2813 38.6589 43.8287 38.3135 43.25C37.9775 42.662 37.8095 41.9993 37.8095 41.262C37.8095 40.534 37.9729 39.8807 38.2995 39.302C38.6355 38.714 39.0975 38.2567 39.6855 37.93C40.2735 37.6033 40.9362 37.44 41.6735 37.44C42.4015 37.44 43.0502 37.6033 43.6195 37.93C44.1982 38.2473 44.6462 38.7 44.9635 39.288C45.2902 39.8667 45.4535 40.5387 45.4535 41.304ZM41.6735 38.84C41.1135 38.84 40.6375 39.008 40.2455 39.344C39.8629 39.6707 39.6295 40.1093 39.5455 40.66H43.7875C43.7129 40.1187 43.4842 39.68 43.1015 39.344C42.7189 39.008 42.2429 38.84 41.6735 38.84Z" fill="black"/>
<path d="M119.895 45.14C118.905 45.14 118.009 44.9253 117.207 44.496C116.413 44.0573 115.788 43.4553 115.331 42.69C114.883 41.9247 114.659 41.0613 114.659 40.1C114.659 39.1387 114.887 38.2753 115.345 37.51C115.802 36.7447 116.427 36.1473 117.221 35.718C118.023 35.2793 118.919 35.06 119.909 35.06C120.711 35.06 121.444 35.2 122.107 35.48C122.769 35.76 123.329 36.166 123.787 36.698L122.611 37.804C121.901 37.0387 121.029 36.656 119.993 36.656C119.321 36.656 118.719 36.8053 118.187 37.104C117.655 37.3933 117.239 37.7993 116.941 38.322C116.642 38.8447 116.493 39.4373 116.493 40.1C116.493 40.7627 116.642 41.3553 116.941 41.878C117.239 42.4007 117.655 42.8113 118.187 43.11C118.719 43.3993 119.321 43.544 119.993 43.544C121.029 43.544 121.901 43.1567 122.611 42.382L123.787 43.502C123.329 44.034 122.765 44.44 122.093 44.72C121.43 45 120.697 45.14 119.895 45.14ZM128.85 37.44C129.952 37.44 130.792 37.706 131.37 38.238C131.958 38.7607 132.252 39.554 132.252 40.618V45H130.6V44.09C130.386 44.4167 130.078 44.6687 129.676 44.846C129.284 45.014 128.808 45.098 128.248 45.098C127.688 45.098 127.198 45.0047 126.778 44.818C126.358 44.622 126.032 44.356 125.798 44.02C125.574 43.6747 125.462 43.2873 125.462 42.858C125.462 42.186 125.71 41.6493 126.204 41.248C126.708 40.8373 127.497 40.632 128.57 40.632H130.502V40.52C130.502 39.9973 130.344 39.596 130.026 39.316C129.718 39.036 129.256 38.896 128.64 38.896C128.22 38.896 127.805 38.9613 127.394 39.092C126.993 39.2227 126.652 39.4047 126.372 39.638L125.686 38.364C126.078 38.0653 126.55 37.8367 127.1 37.678C127.651 37.5193 128.234 37.44 128.85 37.44ZM128.612 43.824C129.051 43.824 129.438 43.726 129.774 43.53C130.12 43.3247 130.362 43.0353 130.502 42.662V41.794H128.696C127.688 41.794 127.184 42.1253 127.184 42.788C127.184 43.1053 127.31 43.3573 127.562 43.544C127.814 43.7307 128.164 43.824 128.612 43.824ZM139.692 44.594C139.487 44.762 139.235 44.888 138.936 44.972C138.647 45.056 138.339 45.098 138.012 45.098C137.191 45.098 136.556 44.8833 136.108 44.454C135.66 44.0247 135.436 43.3993 135.436 42.578V38.98H134.204V37.58H135.436V35.872H137.186V37.58H139.188V38.98H137.186V42.536C137.186 42.9 137.275 43.18 137.452 43.376C137.63 43.5627 137.886 43.656 138.222 43.656C138.614 43.656 138.941 43.5533 139.202 43.348L139.692 44.594ZM148.614 41.304C148.614 41.4253 148.604 41.598 148.586 41.822H142.72C142.822 42.3727 143.088 42.8113 143.518 43.138C143.956 43.4553 144.498 43.614 145.142 43.614C145.963 43.614 146.64 43.3433 147.172 42.802L148.11 43.88C147.774 44.2813 147.349 44.5847 146.836 44.79C146.322 44.9953 145.744 45.098 145.1 45.098C144.278 45.098 143.555 44.9347 142.93 44.608C142.304 44.2813 141.819 43.8287 141.474 43.25C141.138 42.662 140.97 41.9993 140.97 41.262C140.97 40.534 141.133 39.8807 141.46 39.302C141.796 38.714 142.258 38.2567 142.846 37.93C143.434 37.6033 144.096 37.44 144.834 37.44C145.562 37.44 146.21 37.6033 146.78 37.93C147.358 38.2473 147.806 38.7 148.124 39.288C148.45 39.8667 148.614 40.5387 148.614 41.304ZM144.834 38.84C144.274 38.84 143.798 39.008 143.406 39.344C143.023 39.6707 142.79 40.1093 142.706 40.66H146.948C146.873 40.1187 146.644 39.68 146.262 39.344C145.879 39.008 145.403 38.84 144.834 38.84ZM158.415 37.524V43.866C158.415 46.498 157.071 47.814 154.383 47.814C153.664 47.814 152.983 47.7207 152.339 47.534C151.695 47.3567 151.163 47.0953 150.743 46.75L151.527 45.434C151.853 45.7047 152.264 45.9193 152.759 46.078C153.263 46.246 153.771 46.33 154.285 46.33C155.106 46.33 155.708 46.1433 156.091 45.77C156.473 45.3967 156.665 44.8273 156.665 44.062V43.67C156.366 43.9967 156.002 44.244 155.573 44.412C155.143 44.58 154.672 44.664 154.159 44.664C153.449 44.664 152.805 44.5147 152.227 44.216C151.657 43.908 151.205 43.4787 150.869 42.928C150.542 42.3773 150.379 41.7473 150.379 41.038C150.379 40.3287 150.542 39.7033 150.869 39.162C151.205 38.6113 151.657 38.1867 152.227 37.888C152.805 37.5893 153.449 37.44 154.159 37.44C154.7 37.44 155.19 37.5287 155.629 37.706C156.077 37.8833 156.45 38.154 156.749 38.518V37.524H158.415ZM154.425 43.18C155.087 43.18 155.629 42.984 156.049 42.592C156.478 42.1907 156.693 41.6727 156.693 41.038C156.693 40.4127 156.478 39.904 156.049 39.512C155.629 39.12 155.087 38.924 154.425 38.924C153.753 38.924 153.202 39.12 152.773 39.512C152.353 39.904 152.143 40.4127 152.143 41.038C152.143 41.6727 152.353 42.1907 152.773 42.592C153.202 42.984 153.753 43.18 154.425 43.18ZM164.775 45.098C164.019 45.098 163.338 44.9347 162.731 44.608C162.125 44.2813 161.649 43.8287 161.303 43.25C160.967 42.662 160.799 41.9993 160.799 41.262C160.799 40.5247 160.967 39.8667 161.303 39.288C161.649 38.7093 162.125 38.2567 162.731 37.93C163.338 37.6033 164.019 37.44 164.775 37.44C165.541 37.44 166.227 37.6033 166.833 37.93C167.44 38.2567 167.911 38.7093 168.247 39.288C168.593 39.8667 168.765 40.5247 168.765 41.262C168.765 41.9993 168.593 42.662 168.247 43.25C167.911 43.8287 167.44 44.2813 166.833 44.608C166.227 44.9347 165.541 45.098 164.775 45.098ZM164.775 43.6C165.419 43.6 165.951 43.3853 166.371 42.956C166.791 42.5267 167.001 41.962 167.001 41.262C167.001 40.562 166.791 39.9973 166.371 39.568C165.951 39.1387 165.419 38.924 164.775 38.924C164.131 38.924 163.599 39.1387 163.179 39.568C162.769 39.9973 162.563 40.562 162.563 41.262C162.563 41.962 162.769 42.5267 163.179 42.956C163.599 43.3853 164.131 43.6 164.775 43.6ZM172.805 38.616C173.309 37.832 174.195 37.44 175.465 37.44V39.106C175.315 39.078 175.18 39.064 175.059 39.064C174.377 39.064 173.845 39.2647 173.463 39.666C173.08 40.058 172.889 40.6273 172.889 41.374V45H171.139V37.524H172.805V38.616ZM177.649 37.524H179.399V45H177.649V37.524ZM178.531 36.292C178.214 36.292 177.948 36.194 177.733 35.998C177.519 35.7927 177.411 35.5407 177.411 35.242C177.411 34.9433 177.519 34.696 177.733 34.5C177.948 34.2947 178.214 34.192 178.531 34.192C178.849 34.192 179.115 34.29 179.329 34.486C179.544 34.6727 179.651 34.9107 179.651 35.2C179.651 35.508 179.544 35.7693 179.329 35.984C179.124 36.1893 178.858 36.292 178.531 36.292ZM189.424 41.304C189.424 41.4253 189.415 41.598 189.396 41.822H183.53C183.633 42.3727 183.899 42.8113 184.328 43.138C184.767 43.4553 185.308 43.614 185.952 43.614C186.774 43.614 187.45 43.3433 187.982 42.802L188.92 43.88C188.584 44.2813 188.16 44.5847 187.646 44.79C187.133 44.9953 186.554 45.098 185.91 45.098C185.089 45.098 184.366 44.9347 183.74 44.608C183.115 44.2813 182.63 43.8287 182.284 43.25C181.948 42.662 181.78 41.9993 181.78 41.262C181.78 40.534 181.944 39.8807 182.27 39.302C182.606 38.714 183.068 38.2567 183.656 37.93C184.244 37.6033 184.907 37.44 185.644 37.44C186.372 37.44 187.021 37.6033 187.59 37.93C188.169 38.2473 188.617 38.7 188.934 39.288C189.261 39.8667 189.424 40.5387 189.424 41.304ZM185.644 38.84C185.084 38.84 184.608 39.008 184.216 39.344C183.834 39.6707 183.6 40.1093 183.516 40.66H187.758C187.684 40.1187 187.455 39.68 187.072 39.344C186.69 39.008 186.214 38.84 185.644 38.84Z" fill="black"/>
<path d="M252.769 35.2C253.618 35.2 254.355 35.34 254.981 35.62C255.615 35.9 256.101 36.3013 256.437 36.824C256.773 37.3467 256.941 37.9673 256.941 38.686C256.941 39.3953 256.773 40.016 256.437 40.548C256.101 41.0707 255.615 41.472 254.981 41.752C254.355 42.032 253.618 42.172 252.769 42.172H250.557V45H248.737V35.2H252.769ZM252.685 40.632C253.478 40.632 254.08 40.464 254.491 40.128C254.901 39.792 255.107 39.3113 255.107 38.686C255.107 38.0607 254.901 37.58 254.491 37.244C254.08 36.908 253.478 36.74 252.685 36.74H250.557V40.632H252.685ZM262.078 37.44C263.179 37.44 264.019 37.706 264.598 38.238C265.186 38.7607 265.48 39.554 265.48 40.618V45H263.828V44.09C263.613 44.4167 263.305 44.6687 262.904 44.846C262.512 45.014 262.036 45.098 261.476 45.098C260.916 45.098 260.426 45.0047 260.006 44.818C259.586 44.622 259.259 44.356 259.026 44.02C258.802 43.6747 258.69 43.2873 258.69 42.858C258.69 42.186 258.937 41.6493 259.432 41.248C259.936 40.8373 260.724 40.632 261.798 40.632H263.73V40.52C263.73 39.9973 263.571 39.596 263.254 39.316C262.946 39.036 262.484 38.896 261.868 38.896C261.448 38.896 261.032 38.9613 260.622 39.092C260.22 39.2227 259.88 39.4047 259.6 39.638L258.914 38.364C259.306 38.0653 259.777 37.8367 260.328 37.678C260.878 37.5193 261.462 37.44 262.078 37.44ZM261.84 43.824C262.278 43.824 262.666 43.726 263.002 43.53C263.347 43.3247 263.59 43.0353 263.73 42.662V41.794H261.924C260.916 41.794 260.412 42.1253 260.412 42.788C260.412 43.1053 260.538 43.3573 260.79 43.544C261.042 43.7307 261.392 43.824 261.84 43.824ZM270.092 38.616C270.596 37.832 271.482 37.44 272.752 37.44V39.106C272.602 39.078 272.467 39.064 272.346 39.064C271.664 39.064 271.132 39.2647 270.75 39.666C270.367 40.058 270.176 40.6273 270.176 41.374V45H268.426V37.524H270.092V38.616ZM279.704 44.594C279.498 44.762 279.246 44.888 278.948 44.972C278.658 45.056 278.35 45.098 278.024 45.098C277.202 45.098 276.568 44.8833 276.12 44.454C275.672 44.0247 275.448 43.3993 275.448 42.578V38.98H274.216V37.58H275.448V35.872H277.198V37.58H279.2V38.98H277.198V42.536C277.198 42.9 277.286 43.18 277.464 43.376C277.641 43.5627 277.898 43.656 278.234 43.656C278.626 43.656 278.952 43.5533 279.214 43.348L279.704 44.594ZM281.843 37.524H283.593V45H281.843V37.524ZM282.725 36.292C282.408 36.292 282.142 36.194 281.927 35.998C281.712 35.7927 281.605 35.5407 281.605 35.242C281.605 34.9433 281.712 34.696 281.927 34.5C282.142 34.2947 282.408 34.192 282.725 34.192C283.042 34.192 283.308 34.29 283.523 34.486C283.738 34.6727 283.845 34.9107 283.845 35.2C283.845 35.508 283.738 35.7693 283.523 35.984C283.318 36.1893 283.052 36.292 282.725 36.292ZM291.084 44.594C290.879 44.762 290.627 44.888 290.328 44.972C290.039 45.056 289.731 45.098 289.404 45.098C288.583 45.098 287.948 44.8833 287.5 44.454C287.052 44.0247 286.828 43.3993 286.828 42.578V38.98H285.596V37.58H286.828V35.872H288.578V37.58H290.58V38.98H288.578V42.536C288.578 42.9 288.667 43.18 288.844 43.376C289.021 43.5627 289.278 43.656 289.614 43.656C290.006 43.656 290.333 43.5533 290.594 43.348L291.084 44.594ZM296.08 37.44C297.181 37.44 298.021 37.706 298.6 38.238C299.188 38.7607 299.482 39.554 299.482 40.618V45H297.83V44.09C297.615 44.4167 297.307 44.6687 296.906 44.846C296.514 45.014 296.038 45.098 295.478 45.098C294.918 45.098 294.428 45.0047 294.008 44.818C293.588 44.622 293.261 44.356 293.028 44.02C292.804 43.6747 292.692 43.2873 292.692 42.858C292.692 42.186 292.939 41.6493 293.434 41.248C293.938 40.8373 294.726 40.632 295.8 40.632H297.732V40.52C297.732 39.9973 297.573 39.596 297.256 39.316C296.948 39.036 296.486 38.896 295.87 38.896C295.45 38.896 295.034 38.9613 294.624 39.092C294.222 39.2227 293.882 39.4047 293.602 39.638L292.916 38.364C293.308 38.0653 293.779 37.8367 294.33 37.678C294.88 37.5193 295.464 37.44 296.08 37.44ZM295.842 43.824C296.28 43.824 296.668 43.726 297.004 43.53C297.349 43.3247 297.592 43.0353 297.732 42.662V41.794H295.926C294.918 41.794 294.414 42.1253 294.414 42.788C294.414 43.1053 294.54 43.3573 294.792 43.544C295.044 43.7307 295.394 43.824 295.842 43.824Z" fill="black"/>
<g filter="url(#filter0_d)">
<circle cx="22.5" cy="12.5" r="12.5" fill="black"/>
<line x1="19.0076" y1="11" x2="150.008" y2="12" stroke="black" stroke-width="2"/>
<line x1="152.008" y1="12" x2="274.008" y2="13" stroke="#E8E7E7" stroke-width="2"/>
<circle cx="273.5" cy="12.5" r="12.5" fill="#E8E7E7"/>
<circle cx="151.5" cy="12.5" r="12.5" fill="black"/>
</g>
<defs>
<filter id="filter0_d" x="6" y="0" width="284" height="33" filterUnits="userSpaceOnUse" color-interpolation-filters="sRGB">
<feFlood flood-opacity="0" result="BackgroundImageFix"/>
<feColorMatrix in="SourceAlpha" type="matrix" values="0 0 0 0 0 0 0 0 0 0 0 0 0 0 0 0 0 0 127 0"/>
<feOffset dy="4"/>
<feGaussianBlur stdDeviation="2"/>
<feColorMatrix type="matrix" values="0 0 0 0 0 0 0 0 0 0 0 0 0 0 0 0 0 0 0.25 0"/>
<feBlend mode="normal" in2="BackgroundImageFix" result="effect1_dropShadow"/>
<feBlend mode="normal" in="SourceGraphic" in2="effect1_dropShadow" result="shape"/>
</filter>
</defs>
</svg>
