<svg width="301" height="48" viewBox="0 0 301 48" fill="none" xmlns="http://www.w3.org/2000/svg">
<path d="M10.0375 35.2V45H8.21748V40.8H3.14948V45H1.32948V35.2H3.14948V39.246H8.21748V35.2H10.0375ZM16.5555 45.098C15.7995 45.098 15.1181 44.9347 14.5115 44.608C13.9048 44.2813 13.4288 43.8287 13.0835 43.25C12.7475 42.662 12.5795 41.9993 12.5795 41.262C12.5795 40.5247 12.7475 39.8667 13.0835 39.288C13.4288 38.7093 13.9048 38.2567 14.5115 37.93C15.1181 37.6033 15.7995 37.44 16.5555 37.44C17.3208 37.44 18.0068 37.6033 18.6135 37.93C19.2201 38.2567 19.6915 38.7093 20.0275 39.288C20.3728 39.8667 20.5455 40.5247 20.5455 41.262C20.5455 41.9993 20.3728 42.662 20.0275 43.25C19.6915 43.8287 19.2201 44.2813 18.6135 44.608C18.0068 44.9347 17.3208 45.098 16.5555 45.098ZM16.5555 43.6C17.1995 43.6 17.7315 43.3853 18.1515 42.956C18.5715 42.5267 18.7815 41.962 18.7815 41.262C18.7815 40.562 18.5715 39.9973 18.1515 39.568C17.7315 39.1387 17.1995 38.924 16.5555 38.924C15.9115 38.924 15.3795 39.1387 14.9595 39.568C14.5488 39.9973 14.3435 40.562 14.3435 41.262C14.3435 41.962 14.5488 42.5267 14.9595 42.956C15.3795 43.3853 15.9115 43.6 16.5555 43.6ZM32.3549 37.44C33.2976 37.44 34.0442 37.7153 34.5949 38.266C35.1456 38.8073 35.4209 39.624 35.4209 40.716V45H33.6709V40.94C33.6709 40.2867 33.5262 39.7967 33.2369 39.47C32.9476 39.134 32.5322 38.966 31.9909 38.966C31.4029 38.966 30.9316 39.162 30.5769 39.554C30.2222 39.9367 30.0449 40.4873 30.0449 41.206V45H28.2949V40.94C28.2949 40.2867 28.1502 39.7967 27.8609 39.47C27.5716 39.134 27.1562 38.966 26.6149 38.966C26.0176 38.966 25.5416 39.1573 25.1869 39.54C24.8416 39.9227 24.6689 40.478 24.6689 41.206V45H22.9189V37.524H24.5849V38.476C24.8649 38.14 25.2149 37.8833 25.6349 37.706C26.0549 37.5287 26.5216 37.44 27.0349 37.44C27.5949 37.44 28.0896 37.5473 28.5189 37.762C28.9576 37.9673 29.3029 38.2753 29.5549 38.686C29.8629 38.294 30.2596 37.9907 30.7449 37.776C31.2302 37.552 31.7669 37.44 32.3549 37.44ZM45.4535 41.304C45.4535 41.4253 45.4442 41.598 45.4255 41.822H39.5595C39.6622 42.3727 39.9282 42.8113 40.3575 43.138C40.7962 43.4553 41.3375 43.614 41.9815 43.614C42.8029 43.614 43.4795 43.3433 44.0115 42.802L44.9495 43.88C44.6135 44.2813 44.1889 44.5847 43.6755 44.79C43.1622 44.9953 42.5835 45.098 41.9395 45.098C41.1182 45.098 40.3949 44.9347 39.7695 44.608C39.1442 44.2813 38.6589 43.8287 38.3135 43.25C37.9775 42.662 37.8095 41.9993 37.8095 41.262C37.8095 40.534 37.9729 39.8807 38.2995 39.302C38.6355 38.714 39.0975 38.2567 39.6855 37.93C40.2735 37.6033 40.9362 37.44 41.6735 37.44C42.4015 37.44 43.0502 37.6033 43.6195 37.93C44.1982 38.2473 44.6462 38.7 44.9635 39.288C45.2902 39.8667 45.4535 40.5387 45.4535 41.304ZM41.6735 38.84C41.1135 38.84 40.6375 39.008 40.2455 39.344C39.8629 39.6707 39.6295 40.1093 39.5455 40.66H43.7875C43.7129 40.1187 43.4842 39.68 43.1015 39.344C42.7189 39.008 42.2429 38.84 41.6735 38.84Z" fill="black"/>
<path d="M109.35 45L109.336 38.504L106.116 43.88H105.304L102.084 38.588V45H100.348V35.2H101.846L105.738 41.696L109.56 35.2H111.058L111.072 45H109.35ZM117.612 45.098C116.856 45.098 116.174 44.9347 115.568 44.608C114.961 44.2813 114.485 43.8287 114.14 43.25C113.804 42.662 113.636 41.9993 113.636 41.262C113.636 40.5247 113.804 39.8667 114.14 39.288C114.485 38.7093 114.961 38.2567 115.568 37.93C116.174 37.6033 116.856 37.44 117.612 37.44C118.377 37.44 119.063 37.6033 119.67 37.93C120.276 38.2567 120.748 38.7093 121.084 39.288C121.429 39.8667 121.602 40.5247 121.602 41.262C121.602 41.9993 121.429 42.662 121.084 43.25C120.748 43.8287 120.276 44.2813 119.67 44.608C119.063 44.9347 118.377 45.098 117.612 45.098ZM117.612 43.6C118.256 43.6 118.788 43.3853 119.208 42.956C119.628 42.5267 119.838 41.962 119.838 41.262C119.838 40.562 119.628 39.9973 119.208 39.568C118.788 39.1387 118.256 38.924 117.612 38.924C116.968 38.924 116.436 39.1387 116.016 39.568C115.605 39.9973 115.4 40.562 115.4 41.262C115.4 41.962 115.605 42.5267 116.016 42.956C116.436 43.3853 116.968 43.6 117.612 43.6ZM131.297 34.612V45H129.617V44.034C129.328 44.3887 128.968 44.6547 128.539 44.832C128.119 45.0093 127.652 45.098 127.139 45.098C126.42 45.098 125.772 44.9393 125.193 44.622C124.624 44.3047 124.176 43.8567 123.849 43.278C123.522 42.69 123.359 42.018 123.359 41.262C123.359 40.506 123.522 39.8387 123.849 39.26C124.176 38.6813 124.624 38.2333 125.193 37.916C125.772 37.5987 126.42 37.44 127.139 37.44C127.634 37.44 128.086 37.524 128.497 37.692C128.908 37.86 129.258 38.112 129.547 38.448V34.612H131.297ZM127.349 43.6C127.769 43.6 128.147 43.5067 128.483 43.32C128.819 43.124 129.085 42.8487 129.281 42.494C129.477 42.1393 129.575 41.7287 129.575 41.262C129.575 40.7953 129.477 40.3847 129.281 40.03C129.085 39.6753 128.819 39.4047 128.483 39.218C128.147 39.022 127.769 38.924 127.349 38.924C126.929 38.924 126.551 39.022 126.215 39.218C125.879 39.4047 125.613 39.6753 125.417 40.03C125.221 40.3847 125.123 40.7953 125.123 41.262C125.123 41.7287 125.221 42.1393 125.417 42.494C125.613 42.8487 125.879 43.124 126.215 43.32C126.551 43.5067 126.929 43.6 127.349 43.6ZM137.142 37.44C138.244 37.44 139.084 37.706 139.662 38.238C140.25 38.7607 140.544 39.554 140.544 40.618V45H138.892V44.09C138.678 44.4167 138.37 44.6687 137.968 44.846C137.576 45.014 137.1 45.098 136.54 45.098C135.98 45.098 135.49 45.0047 135.07 44.818C134.65 44.622 134.324 44.356 134.09 44.02C133.866 43.6747 133.754 43.2873 133.754 42.858C133.754 42.186 134.002 41.6493 134.496 41.248C135 40.8373 135.789 40.632 136.862 40.632H138.794V40.52C138.794 39.9973 138.636 39.596 138.318 39.316C138.01 39.036 137.548 38.896 136.932 38.896C136.512 38.896 136.097 38.9613 135.686 39.092C135.285 39.2227 134.944 39.4047 134.664 39.638L133.978 38.364C134.37 38.0653 134.842 37.8367 135.392 37.678C135.943 37.5193 136.526 37.44 137.142 37.44ZM136.904 43.824C137.343 43.824 137.73 43.726 138.066 43.53C138.412 43.3247 138.654 43.0353 138.794 42.662V41.794H136.988C135.98 41.794 135.476 42.1253 135.476 42.788C135.476 43.1053 135.602 43.3573 135.854 43.544C136.106 43.7307 136.456 43.824 136.904 43.824ZM143.49 34.612H145.24V45H143.49V34.612ZM148.237 37.524H149.987V45H148.237V37.524ZM149.119 36.292C148.802 36.292 148.536 36.194 148.321 35.998C148.106 35.7927 147.999 35.5407 147.999 35.242C147.999 34.9433 148.106 34.696 148.321 34.5C148.536 34.2947 148.802 34.192 149.119 34.192C149.436 34.192 149.702 34.29 149.917 34.486C150.132 34.6727 150.239 34.9107 150.239 35.2C150.239 35.508 150.132 35.7693 149.917 35.984C149.712 36.1893 149.446 36.292 149.119 36.292ZM157.478 44.594C157.273 44.762 157.021 44.888 156.722 44.972C156.433 45.056 156.125 45.098 155.798 45.098C154.977 45.098 154.342 44.8833 153.894 44.454C153.446 44.0247 153.222 43.3993 153.222 42.578V38.98H151.99V37.58H153.222V35.872H154.972V37.58H156.974V38.98H154.972V42.536C154.972 42.9 155.061 43.18 155.238 43.376C155.415 43.5627 155.672 43.656 156.008 43.656C156.4 43.656 156.727 43.5533 156.988 43.348L157.478 44.594ZM162.474 37.44C163.575 37.44 164.415 37.706 164.994 38.238C165.582 38.7607 165.876 39.554 165.876 40.618V45H164.224V44.09C164.009 44.4167 163.701 44.6687 163.3 44.846C162.908 45.014 162.432 45.098 161.872 45.098C161.312 45.098 160.822 45.0047 160.402 44.818C159.982 44.622 159.655 44.356 159.422 44.02C159.198 43.6747 159.086 43.2873 159.086 42.858C159.086 42.186 159.333 41.6493 159.828 41.248C160.332 40.8373 161.12 40.632 162.194 40.632H164.126V40.52C164.126 39.9973 163.967 39.596 163.65 39.316C163.342 39.036 162.88 38.896 162.264 38.896C161.844 38.896 161.428 38.9613 161.018 39.092C160.616 39.2227 160.276 39.4047 159.996 39.638L159.31 38.364C159.702 38.0653 160.173 37.8367 160.724 37.678C161.274 37.5193 161.858 37.44 162.474 37.44ZM162.236 43.824C162.674 43.824 163.062 43.726 163.398 43.53C163.743 43.3247 163.986 43.0353 164.126 42.662V41.794H162.32C161.312 41.794 160.808 42.1253 160.808 42.788C160.808 43.1053 160.934 43.3573 161.186 43.544C161.438 43.7307 161.788 43.824 162.236 43.824ZM159.856 34.584H161.914L163.804 36.502H162.292L159.856 34.584ZM180.699 37.524V47.716H178.949V44.09C178.361 44.762 177.563 45.098 176.555 45.098C175.827 45.098 175.173 44.9393 174.595 44.622C174.025 44.3047 173.577 43.8567 173.251 43.278C172.933 42.6993 172.775 42.0273 172.775 41.262C172.775 40.506 172.938 39.8387 173.265 39.26C173.591 38.6813 174.039 38.2333 174.609 37.916C175.178 37.5987 175.827 37.44 176.555 37.44C177.068 37.44 177.535 37.5287 177.955 37.706C178.384 37.8833 178.743 38.1493 179.033 38.504V37.524H180.699ZM176.751 43.6C177.395 43.6 177.927 43.3853 178.347 42.956C178.767 42.5267 178.977 41.962 178.977 41.262C178.977 40.562 178.767 39.9973 178.347 39.568C177.927 39.1387 177.395 38.924 176.751 38.924C176.107 38.924 175.575 39.1387 175.155 39.568C174.744 39.9973 174.539 40.562 174.539 41.262C174.539 41.962 174.744 42.5267 175.155 42.956C175.575 43.3853 176.107 43.6 176.751 43.6ZM190.926 37.524V45H189.26V44.048C188.98 44.384 188.63 44.6453 188.21 44.832C187.79 45.0093 187.338 45.098 186.852 45.098C185.854 45.098 185.065 44.8227 184.486 44.272C183.917 43.712 183.632 42.886 183.632 41.794V37.524H185.382V41.556C185.382 42.228 185.532 42.732 185.83 43.068C186.138 43.3947 186.572 43.558 187.132 43.558C187.758 43.558 188.252 43.3667 188.616 42.984C188.99 42.592 189.176 42.032 189.176 41.304V37.524H190.926ZM193.918 37.524H195.668V45H193.918V37.524ZM194.8 36.292C194.482 36.292 194.216 36.194 194.002 35.998C193.787 35.7927 193.68 35.5407 193.68 35.242C193.68 34.9433 193.787 34.696 194.002 34.5C194.216 34.2947 194.482 34.192 194.8 34.192C195.117 34.192 195.383 34.29 195.598 34.486C195.812 34.6727 195.92 34.9107 195.92 35.2C195.92 35.508 195.812 35.7693 195.598 35.984C195.392 36.1893 195.126 36.292 194.8 36.292ZM204.502 43.6V45H198.048V43.894L202.15 38.924H198.132V37.524H204.39V38.63L200.274 43.6H204.502Z" fill="black"/>
<path d="M252.769 35.2C253.618 35.2 254.355 35.34 254.981 35.62C255.615 35.9 256.101 36.3013 256.437 36.824C256.773 37.3467 256.941 37.9673 256.941 38.686C256.941 39.3953 256.773 40.016 256.437 40.548C256.101 41.0707 255.615 41.472 254.981 41.752C254.355 42.032 253.618 42.172 252.769 42.172H250.557V45H248.737V35.2H252.769ZM252.685 40.632C253.478 40.632 254.08 40.464 254.491 40.128C254.901 39.792 255.107 39.3113 255.107 38.686C255.107 38.0607 254.901 37.58 254.491 37.244C254.08 36.908 253.478 36.74 252.685 36.74H250.557V40.632H252.685ZM262.078 37.44C263.179 37.44 264.019 37.706 264.598 38.238C265.186 38.7607 265.48 39.554 265.48 40.618V45H263.828V44.09C263.613 44.4167 263.305 44.6687 262.904 44.846C262.512 45.014 262.036 45.098 261.476 45.098C260.916 45.098 260.426 45.0047 260.006 44.818C259.586 44.622 259.259 44.356 259.026 44.02C258.802 43.6747 258.69 43.2873 258.69 42.858C258.69 42.186 258.937 41.6493 259.432 41.248C259.936 40.8373 260.724 40.632 261.798 40.632H263.73V40.52C263.73 39.9973 263.571 39.596 263.254 39.316C262.946 39.036 262.484 38.896 261.868 38.896C261.448 38.896 261.032 38.9613 260.622 39.092C260.22 39.2227 259.88 39.4047 259.6 39.638L258.914 38.364C259.306 38.0653 259.777 37.8367 260.328 37.678C260.878 37.5193 261.462 37.44 262.078 37.44ZM261.84 43.824C262.278 43.824 262.666 43.726 263.002 43.53C263.347 43.3247 263.59 43.0353 263.73 42.662V41.794H261.924C260.916 41.794 260.412 42.1253 260.412 42.788C260.412 43.1053 260.538 43.3573 260.79 43.544C261.042 43.7307 261.392 43.824 261.84 43.824ZM270.092 38.616C270.596 37.832 271.482 37.44 272.752 37.44V39.106C272.602 39.078 272.467 39.064 272.346 39.064C271.664 39.064 271.132 39.2647 270.75 39.666C270.367 40.058 270.176 40.6273 270.176 41.374V45H268.426V37.524H270.092V38.616ZM279.704 44.594C279.498 44.762 279.246 44.888 278.948 44.972C278.658 45.056 278.35 45.098 278.024 45.098C277.202 45.098 276.568 44.8833 276.12 44.454C275.672 44.0247 275.448 43.3993 275.448 42.578V38.98H274.216V37.58H275.448V35.872H277.198V37.58H279.2V38.98H277.198V42.536C277.198 42.9 277.286 43.18 277.464 43.376C277.641 43.5627 277.898 43.656 278.234 43.656C278.626 43.656 278.952 43.5533 279.214 43.348L279.704 44.594ZM281.843 37.524H283.593V45H281.843V37.524ZM282.725 36.292C282.408 36.292 282.142 36.194 281.927 35.998C281.712 35.7927 281.605 35.5407 281.605 35.242C281.605 34.9433 281.712 34.696 281.927 34.5C282.142 34.2947 282.408 34.192 282.725 34.192C283.042 34.192 283.308 34.29 283.523 34.486C283.738 34.6727 283.845 34.9107 283.845 35.2C283.845 35.508 283.738 35.7693 283.523 35.984C283.318 36.1893 283.052 36.292 282.725 36.292ZM291.084 44.594C290.879 44.762 290.627 44.888 290.328 44.972C290.039 45.056 289.731 45.098 289.404 45.098C288.583 45.098 287.948 44.8833 287.5 44.454C287.052 44.0247 286.828 43.3993 286.828 42.578V38.98H285.596V37.58H286.828V35.872H288.578V37.58H290.58V38.98H288.578V42.536C288.578 42.9 288.667 43.18 288.844 43.376C289.021 43.5627 289.278 43.656 289.614 43.656C290.006 43.656 290.333 43.5533 290.594 43.348L291.084 44.594ZM296.08 37.44C297.181 37.44 298.021 37.706 298.6 38.238C299.188 38.7607 299.482 39.554 299.482 40.618V45H297.83V44.09C297.615 44.4167 297.307 44.6687 296.906 44.846C296.514 45.014 296.038 45.098 295.478 45.098C294.918 45.098 294.428 45.0047 294.008 44.818C293.588 44.622 293.261 44.356 293.028 44.02C292.804 43.6747 292.692 43.2873 292.692 42.858C292.692 42.186 292.939 41.6493 293.434 41.248C293.938 40.8373 294.726 40.632 295.8 40.632H297.732V40.52C297.732 39.9973 297.573 39.596 297.256 39.316C296.948 39.036 296.486 38.896 295.87 38.896C295.45 38.896 295.034 38.9613 294.624 39.092C294.222 39.2227 293.882 39.4047 293.602 39.638L292.916 38.364C293.308 38.0653 293.779 37.8367 294.33 37.678C294.88 37.5193 295.464 37.44 296.08 37.44ZM295.842 43.824C296.28 43.824 296.668 43.726 297.004 43.53C297.349 43.3247 297.592 43.0353 297.732 42.662V41.794H295.926C294.918 41.794 294.414 42.1253 294.414 42.788C294.414 43.1053 294.54 43.3573 294.792 43.544C295.044 43.7307 295.394 43.824 295.842 43.824Z" fill="black"/>
<g filter="url(#filter0_d)">
<circle cx="22.5" cy="12.5" r="12.5" fill="black"/>
<line x1="19.0076" y1="11" x2="150.008" y2="12" stroke="black" stroke-width="2"/>
<line x1="152.008" y1="12" x2="274.008" y2="13" stroke="#E8E7E7" stroke-width="2"/>
<circle cx="273.5" cy="12.5" r="12.5" fill="#E8E7E7"/>
<circle cx="151.5" cy="12.5" r="12.5" fill="black"/>
</g>
<defs>
<filter id="filter0_d" x="6" y="0" width="284" height="33" filterUnits="userSpaceOnUse" color-interpolation-filters="sRGB">
<feFlood flood-opacity="0" result="BackgroundImageFix"/>
<feColorMatrix in="SourceAlpha" type="matrix" values="0 0 0 0 0 0 0 0 0 0 0 0 0 0 0 0 0 0 127 0"/>
<feOffset dy="4"/>
<feGaussianBlur stdDeviation="2"/>
<feColorMatrix type="matrix" values="0 0 0 0 0 0 0 0 0 0 0 0 0 0 0 0 0 0 0.25 0"/>
<feBlend mode="normal" in2="BackgroundImageFix" result="effect1_dropShadow"/>
<feBlend mode="normal" in="SourceGraphic" in2="effect1_dropShadow" result="shape"/>
</filter>
</defs>
</svg>
