<svg width="301" height="48" viewBox="0 0 301 48" fill="none" xmlns="http://www.w3.org/2000/svg">
<path d="M10.0375 35.2V45H8.21748V40.8H3.14948V45H1.32948V35.2H3.14948V39.246H8.21748V35.2H10.0375ZM16.5555 45.098C15.7995 45.098 15.1181 44.9347 14.5115 44.608C13.9048 44.2813 13.4288 43.8287 13.0835 43.25C12.7475 42.662 12.5795 41.9993 12.5795 41.262C12.5795 40.5247 12.7475 39.8667 13.0835 39.288C13.4288 38.7093 13.9048 38.2567 14.5115 37.93C15.1181 37.6033 15.7995 37.44 16.5555 37.44C17.3208 37.44 18.0068 37.6033 18.6135 37.93C19.2201 38.2567 19.6915 38.7093 20.0275 39.288C20.3728 39.8667 20.5455 40.5247 20.5455 41.262C20.5455 41.9993 20.3728 42.662 20.0275 43.25C19.6915 43.8287 19.2201 44.2813 18.6135 44.608C18.0068 44.9347 17.3208 45.098 16.5555 45.098ZM16.5555 43.6C17.1995 43.6 17.7315 43.3853 18.1515 42.956C18.5715 42.5267 18.7815 41.962 18.7815 41.262C18.7815 40.562 18.5715 39.9973 18.1515 39.568C17.7315 39.1387 17.1995 38.924 16.5555 38.924C15.9115 38.924 15.3795 39.1387 14.9595 39.568C14.5488 39.9973 14.3435 40.562 14.3435 41.262C14.3435 41.962 14.5488 42.5267 14.9595 42.956C15.3795 43.3853 15.9115 43.6 16.5555 43.6ZM32.3549 37.44C33.2976 37.44 34.0442 37.7153 34.5949 38.266C35.1456 38.8073 35.4209 39.624 35.4209 40.716V45H33.6709V40.94C33.6709 40.2867 33.5262 39.7967 33.2369 39.47C32.9476 39.134 32.5322 38.966 31.9909 38.966C31.4029 38.966 30.9316 39.162 30.5769 39.554C30.2222 39.9367 30.0449 40.4873 30.0449 41.206V45H28.2949V40.94C28.2949 40.2867 28.1502 39.7967 27.8609 39.47C27.5716 39.134 27.1562 38.966 26.6149 38.966C26.0176 38.966 25.5416 39.1573 25.1869 39.54C24.8416 39.9227 24.6689 40.478 24.6689 41.206V45H22.9189V37.524H24.5849V38.476C24.8649 38.14 25.2149 37.8833 25.6349 37.706C26.0549 37.5287 26.5216 37.44 27.0349 37.44C27.5949 37.44 28.0896 37.5473 28.5189 37.762C28.9576 37.9673 29.3029 38.2753 29.5549 38.686C29.8629 38.294 30.2596 37.9907 30.7449 37.776C31.2302 37.552 31.7669 37.44 32.3549 37.44ZM45.4535 41.304C45.4535 41.4253 45.4442 41.598 45.4255 41.822H39.5595C39.6622 42.3727 39.9282 42.8113 40.3575 43.138C40.7962 43.4553 41.3375 43.614 41.9815 43.614C42.8029 43.614 43.4795 43.3433 44.0115 42.802L44.9495 43.88C44.6135 44.2813 44.1889 44.5847 43.6755 44.79C43.1622 44.9953 42.5835 45.098 41.9395 45.098C41.1182 45.098 40.3949 44.9347 39.7695 44.608C39.1442 44.2813 38.6589 43.8287 38.3135 43.25C37.9775 42.662 37.8095 41.9993 37.8095 41.262C37.8095 40.534 37.9729 39.8807 38.2995 39.302C38.6355 38.714 39.0975 38.2567 39.6855 37.93C40.2735 37.6033 40.9362 37.44 41.6735 37.44C42.4015 37.44 43.0502 37.6033 43.6195 37.93C44.1982 38.2473 44.6462 38.7 44.9635 39.288C45.2902 39.8667 45.4535 40.5387 45.4535 41.304ZM41.6735 38.84C41.1135 38.84 40.6375 39.008 40.2455 39.344C39.8629 39.6707 39.6295 40.1093 39.5455 40.66H43.7875C43.7129 40.1187 43.4842 39.68 43.1015 39.344C42.7189 39.008 42.2429 38.84 41.6735 38.84Z" fill="black"/>
<path d="M95.4065 45L95.3925 38.504L92.1725 43.88H91.3605L88.1405 38.588V45H86.4045V35.2H87.9025L91.7945 41.696L95.6165 35.2H97.1145L97.1285 45H95.4065ZM103.668 45.098C102.912 45.098 102.23 44.9347 101.624 44.608C101.017 44.2813 100.541 43.8287 100.196 43.25C99.8596 42.662 99.6916 41.9993 99.6916 41.262C99.6916 40.5247 99.8596 39.8667 100.196 39.288C100.541 38.7093 101.017 38.2567 101.624 37.93C102.23 37.6033 102.912 37.44 103.668 37.44C104.433 37.44 105.119 37.6033 105.726 37.93C106.332 38.2567 106.804 38.7093 107.14 39.288C107.485 39.8667 107.658 40.5247 107.658 41.262C107.658 41.9993 107.485 42.662 107.14 43.25C106.804 43.8287 106.332 44.2813 105.726 44.608C105.119 44.9347 104.433 45.098 103.668 45.098ZM103.668 43.6C104.312 43.6 104.844 43.3853 105.264 42.956C105.684 42.5267 105.894 41.962 105.894 41.262C105.894 40.562 105.684 39.9973 105.264 39.568C104.844 39.1387 104.312 38.924 103.668 38.924C103.024 38.924 102.492 39.1387 102.072 39.568C101.661 39.9973 101.456 40.562 101.456 41.262C101.456 41.962 101.661 42.5267 102.072 42.956C102.492 43.3853 103.024 43.6 103.668 43.6ZM117.353 34.612V45H115.673V44.034C115.384 44.3887 115.024 44.6547 114.595 44.832C114.175 45.0093 113.708 45.098 113.195 45.098C112.476 45.098 111.828 44.9393 111.249 44.622C110.68 44.3047 110.232 43.8567 109.905 43.278C109.578 42.69 109.415 42.018 109.415 41.262C109.415 40.506 109.578 39.8387 109.905 39.26C110.232 38.6813 110.68 38.2333 111.249 37.916C111.828 37.5987 112.476 37.44 113.195 37.44C113.69 37.44 114.142 37.524 114.553 37.692C114.964 37.86 115.314 38.112 115.603 38.448V34.612H117.353ZM113.405 43.6C113.825 43.6 114.203 43.5067 114.539 43.32C114.875 43.124 115.141 42.8487 115.337 42.494C115.533 42.1393 115.631 41.7287 115.631 41.262C115.631 40.7953 115.533 40.3847 115.337 40.03C115.141 39.6753 114.875 39.4047 114.539 39.218C114.203 39.022 113.825 38.924 113.405 38.924C112.985 38.924 112.607 39.022 112.271 39.218C111.935 39.4047 111.669 39.6753 111.473 40.03C111.277 40.3847 111.179 40.7953 111.179 41.262C111.179 41.7287 111.277 42.1393 111.473 42.494C111.669 42.8487 111.935 43.124 112.271 43.32C112.607 43.5067 112.985 43.6 113.405 43.6ZM123.198 37.44C124.3 37.44 125.14 37.706 125.718 38.238C126.306 38.7607 126.6 39.554 126.6 40.618V45H124.948V44.09C124.734 44.4167 124.426 44.6687 124.024 44.846C123.632 45.014 123.156 45.098 122.596 45.098C122.036 45.098 121.546 45.0047 121.126 44.818C120.706 44.622 120.38 44.356 120.146 44.02C119.922 43.6747 119.81 43.2873 119.81 42.858C119.81 42.186 120.058 41.6493 120.552 41.248C121.056 40.8373 121.845 40.632 122.918 40.632H124.85V40.52C124.85 39.9973 124.692 39.596 124.374 39.316C124.066 39.036 123.604 38.896 122.988 38.896C122.568 38.896 122.153 38.9613 121.742 39.092C121.341 39.2227 121 39.4047 120.72 39.638L120.034 38.364C120.426 38.0653 120.898 37.8367 121.448 37.678C121.999 37.5193 122.582 37.44 123.198 37.44ZM122.96 43.824C123.399 43.824 123.786 43.726 124.122 43.53C124.468 43.3247 124.71 43.0353 124.85 42.662V41.794H123.044C122.036 41.794 121.532 42.1253 121.532 42.788C121.532 43.1053 121.658 43.3573 121.91 43.544C122.162 43.7307 122.512 43.824 122.96 43.824ZM129.546 34.612H131.296V45H129.546V34.612ZM134.293 37.524H136.043V45H134.293V37.524ZM135.175 36.292C134.858 36.292 134.592 36.194 134.377 35.998C134.162 35.7927 134.055 35.5407 134.055 35.242C134.055 34.9433 134.162 34.696 134.377 34.5C134.592 34.2947 134.858 34.192 135.175 34.192C135.492 34.192 135.758 34.29 135.973 34.486C136.188 34.6727 136.295 34.9107 136.295 35.2C136.295 35.508 136.188 35.7693 135.973 35.984C135.768 36.1893 135.502 36.292 135.175 36.292ZM143.534 44.594C143.329 44.762 143.077 44.888 142.778 44.972C142.489 45.056 142.181 45.098 141.854 45.098C141.033 45.098 140.398 44.8833 139.95 44.454C139.502 44.0247 139.278 43.3993 139.278 42.578V38.98H138.046V37.58H139.278V35.872H141.028V37.58H143.03V38.98H141.028V42.536C141.028 42.9 141.117 43.18 141.294 43.376C141.471 43.5627 141.728 43.656 142.064 43.656C142.456 43.656 142.783 43.5533 143.044 43.348L143.534 44.594ZM148.53 37.44C149.631 37.44 150.471 37.706 151.05 38.238C151.638 38.7607 151.932 39.554 151.932 40.618V45H150.28V44.09C150.065 44.4167 149.757 44.6687 149.356 44.846C148.964 45.014 148.488 45.098 147.928 45.098C147.368 45.098 146.878 45.0047 146.458 44.818C146.038 44.622 145.711 44.356 145.478 44.02C145.254 43.6747 145.142 43.2873 145.142 42.858C145.142 42.186 145.389 41.6493 145.884 41.248C146.388 40.8373 147.176 40.632 148.25 40.632H150.182V40.52C150.182 39.9973 150.023 39.596 149.706 39.316C149.398 39.036 148.936 38.896 148.32 38.896C147.9 38.896 147.484 38.9613 147.074 39.092C146.672 39.2227 146.332 39.4047 146.052 39.638L145.366 38.364C145.758 38.0653 146.229 37.8367 146.78 37.678C147.33 37.5193 147.914 37.44 148.53 37.44ZM148.292 43.824C148.73 43.824 149.118 43.726 149.454 43.53C149.799 43.3247 150.042 43.0353 150.182 42.662V41.794H148.376C147.368 41.794 146.864 42.1253 146.864 42.788C146.864 43.1053 146.99 43.3573 147.242 43.544C147.494 43.7307 147.844 43.824 148.292 43.824ZM145.912 34.584H147.97L149.86 36.502H148.348L145.912 34.584ZM162.877 45.098C162.102 45.098 161.407 44.9347 160.791 44.608C160.175 44.2813 159.694 43.8287 159.349 43.25C159.003 42.662 158.831 41.9993 158.831 41.262C158.831 40.5247 159.003 39.8667 159.349 39.288C159.694 38.7093 160.17 38.2567 160.777 37.93C161.393 37.6033 162.093 37.44 162.877 37.44C163.614 37.44 164.258 37.5893 164.809 37.888C165.369 38.1867 165.789 38.616 166.069 39.176L164.725 39.96C164.51 39.6147 164.239 39.358 163.913 39.19C163.595 39.0127 163.245 38.924 162.863 38.924C162.209 38.924 161.668 39.1387 161.239 39.568C160.809 39.988 160.595 40.5527 160.595 41.262C160.595 41.9713 160.805 42.5407 161.225 42.97C161.654 43.39 162.2 43.6 162.863 43.6C163.245 43.6 163.595 43.516 163.913 43.348C164.239 43.1707 164.51 42.9093 164.725 42.564L166.069 43.348C165.779 43.908 165.355 44.342 164.795 44.65C164.244 44.9487 163.605 45.098 162.877 45.098ZM168.213 34.612H169.963V45H168.213V34.612ZM175.816 37.44C176.917 37.44 177.757 37.706 178.336 38.238C178.924 38.7607 179.218 39.554 179.218 40.618V45H177.566V44.09C177.351 44.4167 177.043 44.6687 176.642 44.846C176.25 45.014 175.774 45.098 175.214 45.098C174.654 45.098 174.164 45.0047 173.744 44.818C173.324 44.622 172.997 44.356 172.764 44.02C172.54 43.6747 172.428 43.2873 172.428 42.858C172.428 42.186 172.675 41.6493 173.17 41.248C173.674 40.8373 174.463 40.632 175.536 40.632H177.468V40.52C177.468 39.9973 177.309 39.596 176.992 39.316C176.684 39.036 176.222 38.896 175.606 38.896C175.186 38.896 174.771 38.9613 174.36 39.092C173.959 39.2227 173.618 39.4047 173.338 39.638L172.652 38.364C173.044 38.0653 173.515 37.8367 174.066 37.678C174.617 37.5193 175.2 37.44 175.816 37.44ZM175.578 43.824C176.017 43.824 176.404 43.726 176.74 43.53C177.085 43.3247 177.328 43.0353 177.468 42.662V41.794H175.662C174.654 41.794 174.15 42.1253 174.15 42.788C174.15 43.1053 174.276 43.3573 174.528 43.544C174.78 43.7307 175.13 43.824 175.578 43.824ZM184.474 45.098C183.867 45.098 183.274 45.0187 182.696 44.86C182.117 44.7013 181.655 44.5007 181.31 44.258L181.982 42.928C182.318 43.152 182.719 43.334 183.186 43.474C183.662 43.6047 184.128 43.67 184.586 43.67C185.631 43.67 186.154 43.3947 186.154 42.844C186.154 42.5827 186.018 42.4007 185.748 42.298C185.486 42.1953 185.062 42.0973 184.474 42.004C183.858 41.9107 183.354 41.8033 182.962 41.682C182.579 41.5607 182.243 41.3507 181.954 41.052C181.674 40.744 181.534 40.3193 181.534 39.778C181.534 39.0687 181.828 38.504 182.416 38.084C183.013 37.6547 183.816 37.44 184.824 37.44C185.337 37.44 185.85 37.5007 186.364 37.622C186.877 37.734 187.297 37.888 187.624 38.084L186.952 39.414C186.317 39.0407 185.603 38.854 184.81 38.854C184.296 38.854 183.904 38.9333 183.634 39.092C183.372 39.2413 183.242 39.442 183.242 39.694C183.242 39.974 183.382 40.1747 183.662 40.296C183.951 40.408 184.394 40.5153 184.992 40.618C185.589 40.7113 186.079 40.8187 186.462 40.94C186.844 41.0613 187.171 41.2667 187.442 41.556C187.722 41.8453 187.862 42.256 187.862 42.788C187.862 43.488 187.558 44.048 186.952 44.468C186.345 44.888 185.519 45.098 184.474 45.098ZM192.379 45.098C191.772 45.098 191.18 45.0187 190.601 44.86C190.022 44.7013 189.56 44.5007 189.215 44.258L189.887 42.928C190.223 43.152 190.624 43.334 191.091 43.474C191.567 43.6047 192.034 43.67 192.491 43.67C193.536 43.67 194.059 43.3947 194.059 42.844C194.059 42.5827 193.924 42.4007 193.653 42.298C193.392 42.1953 192.967 42.0973 192.379 42.004C191.763 41.9107 191.259 41.8033 190.867 41.682C190.484 41.5607 190.148 41.3507 189.859 41.052C189.579 40.744 189.439 40.3193 189.439 39.778C189.439 39.0687 189.733 38.504 190.321 38.084C190.918 37.6547 191.721 37.44 192.729 37.44C193.242 37.44 193.756 37.5007 194.269 37.622C194.782 37.734 195.202 37.888 195.529 38.084L194.857 39.414C194.222 39.0407 193.508 38.854 192.715 38.854C192.202 38.854 191.81 38.9333 191.539 39.092C191.278 39.2413 191.147 39.442 191.147 39.694C191.147 39.974 191.287 40.1747 191.567 40.296C191.856 40.408 192.3 40.5153 192.897 40.618C193.494 40.7113 193.984 40.8187 194.367 40.94C194.75 41.0613 195.076 41.2667 195.347 41.556C195.627 41.8453 195.767 42.256 195.767 42.788C195.767 43.488 195.464 44.048 194.857 44.468C194.25 44.888 193.424 45.098 192.379 45.098ZM197.974 37.524H199.724V45H197.974V37.524ZM198.856 36.292C198.539 36.292 198.273 36.194 198.058 35.998C197.843 35.7927 197.736 35.5407 197.736 35.242C197.736 34.9433 197.843 34.696 198.058 34.5C198.273 34.2947 198.539 34.192 198.856 34.192C199.173 34.192 199.439 34.29 199.654 34.486C199.869 34.6727 199.976 34.9107 199.976 35.2C199.976 35.508 199.869 35.7693 199.654 35.984C199.449 36.1893 199.183 36.292 198.856 36.292ZM206.151 45.098C205.376 45.098 204.681 44.9347 204.065 44.608C203.449 44.2813 202.968 43.8287 202.623 43.25C202.278 42.662 202.105 41.9993 202.105 41.262C202.105 40.5247 202.278 39.8667 202.623 39.288C202.968 38.7093 203.444 38.2567 204.051 37.93C204.667 37.6033 205.367 37.44 206.151 37.44C206.888 37.44 207.532 37.5893 208.083 37.888C208.643 38.1867 209.063 38.616 209.343 39.176L207.999 39.96C207.784 39.6147 207.514 39.358 207.187 39.19C206.87 39.0127 206.52 38.924 206.137 38.924C205.484 38.924 204.942 39.1387 204.513 39.568C204.084 39.988 203.869 40.5527 203.869 41.262C203.869 41.9713 204.079 42.5407 204.499 42.97C204.928 43.39 205.474 43.6 206.137 43.6C206.52 43.6 206.87 43.516 207.187 43.348C207.514 43.1707 207.784 42.9093 207.999 42.564L209.343 43.348C209.054 43.908 208.629 44.342 208.069 44.65C207.518 44.9487 206.879 45.098 206.151 45.098ZM214.412 37.44C215.513 37.44 216.353 37.706 216.932 38.238C217.52 38.7607 217.814 39.554 217.814 40.618V45H216.162V44.09C215.947 44.4167 215.639 44.6687 215.238 44.846C214.846 45.014 214.37 45.098 213.81 45.098C213.25 45.098 212.76 45.0047 212.34 44.818C211.92 44.622 211.593 44.356 211.36 44.02C211.136 43.6747 211.024 43.2873 211.024 42.858C211.024 42.186 211.271 41.6493 211.766 41.248C212.27 40.8373 213.058 40.632 214.132 40.632H216.064V40.52C216.064 39.9973 215.905 39.596 215.588 39.316C215.28 39.036 214.818 38.896 214.202 38.896C213.782 38.896 213.366 38.9613 212.956 39.092C212.554 39.2227 212.214 39.4047 211.934 39.638L211.248 38.364C211.64 38.0653 212.111 37.8367 212.662 37.678C213.212 37.5193 213.796 37.44 214.412 37.44ZM214.174 43.824C214.612 43.824 215 43.726 215.336 43.53C215.681 43.3247 215.924 43.0353 216.064 42.662V41.794H214.258C213.25 41.794 212.746 42.1253 212.746 42.788C212.746 43.1053 212.872 43.3573 213.124 43.544C213.376 43.7307 213.726 43.824 214.174 43.824Z" fill="black"/>
<path d="M252.769 35.2C253.618 35.2 254.355 35.34 254.981 35.62C255.615 35.9 256.101 36.3013 256.437 36.824C256.773 37.3467 256.941 37.9673 256.941 38.686C256.941 39.3953 256.773 40.016 256.437 40.548C256.101 41.0707 255.615 41.472 254.981 41.752C254.355 42.032 253.618 42.172 252.769 42.172H250.557V45H248.737V35.2H252.769ZM252.685 40.632C253.478 40.632 254.08 40.464 254.491 40.128C254.901 39.792 255.107 39.3113 255.107 38.686C255.107 38.0607 254.901 37.58 254.491 37.244C254.08 36.908 253.478 36.74 252.685 36.74H250.557V40.632H252.685ZM262.078 37.44C263.179 37.44 264.019 37.706 264.598 38.238C265.186 38.7607 265.48 39.554 265.48 40.618V45H263.828V44.09C263.613 44.4167 263.305 44.6687 262.904 44.846C262.512 45.014 262.036 45.098 261.476 45.098C260.916 45.098 260.426 45.0047 260.006 44.818C259.586 44.622 259.259 44.356 259.026 44.02C258.802 43.6747 258.69 43.2873 258.69 42.858C258.69 42.186 258.937 41.6493 259.432 41.248C259.936 40.8373 260.724 40.632 261.798 40.632H263.73V40.52C263.73 39.9973 263.571 39.596 263.254 39.316C262.946 39.036 262.484 38.896 261.868 38.896C261.448 38.896 261.032 38.9613 260.622 39.092C260.22 39.2227 259.88 39.4047 259.6 39.638L258.914 38.364C259.306 38.0653 259.777 37.8367 260.328 37.678C260.878 37.5193 261.462 37.44 262.078 37.44ZM261.84 43.824C262.278 43.824 262.666 43.726 263.002 43.53C263.347 43.3247 263.59 43.0353 263.73 42.662V41.794H261.924C260.916 41.794 260.412 42.1253 260.412 42.788C260.412 43.1053 260.538 43.3573 260.79 43.544C261.042 43.7307 261.392 43.824 261.84 43.824ZM270.092 38.616C270.596 37.832 271.482 37.44 272.752 37.44V39.106C272.602 39.078 272.467 39.064 272.346 39.064C271.664 39.064 271.132 39.2647 270.75 39.666C270.367 40.058 270.176 40.6273 270.176 41.374V45H268.426V37.524H270.092V38.616ZM279.704 44.594C279.498 44.762 279.246 44.888 278.948 44.972C278.658 45.056 278.35 45.098 278.024 45.098C277.202 45.098 276.568 44.8833 276.12 44.454C275.672 44.0247 275.448 43.3993 275.448 42.578V38.98H274.216V37.58H275.448V35.872H277.198V37.58H279.2V38.98H277.198V42.536C277.198 42.9 277.286 43.18 277.464 43.376C277.641 43.5627 277.898 43.656 278.234 43.656C278.626 43.656 278.952 43.5533 279.214 43.348L279.704 44.594ZM281.843 37.524H283.593V45H281.843V37.524ZM282.725 36.292C282.408 36.292 282.142 36.194 281.927 35.998C281.712 35.7927 281.605 35.5407 281.605 35.242C281.605 34.9433 281.712 34.696 281.927 34.5C282.142 34.2947 282.408 34.192 282.725 34.192C283.042 34.192 283.308 34.29 283.523 34.486C283.738 34.6727 283.845 34.9107 283.845 35.2C283.845 35.508 283.738 35.7693 283.523 35.984C283.318 36.1893 283.052 36.292 282.725 36.292ZM291.084 44.594C290.879 44.762 290.627 44.888 290.328 44.972C290.039 45.056 289.731 45.098 289.404 45.098C288.583 45.098 287.948 44.8833 287.5 44.454C287.052 44.0247 286.828 43.3993 286.828 42.578V38.98H285.596V37.58H286.828V35.872H288.578V37.58H290.58V38.98H288.578V42.536C288.578 42.9 288.667 43.18 288.844 43.376C289.021 43.5627 289.278 43.656 289.614 43.656C290.006 43.656 290.333 43.5533 290.594 43.348L291.084 44.594ZM296.08 37.44C297.181 37.44 298.021 37.706 298.6 38.238C299.188 38.7607 299.482 39.554 299.482 40.618V45H297.83V44.09C297.615 44.4167 297.307 44.6687 296.906 44.846C296.514 45.014 296.038 45.098 295.478 45.098C294.918 45.098 294.428 45.0047 294.008 44.818C293.588 44.622 293.261 44.356 293.028 44.02C292.804 43.6747 292.692 43.2873 292.692 42.858C292.692 42.186 292.939 41.6493 293.434 41.248C293.938 40.8373 294.726 40.632 295.8 40.632H297.732V40.52C297.732 39.9973 297.573 39.596 297.256 39.316C296.948 39.036 296.486 38.896 295.87 38.896C295.45 38.896 295.034 38.9613 294.624 39.092C294.222 39.2227 293.882 39.4047 293.602 39.638L292.916 38.364C293.308 38.0653 293.779 37.8367 294.33 37.678C294.88 37.5193 295.464 37.44 296.08 37.44ZM295.842 43.824C296.28 43.824 296.668 43.726 297.004 43.53C297.349 43.3247 297.592 43.0353 297.732 42.662V41.794H295.926C294.918 41.794 294.414 42.1253 294.414 42.788C294.414 43.1053 294.54 43.3573 294.792 43.544C295.044 43.7307 295.394 43.824 295.842 43.824Z" fill="black"/>
<line x1="11" y1="12.5" x2="285.002" y2="12.5" stroke="black" stroke-width="3"/>
<circle cx="22.5" cy="12.5" r="12.5" fill="black"/>
<circle cx="151.5" cy="12.5" r="12.5" fill="black"/>
<circle cx="273.5" cy="12.5" r="12.5" fill="#E8E7E7"/>
</svg>
