<svg width="53" height="39" viewBox="0 0 53 39" fill="none" xmlns="http://www.w3.org/2000/svg">
<path d="M27.0715 0.348399C37.132 0.348399 45.397 7.7869 46.7935 17.4484H52.7215L42.7465 28.8484L32.7715 17.4484H39.3835C38.7459 14.6585 37.1813 12.1673 34.9451 10.3814C32.7089 8.5956 29.9333 7.62069 27.0715 7.6159C22.939 7.6159 19.291 9.6394 16.9825 12.6889L12.109 7.1314C13.9744 4.99834 16.2748 3.28937 18.8556 2.11939C21.4364 0.949414 24.2379 0.34555 27.0715 0.348399V0.348399ZM25.9315 38.6524C15.8995 38.6524 7.60599 31.2139 6.20949 21.5524H0.281494L10.2565 10.1524C13.591 13.9429 16.897 17.7619 20.2315 21.5524H13.6195C14.2571 24.3422 15.8217 26.8335 18.0579 28.6193C20.2941 30.4052 23.0697 31.3801 25.9315 31.3849C30.064 31.3849 33.712 29.3614 36.0205 26.3119L40.894 31.8694C39.0304 34.0046 36.7304 35.7151 34.1491 36.8852C31.5679 38.0554 28.7656 38.658 25.9315 38.6524V38.6524Z" fill="#6FCF97"/>
</svg>
